{
.appVersion = "939";
copyright = "Copyright 2011 Google Inc. All Rights Reserved.";
customParameters = (
{
name = license;
value = "Licensed under the Apache License, Version 2.0";
},
{
name = licenseURL;
value = "http://www.apache.org/licenses/LICENSE-2.0";
},
{
name = vendorID;
value = GOOG;
},
{
name = panose;
value = (
2,
0,
0,
0,
0,
0,
0,
0,
0,
0
);
},
{
name = unicodeRanges;
value = (
0,
1,
2,
3,
4,
5,
6,
7,
9,
29,
30,
31,
32,
33,
34,
35,
36,
37,
38,
40,
45,
60,
62,
64,
69
);
},
{
name = codePageRanges;
value = (
1252,
1250,
1251,
1253,
1254,
1257,
1258
);
},
{
name = glyphOrder;
value = (
.notdef,
uni0000,
uni0002,
uni0009,
uni000D,
space,
exclam,
quotedbl,
numbersign,
dollar,
percent,
ampersand,
quotesingle,
parenleft,
parenright,
asterisk,
plus,
comma,
hyphen,
period,
slash,
zero,
one,
two,
three,
four,
five,
six,
seven,
eight,
nine,
colon,
semicolon,
less,
equal,
greater,
question,
at,
A,
B,
C,
D,
E,
F,
G,
H,
I,
J,
K,
L,
M,
N,
O,
P,
Q,
R,
S,
T,
U,
V,
W,
X,
Y,
Z,
bracketleft,
backslash,
bracketright,
asciicircum,
underscore,
grave,
a,
b,
c,
d,
e,
f,
g,
h,
i,
j,
k,
l,
m,
n,
o,
p,
q,
r,
s,
t,
u,
v,
w,
x,
y,
z,
braceleft,
bar,
braceright,
asciitilde,
exclamdown,
cent,
sterling,
currency,
yen,
brokenbar,
section,
dieresis,
copyright,
ordfeminine,
guillemotleft,
logicalnot,
registered,
macron,
degree,
plusminus,
twosuperior,
threesuperior,
acute,
mu,
paragraph,
periodcentered,
cedilla,
onesuperior,
ordmasculine,
guillemotright,
onequarter,
onehalf,
threequarters,
questiondown,
AE,
multiply,
Oslash,
Thorn,
germandbls,
ae,
eth,
divide,
oslash,
thorn,
dcroat,
Hbar,
dotlessi,
kgreenlandic,
Lslash,
lslash,
Eng,
eng,
OE,
oe,
longs,
uni0180,
uni0181,
uni0182,
uni0183,
uni0184,
uni0185,
uni0186,
uni0187,
uni0188,
uni0189,
uni018A,
uni018B,
uni018C,
uni018D,
uni018E,
uni018F,
uni0190,
uni0191,
florin,
uni0193,
uni0194,
uni0195,
uni0197,
uni0198,
uni0199,
uni019A,
uni019B,
uni019C,
uni019D,
Ohorn,
ohorn,
uni01A2,
uni01A3,
uni01A4,
uni01A5,
uni01A6,
uni01A7,
uni01A8,

glyphs = (
{
glyphname = .notdef;
lastChange = "2017-04-17 14:58:29 +0000";
layers = (
{
layerId = "D68CFE38-7B02-4705-B0C1-3A2279678377";
paths = (
{
closed = 1;
nodes = (
"808 1456 LINE",
"100 1456 LINE",
"100 0 LINE",
"808 0 LINE"
);
},
{
closed = 1;
nodes = (
"452 796 LINE",
"194 1402 LINE",
"709 1402 LINE"
);
},
{
closed = 1;
nodes = (
"754 84 LINE",
"480 728 LINE",
"754 1372 LINE"
);
},
{
closed = 1;
nodes = (
"154 96 LINE",
"154 1360 LINE",
"422 728 LINE"
);
},
{
closed = 1;
nodes = (
"709 54 LINE",
"194 54 LINE",
"452 660 LINE"
);
}
);
width = 908;
}
);
note = .notdef;
},
{
glyphname = exclam;
lastChange = "2017-04-17 14:58:29 +0000";
layers = (
{
layerId = "D68CFE38-7B02-4705-B0C1-3A2279678377";
paths = (
{
closed = 1;
nodes = (
"174 429 LINE",
"383 429 LINE",
"407 1456 LINE",
"150 1456 LINE"
);
},
{
closed = 1;
nodes = (
"144 43 OFFCURVE",
"194 -14 OFFCURVE",
"281 -14 CURVE SMOOTH",
"368 -14 OFFCURVE",
"419 43 OFFCURVE",
"419 116 CURVE SMOOTH",
"419 191 OFFCURVE",
"368 247 OFFCURVE",
"281 247 CURVE SMOOTH",
"194 247 OFFCURVE",
"144 191 OFFCURVE",
"144 116 CURVE SMOOTH"
);
}
);
width = 549;
}
);
note = exclam;
unicode = 0021;
},
{
glyphname = quotedbl;
lastChange = "2017-04-17 14:58:29 +0000";
layers = (
{
layerId = "D68CFE38-7B02-4705-B0C1-3A2279678377";
paths = (
{
closed = 1;
nodes = (
"101 1536 LINE",
"101 1013 LINE",
"240 1013 LINE",
"276 1400 LINE",
"276 1536 LINE"
);
},
{
closed = 1;
nodes = (
"402 1536 LINE",
"402 1013 LINE",
"541 1013 LINE",
"577 1400 LINE",
"577 1536 LINE"
);
}
);
width = 664;
}
);
leftKerningGroup = quotedbl;
note = quotedbl;
rightKerningGroup = quotedbl;
unicode = 0022;
},
{
glyphname = numbersign;
lastChange = "2017-04-17 14:58:29 +0000";
layers = (
{
layerId = "D68CFE38-7B02-4705-B0C1-3A2279678377";
paths = (
{
closed = 1;
nodes = (
"888 410 LINE",
"1138 410 LINE",
"1138 568 LINE",
"917 568 LINE",
"976 881 LINE",
"1213 881 LINE",
"1213 1040 LINE",
"1005 1040 LINE",
"1083 1456 LINE",
"915 1456 LINE",
"838 1040 LINE",
"613 1040 LINE",
"691 1456 LINE",
"524 1456 LINE",
"446 1040 LINE",
"173 1040 LINE",
"173 881 LINE",
"417 881 LINE",
"358 568 LINE",
"97 568 LINE",
"97 410 LINE",
"329 410 LINE",
"252 0 LINE",
"419 0 LINE",
"496 410 LINE",
"720 410 LINE",
"644 0 LINE",
"811 0 LINE"
);
},
{
closed = 1;
nodes = (
"808 881 LINE",
"750 568 LINE",
"525 568 LINE",
"584 881 LINE"
);
}
);
width = 1250;
}
);
note = numbersign;
unicode = 0023;
},
{
glyphname = dollar;
lastChange = "2017-04-17 14:58:29 +0000";
layers = (
{
layerId = "D68CFE38-7B02-4705-B0C1-3A2279678377";
paths = (
{
closed = 1;
nodes = (
"1062 630 OFFCURVE",
"902 740 OFFCURVE",
"645 833 CURVE SMOOTH",
"457 901 OFFCURVE",
"400 963 OFFCURVE",
"400 1075 CURVE SMOOTH",
"400 1194 OFFCURVE",
"463 1277 OFFCURVE",
"604 1277 CURVE SMOOTH",
"736 1277 OFFCURVE",
"813 1173 OFFCURVE",
"813 1005 CURVE",
"1055 1005 LINE",
"1055 1274 OFFCURVE",
"918 1439 OFFCURVE",
"691 1471 CURVE",
"691 1692 LINE",
"532 1692 LINE",
"532 1473 LINE",
"304 1448 OFFCURVE",
"157 1299 OFFCURVE",
"157 1074 CURVE SMOOTH",
"157 829 OFFCURVE",
"312 715 OFFCURVE",
"572 626 CURVE SMOOTH",
"752 565 OFFCURVE",
"819 494 OFFCURVE",
"819 381 CURVE SMOOTH",
"819 260 OFFCURVE",
"738 179 OFFCURVE",
"587 179 CURVE SMOOTH",
"468 179 OFFCURVE",
"344 239 OFFCURVE",
"344 444 CURVE",
"101 444 LINE",
"101 132 OFFCURVE",
"300 6 OFFCURVE",
"512 -17 CURVE",
"512 -212 LINE",
"671 -212 LINE",
"671 -17 LINE",
"910 10 OFFCURVE",
"1062 150 OFFCURVE",
"1062 383 CURVE SMOOTH"
);
}
);
width = 1164;
}
);
note = dollar;
unicode = 0024;
},
{
glyphname = percent;
lastChange = "2017-04-17 14:58:29 +0000";
layers = (
{
layerId = "D68CFE38-7B02-4705-B0C1-3A2279678377";
paths = (
{
closed = 1;
nodes = (
"100 936 OFFCURVE",
"213 800 OFFCURVE",
"410 800 CURVE SMOOTH",
"607 800 OFFCURVE",
"717 936 OFFCURVE",
"717 1099 CURVE SMOOTH",
"717 1176 LINE SMOOTH",
"717 1341 OFFCURVE",
"607 1477 OFFCURVE",
"408 1477 CURVE SMOOTH",
"212 1477 OFFCURVE",
"100 1341 OFFCURVE",
"100 1176 CURVE SMOOTH",
"100 1099 LINE SMOOTH"
);
},
{
closed = 1;
nodes = (
"269 1257 OFFCURVE",
"315 1331 OFFCURVE",
"408 1331 CURVE SMOOTH",
"501 1331 OFFCURVE",
"547 1257 OFFCURVE",
"547 1176 CURVE SMOOTH",
"547 1099 LINE SMOOTH",
"547 1019 OFFCURVE",
"503 946 OFFCURVE",
"410 946 CURVE SMOOTH",
"315 946 OFFCURVE",
"269 1020 OFFCURVE",
"269 1099 CURVE SMOOTH",
"269 1176 LINE SMOOTH"
);
},
{
closed = 1;
nodes = (
"334 182 LINE",
"459 109 LINE",
"1170 1247 LINE",
"1045 1320 LINE"
);
},
{
closed = 1;
nodes = (
"800 115 OFFCURVE",
"913 -21 OFFCURVE",
"1110 -21 CURVE SMOOTH",
"1307 -21 OFFCURVE",
"1417 115 OFFCURVE",
"1417 279 CURVE SMOOTH",
"1417 357 LINE SMOOTH",
"1417 521 OFFCURVE",
"1307 657 OFFCURVE",
"1108 657 CURVE SMOOTH",
"913 657 OFFCURVE",
"800 521 OFFCURVE",
"800 357 CURVE SMOOTH",
"800 279 LINE SMOOTH"
);
},
{
closed = 1;
nodes = (
"969 437 OFFCURVE",
"1015 511 OFFCURVE",
"1108 511 CURVE SMOOTH",
"1203 511 OFFCURVE",
"1248 437 OFFCURVE",
"1248 357 CURVE SMOOTH",
"1248 294 LINE SMOOTH",
"1248 181 OFFCURVE",
"1202 125 OFFCURVE",
"1110 125 CURVE SMOOTH",
"1019 125 OFFCURVE",
"969 199 OFFCURVE",
"969 279 CURVE SMOOTH",
"969 357 LINE SMOOTH"
);
}
);
width = 1504;
}
);
note = percent;
unicode = 0025;
},
{
glyphname = ampersand;
lastChange = "2017-04-17 14:58:29 +0000";
layers = (
{
layerId = "D68CFE38-7B02-4705-B0C1-3A2279678377";
paths = (
{
closed = 1;
nodes = (
"1083 254 LINE",
"1167 365 OFFCURVE",
"1209 512 OFFCURVE",
"1209 694 CURVE",
"998 694 LINE",
"998 597 OFFCURVE",
"978 508 OFFCURVE",
"937 427 CURVE",
"657 760 LINE",
"756 832 LINE SMOOTH",
"873 917 OFFCURVE",
"953 1013 OFFCURVE",
"953 1152 CURVE SMOOTH",
"953 1325 OFFCURVE",
"811 1476 OFFCURVE",
"590 1476 CURVE SMOOTH",
"359 1476 OFFCURVE",
"207 1338 OFFCURVE",
"207 1107 CURVE SMOOTH",
"207 995 OFFCURVE",
"266 896 OFFCURVE",
"358 780 CURVE",
"198 667 OFFCURVE",
"86 565 OFFCURVE",
"86 394 CURVE SMOOTH",
"86 153 OFFCURVE",
"269 -20 OFFCURVE",
"562 -20 CURVE SMOOTH",
"705 -20 OFFCURVE",
"828 19 OFFCURVE",
"933 97 CURVE",
"1015 0 LINE",
"1297 0 LINE"
);
},
{
closed = 1;
nodes = (
"435 1204 OFFCURVE",
"486 1281 OFFCURVE",
"589 1281 CURVE SMOOTH",
"686 1281 OFFCURVE",
"742 1212 OFFCURVE",
"742 1143 CURVE SMOOTH",
"742 1062 OFFCURVE",
"709 1016 OFFCURVE",
"625 961 CURVE SMOOTH",
"538 902 LINE",
"469 987 OFFCURVE",
"435 1057 OFFCURVE",
"435 1112 CURVE SMOOTH"
);
},
{
closed = 1;
nodes = (
"329 447 OFFCURVE",
"342 526 OFFCURVE",
"450 610 CURVE",
"481 632 LINE",
"798 257 LINE",
"727 202 OFFCURVE",
"650 175 OFFCURVE",
"569 175 CURVE SMOOTH",
"414 175 OFFCURVE",
"329 274 OFFCURVE",
"329 402 CURVE SMOOTH"
);
}
);
width = 1309;
}
);
note = ampersand;
unicode = 0026;
},
{
glyphname = quotesingle;
lastChange = "2017-04-17 14:58:29 +0000";
layers = (
{
layerId = "D68CFE38-7B02-4705-B0C1-3A2279678377";
paths = (
{
closed = 1;
nodes = (
"83 1536 LINE",
"83 1020 LINE",
"242 1020 LINE",
"267 1411 LINE",
"267 1536 LINE"
);
}
);
width = 346;
}
);
leftKerningGroup = quotedbl;
note = quotesingle;
rightKerningGroup = quotedbl;
unicode = 0027;
},
{
glyphname = parenleft;
lastChange = "2017-04-17 14:58:29 +0000";
layers = (
{
layerId = "D68CFE38-7B02-4705-B0C1-3A2279678377";
paths = (
{
closed = 1;
nodes = (
"129 388 OFFCURVE",
"156 215 OFFCURVE",
"211 72 CURVE SMOOTH",
"320 -213 OFFCURVE",
"490 -395 OFFCURVE",
"627 -463 CURVE",
"675 -328 LINE",
"524 -207 OFFCURVE",
"350 73 OFFCURVE",
"350 574 CURVE SMOOTH",
"350 610 LINE SMOOTH",
"353 1097 OFFCURVE",
"526 1376 OFFCURVE",
"675 1489 CURVE",
"627 1631 LINE",
"558 1597 OFFCURVE",
"486 1535 OFFCURVE",
"409 1445 CURVE SMOOTH",
"255 1265 OFFCURVE",
"129 977 OFFCURVE",
"129 592 CURVE SMOOTH"
);
}
);
width = 715;
}
);
note = parenleft;
unicode = 0028;
},
{
glyphname = parenright;
lastChange = "2017-04-17 14:58:29 +0000";
layers = (
{
layerId = "D68CFE38-7B02-4705-B0C1-3A2279678377";
paths = (
{
closed = 1;
nodes = (
"594 777 OFFCURVE",
"566 949 OFFCURVE",
"511 1092 CURVE SMOOTH",
"400 1378 OFFCURVE",
"227 1563 OFFCURVE",
"88 1631 CURVE",
"40 1496 LINE",
"87 1458 OFFCURVE",
"135 1400 OFFCURVE",
"186 1323 CURVE SMOOTH",
"286 1167 OFFCURVE",
"365 927 OFFCURVE",
"365 594 CURVE SMOOTH",
"365 574 LINE SMOOTH",
"365 73 OFFCURVE",
"191 -213 OFFCURVE",
"40 -328 CURVE",
"88 -463 LINE",
"157 -429 OFFCURVE",
"231 -366 OFFCURVE",
"310 -275 CURVE SMOOTH",
"467 -92 OFFCURVE",
"594 197 OFFCURVE",
"594 576 CURVE SMOOTH"
);
}
);
width = 723;
}
);
note = parenright;
unicode = 0029;
},
{
glyphname = asterisk;
lastChange = "2017-04-17 14:58:29 +0000";
layers = (
{
layerId = "D68CFE38-7B02-4705-B0C1-3A2279678377";
paths = (
{
closed = 1;
nodes = (
"449 878 LINE",
"630 590 LINE",
"775 695 LINE",
"575 962 LINE",
"885 1050 LINE",
"831 1221 LINE",
"534 1106 LINE",
"549 1457 LINE",
"370 1457 LINE",
"385 1112 LINE",
"82 1230 LINE",
"28 1060 LINE",
"332 972 LINE",
"126 700 LINE",
"272 598 LINE"
);
}
);
width = 906;
}
);
note = asterisk;
unicode = 002A;
},
{
glyphname = plus;
lastChange = "2017-04-17 14:58:29 +0000";
layers = (
{
layerId = "D68CFE38-7B02-4705-B0C1-3A2279678377";
paths = (
{
closed = 1;
nodes = (
"686 801 LINE",
"686 1206 LINE",
"451 1206 LINE",
"451 801 LINE",
"69 801 LINE",
"69 580 LINE",
"451 580 LINE",
"451 146 LINE",
"686 146 LINE",
"686 580 LINE",
"1067 580 LINE",
"1067 801 LINE"
);
}
);
width = 1142;
}
);
note = plus;
unicode = 002B;
},
{
glyphname = comma;
lastChange = "2017-05-20 16:21:05 +0000";
layers = (
{
layerId = "D68CFE38-7B02-4705-B0C1-3A2279678377";
paths = (
{
closed = 1;
nodes = (
"131 54 LINE SMOOTH",
"131 -71 OFFCURVE",
"85 -162 OFFCURVE",
"29 -251 CURVE",
"160 -328 LINE",
"275 -233 OFFCURVE",
"349 -73 OFFCURVE",
"349 63 CURVE SMOOTH",
"349 235 LINE",
"131 235 LINE"
);
}
);
width = 451;
}
);
leftKerningGroup = comma;
note = comma;
rightKerningGroup = comma;
unicode = 002C;
},
{
glyphname = hyphen;
lastChange = "2017-04-17 14:58:29 +0000";
layers = (
{
layerId = "D68CFE38-7B02-4705-B0C1-3A2279678377";
paths = (
{
closed = 1;
nodes = (
"71 522 LINE",
"596 522 LINE",
"596 717 LINE",
"71 717 LINE"
);
}
);
width = 673;
}
);
leftKerningGroup = hyphen;
note = hyphen;
unicode = 002D;
},
{
glyphname = period;
lastChange = "2017-04-17 14:58:29 +0000";
layers = (
{
layerId = "D68CFE38-7B02-4705-B0C1-3A2279678377";
paths = (
{
closed = 1;
nodes = (
"136 46 OFFCURVE",
"188 -12 OFFCURVE",
"277 -12 CURVE SMOOTH",
"366 -12 OFFCURVE",
"419 46 OFFCURVE",
"419 122 CURVE SMOOTH",
"419 198 OFFCURVE",
"366 257 OFFCURVE",
"277 257 CURVE SMOOTH",
"188 257 OFFCURVE",
"136 198 OFFCURVE",
"136 122 CURVE SMOOTH"
);
}
);
width = 572;
}
);
leftKerningGroup = comma;
note = period;
rightKerningGroup = comma;
unicode = 002E;
},
{
glyphname = slash;
lastChange = "2017-04-17 14:58:29 +0000";
layers = (
{
layerId = "D68CFE38-7B02-4705-B0C1-3A2279678377";
paths = (
{
closed = 1;
nodes = (
"2 -125 LINE",
"194 -125 LINE",
"767 1456 LINE",
"576 1456 LINE"
);
}
);
width = 811;
}
);
note = slash;
unicode = 002F;
},
{
glyphname = zero;
lastChange = "2017-04-17 14:58:29 +0000";
layers = (
{
layerId = "D68CFE38-7B02-4705-B0C1-3A2279678377";
paths = (
{
closed = 1;
nodes = (
"1057 1312 OFFCURVE",
"868 1476 OFFCURVE",
"581 1476 CURVE SMOOTH",
"296 1476 OFFCURVE",
"105 1312 OFFCURVE",
"105 849 CURVE SMOOTH",
"105 593 LINE SMOOTH",
"110 149 OFFCURVE",
"302 -20 OFFCURVE",
"583 -20 CURVE SMOOTH",
"871 -20 OFFCURVE",
"1058 153 OFFCURVE",
"1058 614 CURVE SMOOTH",
"1058 855 LINE"
);
},
{
closed = 1;
nodes = (
"815 283 OFFCURVE",
"732 175 OFFCURVE",
"583 175 CURVE SMOOTH",
"434 175 OFFCURVE",
"348 284 OFFCURVE",
"348 579 CURVE SMOOTH",
"348 894 LINE SMOOTH",
"349 1181 OFFCURVE",
"434 1281 OFFCURVE",
"581 1281 CURVE SMOOTH",
"732 1281 OFFCURVE",
"816 1179 OFFCURVE",
"816 886 CURVE SMOOTH",
"816 571 LINE SMOOTH"
);
}
);
width = 1164;
}
);
note = zero;
unicode = 0030;
},
{
glyphname = one;
lastChange = "2017-04-17 14:58:29 +0000";
layers = (
{
layerId = "D68CFE38-7B02-4705-B0C1-3A2279678377";
paths = (
{
closed = 1;
nodes = (
"168 1253 LINE",
"168 1048 LINE",
"525 1170 LINE",
"525 0 LINE",
"768 0 LINE",
"768 1461 LINE",
"737 1461 LINE"
);
}
);
width = 1164;
}
);
note = one;
unicode = 0031;
},
{
glyphname = two;
lastChange = "2017-04-17 14:58:29 +0000";
layers = (
{
layerId = "D68CFE38-7B02-4705-B0C1-3A2279678377";
paths = (
{
closed = 1;
nodes = (
"739 545 LINE SMOOTH",
"912 729 OFFCURVE",
"1032 897 OFFCURVE",
"1032 1076 CURVE SMOOTH",
"1032 1319 OFFCURVE",
"866 1476 OFFCURVE",
"575 1476 CURVE SMOOTH",
"260 1476 OFFCURVE",
"81 1268 OFFCURVE",
"81 1013 CURVE",
"324 1013 LINE",
"324 1169 OFFCURVE",
"407 1281 OFFCURVE",
"572 1281 CURVE SMOOTH",
"711 1281 OFFCURVE",
"789 1183 OFFCURVE",
"789 1050 CURVE SMOOTH",
"789 951 OFFCURVE",
"743 861 OFFCURVE",
"583 684 CURVE SMOOTH",
"109 168 LINE",
"109 0 LINE",
"1089 0 LINE",
"1089 195 LINE",
"412 195 LINE"
);
}
);
width = 1164;
}
);
note = two;
unicode = 0032;
},
{
glyphname = three;
lastChange = "2017-04-17 14:58:29 +0000";
layers = (
{
layerId = "D68CFE38-7B02-4705-B0C1-3A2279678377";
paths = (
{
closed = 1;
nodes = (
"710 647 OFFCURVE",
"803 567 OFFCURVE",
"803 408 CURVE SMOOTH",
"803 259 OFFCURVE",
"712 175 OFFCURVE",
"561 175 CURVE SMOOTH",
"417 175 OFFCURVE",
"323 263 OFFCURVE",
"323 391 CURVE",
"80 391 LINE",
"80 120 OFFCURVE",
"305 -20 OFFCURVE",
"557 -20 CURVE SMOOTH",
"836 -20 OFFCURVE",
"1046 135 OFFCURVE",
"1046 408 CURVE SMOOTH",
"1046 552 OFFCURVE",
"979 688 OFFCURVE",
"800 748 CURVE",
"951 816 OFFCURVE",
"1024 947 OFFCURVE",
"1024 1062 CURVE SMOOTH",
"1024 1335 OFFCURVE",
"836 1476 OFFCURVE",
"557 1476 CURVE SMOOTH",
"288 1476 OFFCURVE",
"94 1308 OFFCURVE",
"94 1077 CURVE",
"336 1077 LINE",
"336 1202 OFFCURVE",
"432 1281 OFFCURVE",
"561 1281 CURVE SMOOTH",
"708 1281 OFFCURVE",
"782 1208 OFFCURVE",
"782 1062 CURVE SMOOTH",
"782 931 OFFCURVE",
"701 839 OFFCURVE",
"534 839 CURVE SMOOTH",
"391 839 LINE",
"391 647 LINE",
"525 647 LINE SMOOTH"
);
}
);
width = 1164;
}
);
note = three;
unicode = 0033;
},
{
glyphname = four;
lastChange = "2017-04-17 14:58:29 +0000";
layers = (
{
layerId = "D68CFE38-7B02-4705-B0C1-3A2279678377";
paths = (
{
closed = 1;
nodes = (
"688 325 LINE",
"688 0 LINE",
"931 0 LINE",
"931 325 LINE",
"1113 325 LINE",
"1113 520 LINE",
"931 520 LINE",
"931 1456 LINE",
"681 1456 LINE",
"53 472 LINE",
"59 325 LINE"
);
},
{
closed = 1;
nodes = (
"688 1125 LINE",
"688 520 LINE",
"307 520 LINE",
"671 1095 LINE"
);
}
);
width = 1164;
}
);
note = four;
unicode = 0034;
},
{
glyphname = five;
lastChange = "2017-04-17 14:58:29 +0000";
layers = (
{
layerId = "D68CFE38-7B02-4705-B0C1-3A2279678377";
paths = (
{
closed = 1;
nodes = (
"421 723 OFFCURVE",
"468 760 OFFCURVE",
"581 760 CURVE SMOOTH",
"750 760 OFFCURVE",
"840 640 OFFCURVE",
"840 473 CURVE SMOOTH",
"840 298 OFFCURVE",
"760 175 OFFCURVE",
"603 175 CURVE SMOOTH",
"463 175 OFFCURVE",
"384 248 OFFCURVE",
"365 394 CURVE",
"129 394 LINE",
"146 123 OFFCURVE",
"360 -20 OFFCURVE",
"603 -20 CURVE SMOOTH",
"927 -20 OFFCURVE",
"1082 197 OFFCURVE",
"1082 466 CURVE SMOOTH",
"1082 769 OFFCURVE",
"919 956 OFFCURVE",
"643 956 CURVE SMOOTH",
"560 956 OFFCURVE",
"484 937 OFFCURVE",
"416 899 CURVE",
"455 1247 LINE",
"1035 1247 LINE",
"1035 1456 LINE",
"253 1456 LINE",
"175 722 LINE",
"368 674 LINE"
);
}
);
width = 1164;
}
);
note = five;
unicode = 0035;
},
{
glyphname = six;
lastChange = "2017-04-17 14:58:29 +0000";
layers = (
{
layerId = "D68CFE38-7B02-4705-B0C1-3A2279678377";
paths = (
{
closed = 1;
nodes = (
"1079 730 OFFCURVE",
"948 964 OFFCURVE",
"664 964 CURVE SMOOTH",
"541 964 OFFCURVE",
"442 924 OFFCURVE",
"366 843 CURVE",
"391 1074 OFFCURVE",
"531 1260 OFFCURVE",
"840 1263 CURVE SMOOTH",
"865 1263 LINE",
"865 1463 LINE",
"837 1463 LINE SMOOTH",
"662 1463 OFFCURVE",
"521 1425 OFFCURVE",
"416 1349 CURVE SMOOTH",
"205 1196 OFFCURVE",
"118 934 OFFCURVE",
"118 646 CURVE SMOOTH",
"118 567 LINE SMOOTH",
"118 215 OFFCURVE",
"314 -20 OFFCURVE",
"607 -20 CURVE SMOOTH",
"907 -20 OFFCURVE",
"1079 198 OFFCURVE",
"1079 477 CURVE SMOOTH"
);
},
{
closed = 1;
nodes = (
"398 696 OFFCURVE",
"492 769 OFFCURVE",
"605 769 CURVE SMOOTH",
"758 769 OFFCURVE",
"839 632 OFFCURVE",
"839 471 CURVE SMOOTH",
"839 299 OFFCURVE",
"751 176 OFFCURVE",
"604 176 CURVE SMOOTH",
"472 176 OFFCURVE",
"361 297 OFFCURVE",
"361 530 CURVE SMOOTH",
"361 605 LINE"
);
}
);
width = 1164;
}
);
note = six;
unicode = 0036;
},
{
glyphname = seven;
lastChange = "2017-04-17 14:58:29 +0000";
layers = (
{
layerId = "D68CFE38-7B02-4705-B0C1-3A2279678377";
paths = (
{
closed = 1;
nodes = (
"70 1261 LINE",
"823 1261 LINE",
"241 0 LINE",
"497 0 LINE",
"1079 1322 LINE",
"1079 1456 LINE",
"70 1456 LINE"
);
}
);
width = 1164;
}
);
note = seven;
unicode = 0037;
},
{
glyphname = eight;
lastChange = "2017-04-17 14:58:29 +0000";
layers = (
{
layerId = "D68CFE38-7B02-4705-B0C1-3A2279678377";
paths = (
{
closed = 1;
nodes = (
"1058 558 OFFCURVE",
"966 684 OFFCURVE",
"822 751 CURVE",
"947 815 OFFCURVE",
"1026 932 OFFCURVE",
"1026 1073 CURVE SMOOTH",
"1026 1330 OFFCURVE",
"840 1476 OFFCURVE",
"581 1476 CURVE SMOOTH",
"322 1476 OFFCURVE",
"136 1330 OFFCURVE",
"136 1073 CURVE SMOOTH",
"136 932 OFFCURVE",
"214 815 OFFCURVE",
"339 751 CURVE",
"195 686 OFFCURVE",
"104 558 OFFCURVE",
"104 397 CURVE SMOOTH",
"104 126 OFFCURVE",
"311 -20 OFFCURVE",
"582 -20 CURVE SMOOTH",
"853 -20 OFFCURVE",
"1058 126 OFFCURVE",
"1058 397 CURVE SMOOTH"
);
},
{
closed = 1;
nodes = (
"783 933 OFFCURVE",
"706 846 OFFCURVE",
"582 846 CURVE SMOOTH",
"457 846 OFFCURVE",
"379 933 OFFCURVE",
"379 1064 CURVE SMOOTH",
"379 1197 OFFCURVE",
"458 1281 OFFCURVE",
"581 1281 CURVE SMOOTH",
"705 1281 OFFCURVE",
"783 1192 OFFCURVE",
"783 1064 CURVE SMOOTH"
);
},
{
closed = 1;
nodes = (
"815 263 OFFCURVE",
"727 175 OFFCURVE",
"582 175 CURVE SMOOTH",
"437 175 OFFCURVE",
"347 263 OFFCURVE",
"347 410 CURVE SMOOTH",
"347 554 OFFCURVE",
"437 651 OFFCURVE",
"580 651 CURVE SMOOTH",
"721 651 OFFCURVE",
"815 554 OFFCURVE",
"815 410 CURVE SMOOTH"
);
}
);
width = 1164;
}
);
note = eight;
unicode = 0038;
},
{
glyphname = nine;
lastChange = "2017-04-17 14:58:29 +0000";
layers = (
{
layerId = "D68CFE38-7B02-4705-B0C1-3A2279678377";
paths = (
{
closed = 1;
nodes = (
"1043 1205 OFFCURVE",
"884 1476 OFFCURVE",
"564 1476 CURVE SMOOTH",
"265 1476 OFFCURVE",
"94 1248 OFFCURVE",
"94 968 CURVE SMOOTH",
"94 712 OFFCURVE",
"230 481 OFFCURVE",
"513 481 CURVE SMOOTH",
"622 481 OFFCURVE",
"718 524 OFFCURVE",
"799 610 CURVE",
"783 375 OFFCURVE",
"672 199 OFFCURVE",
"336 195 CURVE SMOOTH",
"305 195 LINE",
"305 -7 LINE",
"325 -7 LINE SMOOTH",
"512 -7 OFFCURVE",
"658 32 OFFCURVE",
"762 109 CURVE SMOOTH",
"970 263 OFFCURVE",
"1043 525 OFFCURVE",
"1043 805 CURVE SMOOTH",
"1043 884 LINE SMOOTH"
);
},
{
closed = 1;
nodes = (
"334 1143 OFFCURVE",
"418 1280 OFFCURVE",
"563 1280 CURVE SMOOTH",
"690 1280 OFFCURVE",
"801 1157 OFFCURVE",
"801 924 CURVE SMOOTH",
"801 829 LINE",
"760 740 OFFCURVE",
"669 671 OFFCURVE",
"564 671 CURVE SMOOTH",
"408 671 OFFCURVE",
"334 816 OFFCURVE",
"334 975 CURVE SMOOTH"
);
}
);
width = 1164;
}
);
note = nine;
unicode = 0039;
},
{
glyphname = colon;
lastChange = "2017-04-17 14:58:29 +0000";
layers = (
{
layerId = "D68CFE38-7B02-4705-B0C1-3A2279678377";
paths = (
{
closed = 1;
nodes = (
"130 46 OFFCURVE",
"182 -12 OFFCURVE",
"271 -12 CURVE SMOOTH",
"360 -12 OFFCURVE",
"413 46 OFFCURVE",
"413 122 CURVE SMOOTH",
"413 198 OFFCURVE",
"360 257 OFFCURVE",
"271 257 CURVE SMOOTH",
"182 257 OFFCURVE",
"130 198 OFFCURVE",
"130 122 CURVE SMOOTH"
);
},
{
closed = 1;
nodes = (
"130 895 OFFCURVE",
"182 837 OFFCURVE",
"271 837 CURVE SMOOTH",
"360 837 OFFCURVE",
"413 895 OFFCURVE",
"413 971 CURVE SMOOTH",
"413 1047 OFFCURVE",
"360 1106 OFFCURVE",
"271 1106 CURVE SMOOTH",
"182 1106 OFFCURVE",
"130 1047 OFFCURVE",
"130 971 CURVE SMOOTH"
);
}
);
width = 543;
}
);
note = colon;
unicode = 003A;
},
{
glyphname = semicolon;
lastChange = "2017-04-17 14:58:29 +0000";
layers = (
{
layerId = "D68CFE38-7B02-4705-B0C1-3A2279678377";
paths = (
{
closed = 1;
nodes = (
"109 895 OFFCURVE",
"161 837 OFFCURVE",
"250 837 CURVE SMOOTH",
"339 837 OFFCURVE",
"392 895 OFFCURVE",
"392 971 CURVE SMOOTH",
"392 1047 OFFCURVE",
"339 1106 OFFCURVE",
"250 1106 CURVE SMOOTH",
"161 1106 OFFCURVE",
"109 1047 OFFCURVE",
"109 971 CURVE SMOOTH"
);
},
{
closed = 1;
nodes = (
"149 54 LINE SMOOTH",
"149 -71 OFFCURVE",
"103 -162 OFFCURVE",
"47 -251 CURVE",
"178 -328 LINE",
"293 -233 OFFCURVE",
"367 -73 OFFCURVE",
"367 63 CURVE SMOOTH",
"367 235 LINE",
"149 235 LINE"
);
}
);
width = 487;
}
);
note = semicolon;
unicode = 003B;
},
{
glyphname = less;
lastChange = "2017-04-17 14:58:29 +0000";
layers = (
{
layerId = "D68CFE38-7B02-4705-B0C1-3A2279678377";
paths = (
{
closed = 1;
nodes = (
"310 632 LINE",
"901 860 LINE",
"901 1102 LINE",
"63 730 LINE",
"63 537 LINE",
"901 165 LINE",
"901 407 LINE"
);
}
);
width = 1041;
}
);
note = less;
unicode = 003C;
},
{
glyphname = equal;
lastChange = "2017-04-17 14:58:29 +0000";
layers = (
{
layerId = "D68CFE38-7B02-4705-B0C1-3A2279678377";
paths = (
{
closed = 1;
nodes = (
"145 781 LINE",
"1008 781 LINE",
"1008 982 LINE",
"145 982 LINE"
);
},
{
closed = 1;
nodes = (
"145 356 LINE",
"1008 356 LINE",
"1008 558 LINE",
"145 558 LINE"
);
}
);
width = 1146;
}
);
note = equal;
unicode = 003D;
},
{
glyphname = greater;
lastChange = "2017-04-17 14:58:29 +0000";
layers = (
{
layerId = "D68CFE38-7B02-4705-B0C1-3A2279678377";
paths = (
{
closed = 1;
nodes = (
"747 636 LINE",
"129 404 LINE",
"129 165 LINE",
"992 537 LINE",
"992 731 LINE",
"129 1102 LINE",
"129 864 LINE"
);
}
);
width = 1066;
}
);
note = greater;
unicode = 003E;
},
{
glyphname = question;
lastChange = "2017-04-17 14:58:29 +0000";
layers = (
{
layerId = "D68CFE38-7B02-4705-B0C1-3A2279678377";
paths = (
{
closed = 1;
nodes = (
"578 526 OFFCURVE",
"597 603 OFFCURVE",
"668 671 CURVE SMOOTH",
"887 880 OFFCURVE",
"920 955 OFFCURVE",
"920 1090 CURVE SMOOTH",
"920 1333 OFFCURVE",
"763 1476 OFFCURVE",
"495 1476 CURVE SMOOTH",
"251 1476 OFFCURVE",
"63 1345 OFFCURVE",
"60 1093 CURVE",
"303 1093 LINE",
"304 1221 OFFCURVE",
"399 1274 OFFCURVE",
"495 1274 CURVE SMOOTH",
"616 1274 OFFCURVE",
"677 1210 OFFCURVE",
"677 1081 CURVE SMOOTH",
"677 1041 OFFCURVE",
"669 1006 OFFCURVE",
"654 975 CURVE SMOOTH",
"639 944 OFFCURVE",
"595 894 OFFCURVE",
"523 823 CURVE SMOOTH",
"379 682 OFFCURVE",
"353 609 OFFCURVE",
"350 429 CURVE",
"577 429 LINE"
);
},
{
closed = 1;
nodes = (
"333 45 OFFCURVE",
"384 -12 OFFCURVE",
"471 -12 CURVE SMOOTH",
"558 -12 OFFCURVE",
"609 45 OFFCURVE",
"609 118 CURVE SMOOTH",
"609 193 OFFCURVE",
"558 249 OFFCURVE",
"471 249 CURVE SMOOTH",
"384 249 OFFCURVE",
"333 193 OFFCURVE",
"333 118 CURVE SMOOTH"
);
}
);
width = 997;
}
);
note = question;
unicode = 003F;
},
{
glyphname = at;
lastChange = "2017-04-17 14:58:29 +0000";
layers = (
{
layerId = "D68CFE38-7B02-4705-B0C1-3A2279678377";
paths = (
{
closed = 1;
nodes = (
"1133 -277 OFFCURVE",
"1023 -301 OFFCURVE",
"894 -301 CURVE SMOOTH",
"479 -301 OFFCURVE",
"251 -21 OFFCURVE",
"274 471 CURVE SMOOTH",
"294 942 OFFCURVE",
"547 1275 OFFCURVE",
"960 1275 CURVE SMOOTH",
"1407 1275 OFFCURVE",
"1602 984 OFFCURVE",
"1581 515 CURVE SMOOTH",
"1573 295 OFFCURVE",
"1487 122 OFFCURVE",
"1343 122 CURVE SMOOTH",
"1312 122 OFFCURVE",
"1284 134 OFFCURVE",
"1258 159 CURVE SMOOTH",
"1231 184 OFFCURVE",
"1222 237 OFFCURVE",
"1229 319 CURVE SMOOTH",
"1280 883 LINE",
"1201 940 OFFCURVE",
"1131 990 OFFCURVE",
"980 990 CURVE SMOOTH",
"763 990 OFFCURVE",
"568 770 OFFCURVE",
"533 423 CURVE SMOOTH",
"508 158 OFFCURVE",
"614 -20 OFFCURVE",
"811 -20 CURVE SMOOTH",
"916 -20 OFFCURVE",
"1003 31 OFFCURVE",
"1072 133 CURVE",
"1112 30 OFFCURVE",
"1192 -21 OFFCURVE",
"1313 -21 CURVE SMOOTH",
"1413 -21 OFFCURVE",
"1494 6 OFFCURVE",
"1555 60 CURVE SMOOTH",
"1677 168 OFFCURVE",
"1731 346 OFFCURVE",
"1738 518 CURVE SMOOTH",
"1761 1067 OFFCURVE",
"1477 1425 OFFCURVE",
"964 1425 CURVE SMOOTH",
"794 1425 OFFCURVE",
"646 1384 OFFCURVE",
"519 1301 CURVE SMOOTH",
"266 1135 OFFCURVE",
"115 835 OFFCURVE",
"99 471 CURVE SMOOTH",
"76 -112 OFFCURVE",
"373 -453 OFFCURVE",
"890 -453 CURVE SMOOTH",
"1015 -453 OFFCURVE",
"1169 -424 OFFCURVE",
"1264 -364 CURVE",
"1225 -228 LINE"
);
},
{
closed = 1;
nodes = (
"753 698 OFFCURVE",
"844 835 OFFCURVE",
"999 835 CURVE SMOOTH",
"1032 835 OFFCURVE",
"1064 829 OFFCURVE",
"1095 817 CURVE",
"1050 323 LINE",
"1002 192 OFFCURVE",
"927 146 OFFCURVE",
"870 146 CURVE SMOOTH",
"759 146 OFFCURVE",
"711 238 OFFCURVE",
"728 423 CURVE SMOOTH"
);
}
);
width = 1833;
}
);
note = at;
unicode = 0040;
},
{
glyphname = A;
lastChange = "2017-04-17 14:58:29 +0000";
layers = (
{
layerId = "D68CFE38-7B02-4705-B0C1-3A2279678377";
paths = (
{
closed = 1;
nodes = (
"400 340 LINE",
"964 340 LINE",
"1083 0 LINE",
"1347 0 LINE",
"795 1456 LINE",
"568 1456 LINE",
"18 0 LINE",
"282 0 LINE"
);
},
{
closed = 1;
nodes = (
"894 543 LINE",
"471 543 LINE",
"682 1149 LINE"
);
}
);
width = 1363;
}
);
leftKerningGroup = A;
note = A;
rightKerningGroup = A;
unicode = 0041;
},
{
glyphname = B;
lastChange = "2017-04-17 14:58:29 +0000";
layers = (
{
layerId = "D68CFE38-7B02-4705-B0C1-3A2279678377";
paths = (
{
closed = 1;
nodes = (
"1187 577 OFFCURVE",
"1108 715 OFFCURVE",
"941 759 CURVE",
"1080 816 OFFCURVE",
"1153 930 OFFCURVE",
"1153 1062 CURVE SMOOTH",
"1153 1334 OFFCURVE",
"964 1456 OFFCURVE",
"647 1456 CURVE SMOOTH",
"149 1456 LINE",
"149 0 LINE",
"683 0 LINE SMOOTH",
"996 0 OFFCURVE",
"1187 146 OFFCURVE",
"1187 425 CURVE SMOOTH"
);
},
{
closed = 1;
nodes = (
"820 1250 OFFCURVE",
"900 1181 OFFCURVE",
"900 1048 CURVE SMOOTH",
"900 919 OFFCURVE",
"808 844 OFFCURVE",
"649 844 CURVE SMOOTH",
"401 844 LINE",
"401 1253 LINE",
"659 1253 LINE SMOOTH"
);
},
{
closed = 1;
nodes = (
"935 293 OFFCURVE",
"848 202 OFFCURVE",
"683 202 CURVE SMOOTH",
"401 202 LINE",
"401 657 LINE",
"708 657 LINE SMOOTH",
"859 652 OFFCURVE",
"935 575 OFFCURVE",
"935 426 CURVE SMOOTH"
);
}
);
width = 1293;
}
);
note = B;
rightKerningGroup = B;
unicode = 0042;
},
{
glyphname = C;
lastChange = "2017-04-17 14:58:29 +0000";
layers = (
{
layerId = "D68CFE38-7B02-4705-B0C1-3A2279678377";
paths = (
{
closed = 1;
nodes = (
"983 287 OFFCURVE",
"906 184 OFFCURVE",
"689 184 CURVE SMOOTH",
"453 184 OFFCURVE",
"357 378 OFFCURVE",
"357 669 CURVE SMOOTH",
"357 794 LINE SMOOTH",
"358 1097 OFFCURVE",
"472 1272 OFFCURVE",
"701 1272 CURVE SMOOTH",
"909 1272 OFFCURVE",
"987 1160 OFFCURVE",
"1008 975 CURVE",
"1260 975 LINE",
"1231 1266 OFFCURVE",
"1049 1476 OFFCURVE",
"701 1476 CURVE SMOOTH",
"334 1476 OFFCURVE",
"102 1206 OFFCURVE",
"102 787 CURVE SMOOTH",
"102 669 LINE SMOOTH",
"102 249 OFFCURVE",
"330 -20 OFFCURVE",
"689 -20 CURVE SMOOTH",
"1046 -20 OFFCURVE",
"1234 191 OFFCURVE",
"1259 474 CURVE",
"1007 474 LINE"
);
}
);
width = 1337;
}
);
leftKerningGroup = C;
note = C;
rightKerningGroup = C;
unicode = 0043;
},
{
glyphname = D;
lastChange = "2017-04-17 14:58:29 +0000";
layers = (
{
layerId = "D68CFE38-7B02-4705-B0C1-3A2279678377";
paths = (
{
closed = 1;
nodes = (
"970 0 OFFCURVE",
"1234 271 OFFCURVE",
"1234 691 CURVE SMOOTH",
"1234 764 LINE SMOOTH",
"1234 1184 OFFCURVE",
"967 1456 OFFCURVE",
"578 1456 CURVE SMOOTH",
"149 1456 LINE",
"149 0 LINE",
"567 0 LINE SMOOTH"
);
},
{
closed = 1;
nodes = (
"839 1253 OFFCURVE",
"981 1081 OFFCURVE",
"981 766 CURVE SMOOTH",
"981 683 LINE SMOOTH",
"978 383 OFFCURVE",
"839 202 OFFCURVE",
"567 202 CURVE SMOOTH",
"401 202 LINE",
"401 1253 LINE",
"578 1253 LINE SMOOTH"
);
}
);
width = 1338;
}
);
note = D;
rightKerningGroup = D;
unicode = 0044;
},
{
glyphname = E;
lastChange = "2017-04-17 14:58:29 +0000";
layers = (
{
layerId = "D68CFE38-7B02-4705-B0C1-3A2279678377";
paths = (
{
closed = 1;
nodes = (
"1101 202 LINE",
"401 202 LINE",
"401 651 LINE",
"999 651 LINE",
"999 850 LINE",
"401 850 LINE",
"401 1253 LINE",
"1094 1253 LINE",
"1094 1456 LINE",
"149 1456 LINE",
"149 0 LINE",
"1101 0 LINE"
);
}
);
width = 1158;
}
);
note = E;
rightKerningGroup = E;
unicode = 0045;
},
{
glyphname = F;
lastChange = "2017-04-17 14:58:29 +0000";
layers = (
{
layerId = "D68CFE38-7B02-4705-B0C1-3A2279678377";
paths = (
{
closed = 1;
nodes = (
"401 617 LINE",
"987 617 LINE",
"987 819 LINE",
"401 819 LINE",
"401 1253 LINE",
"1073 1253 LINE",
"1073 1456 LINE",
"149 1456 LINE",
"149 0 LINE",
"401 0 LINE"
);
}
);
width = 1126;
}
);
note = F;
unicode = 0046;
},
{
glyphname = G;
lastChange = "2017-04-17 14:58:29 +0000";
layers = (
{
layerId = "D68CFE38-7B02-4705-B0C1-3A2279678377";
paths = (
{
closed = 1;
nodes = (
"713 556 LINE",
"1012 556 LINE",
"1012 270 LINE",
"995 251 OFFCURVE",
"966 232 OFFCURVE",
"927 212 CURVE SMOOTH",
"887 192 OFFCURVE",
"823 182 OFFCURVE",
"736 182 CURVE SMOOTH",
"503 182 OFFCURVE",
"361 360 OFFCURVE",
"361 680 CURVE SMOOTH",
"361 787 LINE SMOOTH",
"364 1096 OFFCURVE",
"475 1273 OFFCURVE",
"710 1273 CURVE SMOOTH",
"907 1273 OFFCURVE",
"991 1162 OFFCURVE",
"1016 1011 CURVE",
"1264 1011 LINE",
"1229 1282 OFFCURVE",
"1062 1476 OFFCURVE",
"706 1476 CURVE SMOOTH",
"330 1476 OFFCURVE",
"106 1220 OFFCURVE",
"106 775 CURVE SMOOTH",
"106 680 LINE SMOOTH",
"106 235 OFFCURVE",
"361 -20 OFFCURVE",
"728 -20 CURVE SMOOTH",
"1053 -20 OFFCURVE",
"1203 107 OFFCURVE",
"1264 190 CURVE",
"1264 747 LINE",
"713 747 LINE"
);
}
);
width = 1395;
}
);
leftKerningGroup = C;
note = G;
unicode = 0047;
},
{
glyphname = H;
lastChange = "2017-04-17 14:58:29 +0000";
layers = (
{
layerId = "D68CFE38-7B02-4705-B0C1-3A2279678377";
paths = (
{
closed = 1;
nodes = (
"1305 1456 LINE",
"1052 1456 LINE",
"1052 850 LINE",
"401 850 LINE",
"401 1456 LINE",
"149 1456 LINE",
"149 0 LINE",
"401 0 LINE",
"401 648 LINE",
"1052 648 LINE",
"1052 0 LINE",
"1305 0 LINE"
);
}
);
width = 1456;
}
);
note = H;
rightKerningGroup = H;
unicode = 0048;
},
{
glyphname = I;
lastChange = "2017-04-17 14:58:29 +0000";
layers = (
{
layerId = "D68CFE38-7B02-4705-B0C1-3A2279678377";
paths = (
{
closed = 1;
nodes = (
"164 0 LINE",
"416 0 LINE",
"416 1456 LINE",
"164 1456 LINE"
);
}
);
width = 578;
}
);
note = I;
rightKerningGroup = H;
unicode = 0049;
},
{
glyphname = J;
lastChange = "2017-04-17 14:58:29 +0000";
layers = (
{
layerId = "D68CFE38-7B02-4705-B0C1-3A2279678377";
paths = (
{
closed = 1;
nodes = (
"745 272 OFFCURVE",
"652 182 OFFCURVE",
"521 182 CURVE SMOOTH",
"389 182 OFFCURVE",
"298 248 OFFCURVE",
"298 416 CURVE",
"45 416 LINE",
"45 119 OFFCURVE",
"245 -20 OFFCURVE",
"521 -20 CURVE SMOOTH",
"794 -20 OFFCURVE",
"997 145 OFFCURVE",
"997 436 CURVE SMOOTH",
"997 1456 LINE",
"745 1456 LINE",
"745 436 LINE SMOOTH"
);
}
);
width = 1137;
}
);
leftKerningGroup = J;
note = J;
rightKerningGroup = J;
unicode = 004A;
},
{
glyphname = K;
lastChange = "2017-04-17 14:58:29 +0000";
layers = (
{
layerId = "D68CFE38-7B02-4705-B0C1-3A2279678377";
paths = (
{
closed = 1;
nodes = (
"733 812 LINE",
"1274 1456 LINE",
"968 1456 LINE",
"542 946 LINE",
"401 772 LINE",
"401 1456 LINE",
"149 1456 LINE",
"149 0 LINE",
"401 0 LINE",
"401 454 LINE",
"567 630 LINE",
"1004 0 LINE",
"1304 0 LINE"
);
}
);
width = 1291;
}
);
note = K;
rightKerningGroup = K;
unicode = 004B;
},
{
glyphname = L;
lastChange = "2017-04-17 14:58:29 +0000";
layers = (
{
layerId = "D68CFE38-7B02-4705-B0C1-3A2279678377";
paths = (
{
closed = 1;
nodes = (
"401 1456 LINE",
"149 1456 LINE",
"149 0 LINE",
"1063 0 LINE",
"1063 202 LINE",
"401 202 LINE"
);
}
);
width = 1109;
}
);
note = L;
rightKerningGroup = L;
unicode = 004C;
},
{
glyphname = M;
lastChange = "2017-04-17 14:58:29 +0000";
layers = (
{
layerId = "D68CFE38-7B02-4705-B0C1-3A2279678377";
paths = (
{
closed = 1;
nodes = (
"149 1456 LINE",
"149 0 LINE",
"401 0 LINE",
"401 480 LINE",
"376 1121 LINE",
"805 0 LINE",
"986 0 LINE",
"1415 1120 LINE",
"1391 480 LINE",
"1391 0 LINE",
"1643 0 LINE",
"1643 1456 LINE",
"1315 1456 LINE",
"896 340 LINE",
"476 1456 LINE"
);
}
);
width = 1793;
}
);
note = M;
rightKerningGroup = H;
unicode = 004D;
},
{
glyphname = N;
lastChange = "2017-04-17 14:58:29 +0000";
layers = (
{
layerId = "D68CFE38-7B02-4705-B0C1-3A2279678377";
paths = (
{
closed = 1;
nodes = (
"1053 420 LINE",
"401 1456 LINE",
"149 1456 LINE",
"149 0 LINE",
"401 0 LINE",
"401 1033 LINE",
"1051 0 LINE",
"1304 0 LINE",
"1304 1456 LINE",
"1053 1456 LINE"
);
}
);
width = 1455;
}
);
note = N;
rightKerningGroup = H;
unicode = 004E;
},
{
glyphname = O;
lastChange = "2017-04-17 14:58:29 +0000";
layers = (
{
layerId = "D68CFE38-7B02-4705-B0C1-3A2279678377";
paths = (
{
closed = 1;
nodes = (
"1311 1207 OFFCURVE",
"1069 1476 OFFCURVE",
"706 1476 CURVE SMOOTH",
"351 1476 OFFCURVE",
"102 1207 OFFCURVE",
"102 764 CURVE SMOOTH",
"102 691 LINE SMOOTH",
"102 248 OFFCURVE",
"353 -20 OFFCURVE",
"708 -20 CURVE SMOOTH",
"1071 -20 OFFCURVE",
"1311 248 OFFCURVE",
"1311 691 CURVE SMOOTH",
"1311 764 LINE SMOOTH"
);
},
{
closed = 1;
nodes = (
"1058 364 OFFCURVE",
"932 188 OFFCURVE",
"708 188 CURVE SMOOTH",
"492 188 OFFCURVE",
"355 364 OFFCURVE",
"355 691 CURVE SMOOTH",
"355 766 LINE SMOOTH",
"355 1093 OFFCURVE",
"490 1267 OFFCURVE",
"706 1267 CURVE SMOOTH",
"927 1267 OFFCURVE",
"1058 1093 OFFCURVE",
"1058 766 CURVE SMOOTH",
"1058 691 LINE SMOOTH"
);
}
);
width = 1414;
}
);
leftKerningGroup = C;
note = O;
rightKerningGroup = D;
unicode = 004F;
},
{
glyphname = P;
lastChange = "2017-04-17 14:58:29 +0000";
layers = (
{
layerId = "D68CFE38-7B02-4705-B0C1-3A2279678377";
paths = (
{
closed = 1;
nodes = (
"1043 541 OFFCURVE",
"1236 712 OFFCURVE",
"1236 993 CURVE SMOOTH",
"1236 1261 OFFCURVE",
"1043 1456 OFFCURVE",
"706 1456 CURVE SMOOTH",
"149 1456 LINE",
"149 0 LINE",
"401 0 LINE",
"401 541 LINE",
"706 541 LINE SMOOTH"
);
},
{
closed = 1;
nodes = (
"902 1253 OFFCURVE",
"982 1127 OFFCURVE",
"982 991 CURVE SMOOTH",
"982 846 OFFCURVE",
"902 744 OFFCURVE",
"706 744 CURVE SMOOTH",
"401 744 LINE",
"401 1253 LINE",
"706 1253 LINE SMOOTH"
);
}
);
width = 1310;
}
);
note = P;
rightKerningGroup = P;
unicode = 0050;
},
{
glyphname = Q;
lastChange = "2017-04-17 14:58:29 +0000";
layers = (
{
layerId = "D68CFE38-7B02-4705-B0C1-3A2279678377";
paths = (
{
closed = 1;
nodes = (
"1212 210 OFFCURVE",
"1305 416 OFFCURVE",
"1305 691 CURVE SMOOTH",
"1305 764 LINE SMOOTH",
"1305 1207 OFFCURVE",
"1063 1476 OFFCURVE",
"700 1476 CURVE SMOOTH",
"345 1476 OFFCURVE",
"96 1207 OFFCURVE",
"96 764 CURVE SMOOTH",
"96 691 LINE SMOOTH",
"96 248 OFFCURVE",
"347 -20 OFFCURVE",
"702 -20 CURVE SMOOTH",
"747 -20 OFFCURVE",
"791 -16 OFFCURVE",
"833 -7 CURVE",
"1142 -252 LINE",
"1307 -105 LINE",
"1056 91 LINE"
);
},
{
closed = 1;
nodes = (
"1052 364 OFFCURVE",
"926 188 OFFCURVE",
"702 188 CURVE SMOOTH",
"486 188 OFFCURVE",
"350 364 OFFCURVE",
"350 691 CURVE SMOOTH",
"350 766 LINE SMOOTH",
"350 1093 OFFCURVE",
"484 1267 OFFCURVE",
"700 1267 CURVE SMOOTH",
"923 1267 OFFCURVE",
"1052 1093 OFFCURVE",
"1052 766 CURVE SMOOTH",
"1052 691 LINE SMOOTH"
);
}
);
width = 1414;
}
);
leftKerningGroup = C;
note = Q;
unicode = 0051;
},
{
glyphname = R;
lastChange = "2017-04-17 14:58:29 +0000";
layers = (
{
layerId = "D68CFE38-7B02-4705-B0C1-3A2279678377";
paths = (
{
closed = 1;
nodes = (
"1246 13 LINE",
"919 621 LINE",
"1086 690 OFFCURVE",
"1186 822 OFFCURVE",
"1186 1017 CURVE SMOOTH",
"1186 1304 OFFCURVE",
"996 1456 OFFCURVE",
"661 1456 CURVE SMOOTH",
"149 1456 LINE",
"149 0 LINE",
"401 0 LINE",
"401 561 LINE",
"684 561 LINE",
"976 0 LINE",
"1246 0 LINE"
);
},
{
closed = 1;
nodes = (
"853 1252 OFFCURVE",
"934 1154 OFFCURVE",
"934 1005 CURVE SMOOTH",
"934 866 OFFCURVE",
"842 764 OFFCURVE",
"661 764 CURVE SMOOTH",
"401 764 LINE",
"401 1253 LINE",
"665 1253 LINE SMOOTH"
);
}
);
width = 1279;
}
);
note = R;
unicode = 0052;
},
{
glyphname = S;
lastChange = "2017-04-17 14:58:29 +0000";
layers = (
{
layerId = "D68CFE38-7B02-4705-B0C1-3A2279678377";
paths = (
{
closed = 1;
nodes = (
"909 259 OFFCURVE",
"820 180 OFFCURVE",
"644 180 CURVE SMOOTH",
"465 180 OFFCURVE",
"327 256 OFFCURVE",
"327 440 CURVE",
"74 440 LINE",
"74 337 OFFCURVE",
"102 252 OFFCURVE",
"159 184 CURVE SMOOTH",
"271 48 OFFCURVE",
"457 -20 OFFCURVE",
"644 -20 CURVE SMOOTH",
"960 -20 OFFCURVE",
"1162 133 OFFCURVE",
"1162 378 CURVE SMOOTH",
"1162 610 OFFCURVE",
"1007 744 OFFCURVE",
"678 840 CURVE SMOOTH",
"474 900 OFFCURVE",
"373 965 OFFCURVE",
"373 1074 CURVE SMOOTH",
"373 1189 OFFCURVE",
"456 1275 OFFCURVE",
"633 1275 CURVE SMOOTH",
"822 1275 OFFCURVE",
"909 1174 OFFCURVE",
"909 1031 CURVE",
"1161 1031 LINE",
"1161 1274 OFFCURVE",
"965 1476 OFFCURVE",
"636 1476 CURVE SMOOTH",
"328 1476 OFFCURVE",
"120 1308 OFFCURVE",
"120 1073 CURVE SMOOTH",
"120 840 OFFCURVE",
"310 719 OFFCURVE",
"587 633 CURVE SMOOTH",
"725 590 OFFCURVE",
"813 550 OFFCURVE",
"852 515 CURVE SMOOTH",
"890 480 OFFCURVE",
"909 433 OFFCURVE",
"909 376 CURVE SMOOTH"
);
}
);
width = 1237;
}
);
leftKerningGroup = S;
note = S;
unicode = 0053;
},
{
glyphname = T;
lastChange = "2017-04-17 14:58:29 +0000";
layers = (
{
layerId = "D68CFE38-7B02-4705-B0C1-3A2279678377";
paths = (
{
closed = 1;
nodes = (
"495 0 LINE",
"747 0 LINE",
"747 1253 LINE",
"1200 1253 LINE",
"1200 1456 LINE",
"45 1456 LINE",
"45 1253 LINE",
"495 1253 LINE"
);
}
);
width = 1244;
}
);
leftKerningGroup = T;
note = T;
rightKerningGroup = T;
unicode = 0054;
},
{
glyphname = U;
lastChange = "2017-04-17 14:58:29 +0000";
layers = (
{
layerId = "D68CFE38-7B02-4705-B0C1-3A2279678377";
paths = (
{
closed = 1;
nodes = (
"961 275 OFFCURVE",
"849 182 OFFCURVE",
"669 182 CURVE SMOOTH",
"492 182 OFFCURVE",
"377 275 OFFCURVE",
"377 483 CURVE SMOOTH",
"377 1456 LINE",
"126 1456 LINE",
"126 483 LINE SMOOTH",
"126 150 OFFCURVE",
"358 -20 OFFCURVE",
"669 -20 CURVE SMOOTH",
"972 -20 OFFCURVE",
"1214 150 OFFCURVE",
"1214 483 CURVE SMOOTH",
"1214 1456 LINE",
"961 1456 LINE",
"961 483 LINE SMOOTH"
);
}
);
width = 1336;
}
);
leftKerningGroup = U;
note = U;
rightKerningGroup = J;
unicode = 0055;
},
{
glyphname = V;
lastChange = "2017-04-17 14:58:29 +0000";
layers = (
{
layerId = "D68CFE38-7B02-4705-B0C1-3A2279678377";
paths = (
{
closed = 1;
nodes = (
"662 318 LINE",
"295 1456 LINE",
"18 1456 LINE",
"540 0 LINE",
"785 0 LINE",
"1309 1456 LINE",
"1031 1456 LINE"
);
}
);
width = 1326;
}
);
leftKerningGroup = V;
note = V;
rightKerningGroup = V;
unicode = 0056;
},
{
glyphname = W;
lastChange = "2017-04-17 14:58:29 +0000";
layers = (
{
layerId = "D68CFE38-7B02-4705-B0C1-3A2279678377";
paths = (
{
closed = 1;
nodes = (
"1291 361 LINE",
"1016 1456 LINE",
"804 1456 LINE",
"526 365 LINE",
"300 1456 LINE",
"49 1456 LINE",
"385 0 LINE",
"627 0 LINE",
"910 1062 LINE",
"1187 0 LINE",
"1430 0 LINE",
"1765 1456 LINE",
"1514 1456 LINE"
);
}
);
width = 1803;
}
);
leftKerningGroup = W;
note = W;
rightKerningGroup = W;
unicode = 0057;
},
{
glyphname = X;
lastChange = "2017-04-17 14:58:29 +0000";
layers = (
{
layerId = "D68CFE38-7B02-4705-B0C1-3A2279678377";
paths = (
{
closed = 1;
nodes = (
"492 734 LINE",
"41 0 LINE",
"336 0 LINE",
"650 535 LINE",
"963 0 LINE",
"1258 0 LINE",
"807 734 LINE",
"1247 1456 LINE",
"955 1456 LINE",
"650 930 LINE",
"344 1456 LINE",
"52 1456 LINE"
);
}
);
width = 1296;
}
);
leftKerningGroup = X;
note = X;
rightKerningGroup = X;
unicode = 0058;
},
{
glyphname = Y;
lastChange = "2017-04-17 14:58:29 +0000";
layers = (
{
layerId = "D68CFE38-7B02-4705-B0C1-3A2279678377";
paths = (
{
closed = 1;
nodes = (
"496 536 LINE",
"496 0 LINE",
"750 0 LINE",
"750 536 LINE",
"1238 1456 LINE",
"958 1456 LINE",
"623 767 LINE",
"289 1456 LINE",
"8 1456 LINE"
);
}
);
width = 1248;
}
);
leftKerningGroup = Y;
note = Y;
rightKerningGroup = Y;
unicode = 0059;
},
{
glyphname = Z;
lastChange = "2017-04-17 14:58:29 +0000";
layers = (
{
layerId = "D68CFE38-7B02-4705-B0C1-3A2279678377";
paths = (
{
closed = 1;
nodes = (
"80 164 LINE",
"80 0 LINE",
"1164 0 LINE",
"1164 202 LINE",
"386 202 LINE",
"1140 1296 LINE",
"1140 1456 LINE",
"86 1456 LINE",
"86 1253 LINE",
"834 1253 LINE"
);
}
);
width = 1234;
}
);
leftKerningGroup = Z;
note = Z;
rightKerningGroup = Z;
unicode = 005A;
},
{
glyphname = bracketleft;
lastChange = "2017-04-17 14:58:29 +0000";
layers = (
{
layerId = "D68CFE38-7B02-4705-B0C1-3A2279678377";
paths = (
{
closed = 1;
nodes = (
"132 -325 LINE",
"541 -325 LINE",
"541 -135 LINE",
"375 -135 LINE",
"375 1489 LINE",
"541 1489 LINE",
"541 1679 LINE",
"132 1679 LINE"
);
}
);
width = 562;
}
);
note = bracketleft;
unicode = 005B;
},
{
glyphname = backslash;
lastChange = "2017-04-17 14:58:29 +0000";
layers = (
{
layerId = "D68CFE38-7B02-4705-B0C1-3A2279678377";
paths = (
{
closed = 1;
nodes = (
"260 1456 LINE",
"20 1456 LINE",
"628 -125 LINE",
"868 -125 LINE"
);
}
);
width = 856;
}
);
note = backslash;
unicode = 005C;
},
{
glyphname = bracketright;
lastChange = "2017-04-17 14:58:29 +0000";
layers = (
{
layerId = "D68CFE38-7B02-4705-B0C1-3A2279678377";
paths = (
{
closed = 1;
nodes = (
"179 -135 LINE",
"13 -135 LINE",
"13 -325 LINE",
"422 -325 LINE",
"422 1679 LINE",
"13 1679 LINE",
"13 1489 LINE",
"179 1489 LINE"
);
}
);
width = 562;
}
);
note = bracketright;
unicode = 005D;
},
{
glyphname = asciicircum;
lastChange = "2017-04-17 14:58:29 +0000";
layers = (
{
layerId = "D68CFE38-7B02-4705-B0C1-3A2279678377";
paths = (
{
closed = 1;
nodes = (
"438 1192 LINE",
"616 729 LINE",
"822 729 LINE",
"524 1456 LINE",
"352 1456 LINE",
"53 729 LINE",
"260 729 LINE"
);
}
);
width = 876;
}
);
note = asciicircum;
unicode = 005E;
},
{
glyphname = underscore;
lastChange = "2017-04-17 14:58:29 +0000";
layers = (
{
layerId = "D68CFE38-7B02-4705-B0C1-3A2279678377";
paths = (
{
closed = 1;
nodes = (
"3 -192 LINE",
"921 -192 LINE",
"921 0 LINE",
"3 0 LINE"
);
}
);
width = 924;
}
);
note = underscore;
unicode = 005F;
},
{
glyphname = grave;
lastChange = "2017-04-17 14:58:29 +0000";
layers = (
{
layerId = "D68CFE38-7B02-4705-B0C1-3A2279678377";
paths = (
{
closed = 1;
nodes = (
"320 1234 LINE",
"522 1234 LINE",
"326 1536 LINE",
"49 1536 LINE"
);
}
);
width = 660;
}
);
note = grave;
unicode = 0060;
},
{
glyphname = a;
lastChange = "2017-04-17 14:58:29 +0000";
layers = (
{
layerId = "D68CFE38-7B02-4705-B0C1-3A2279678377";
paths = (
{
closed = 1;
nodes = (
"1020 17 LINE",
"993 75 OFFCURVE",
"979 153 OFFCURVE",
"979 250 CURVE SMOOTH",
"979 730 LINE SMOOTH",
"979 978 OFFCURVE",
"803 1102 OFFCURVE",
"560 1102 CURVE SMOOTH",
"287 1102 OFFCURVE",
"114 941 OFFCURVE",
"114 770 CURVE",
"356 770 LINE",
"356 853 OFFCURVE",
"430 918 OFFCURVE",
"546 918 CURVE SMOOTH",
"673 918 OFFCURVE",
"736 845 OFFCURVE",
"736 732 CURVE SMOOTH",
"736 661 LINE",
"583 661 LINE SMOOTH",
"271 661 OFFCURVE",
"91 535 OFFCURVE",
"91 304 CURVE SMOOTH",
"91 120 OFFCURVE",
"243 -20 OFFCURVE",
"459 -20 CURVE SMOOTH",
"572 -20 OFFCURVE",
"667 21 OFFCURVE",
"744 102 CURVE",
"751 59 OFFCURVE",
"760 25 OFFCURVE",
"772 0 CURVE",
"1020 0 LINE"
);
},
{
closed = 1;
nodes = (
"393 175 OFFCURVE",
"333 241 OFFCURVE",
"333 328 CURVE SMOOTH",
"333 445 OFFCURVE",
"418 505 OFFCURVE",
"588 509 CURVE SMOOTH",
"736 509 LINE",
"736 305 LINE",
"703 240 OFFCURVE",
"617 175 OFFCURVE",
"505 175 CURVE SMOOTH"
);
}
);
width = 1109;
}
);
leftKerningGroup = a;
note = a;
rightKerningGroup = a;
unicode = 0061;
},
{
glyphname = b;
lastChange = "2017-04-17 14:58:29 +0000";
layers = (
{
layerId = "D68CFE38-7B02-4705-B0C1-3A2279678377";
paths = (
{
closed = 1;
nodes = (
"1074 876 OFFCURVE",
"930 1102 OFFCURVE",
"651 1102 CURVE SMOOTH",
"532 1102 OFFCURVE",
"438 1061 OFFCURVE",
"367 978 CURVE",
"367 1536 LINE",
"125 1536 LINE",
"125 0 LINE",
"345 0 LINE",
"356 118 LINE",
"428 26 OFFCURVE",
"527 -20 OFFCURVE",
"653 -20 CURVE SMOOTH",
"928 -20 OFFCURVE",
"1074 211 OFFCURVE",
"1074 530 CURVE SMOOTH",
"1074 551 LINE SMOOTH"
);
},
{
closed = 1;
nodes = (
"774 904 OFFCURVE",
"832 742 OFFCURVE",
"832 551 CURVE SMOOTH",
"832 324 OFFCURVE",
"771 179 OFFCURVE",
"591 179 CURVE SMOOTH",
"487 179 OFFCURVE",
"412 226 OFFCURVE",
"367 320 CURVE",
"367 764 LINE",
"412 857 OFFCURVE",
"486 904 OFFCURVE",
"589 904 CURVE SMOOTH"
);
}
);
width = 1153;
}
);
note = b;
rightKerningGroup = b;
unicode = 0062;
},
{
glyphname = c;
lastChange = "2017-04-17 14:58:29 +0000";
layers = (
{
layerId = "D68CFE38-7B02-4705-B0C1-3A2279678377";
paths = (
{
closed = 1;
nodes = (
"370 175 OFFCURVE",
"322 348 OFFCURVE",
"322 523 CURVE SMOOTH",
"322 559 LINE SMOOTH",
"322 731 OFFCURVE",
"372 907 OFFCURVE",
"569 907 CURVE SMOOTH",
"701 907 OFFCURVE",
"778 811 OFFCURVE",
"785 695 CURVE",
"1013 695 LINE",
"1006 934 OFFCURVE",
"833 1102 OFFCURVE",
"572 1102 CURVE SMOOTH",
"240 1102 OFFCURVE",
"80 855 OFFCURVE",
"80 559 CURVE SMOOTH",
"80 523 LINE SMOOTH",
"80 226 OFFCURVE",
"239 -20 OFFCURVE",
"572 -20 CURVE SMOOTH",
"813 -20 OFFCURVE",
"1006 149 OFFCURVE",
"1013 358 CURVE",
"785 358 LINE",
"778 251 OFFCURVE",
"687 175 OFFCURVE",
"570 175 CURVE SMOOTH"
);
}
);
width = 1073;
}
);
leftKerningGroup = c;
note = c;
rightKerningGroup = c;
unicode = 0063;
},
{
glyphname = d;
lastChange = "2017-04-17 14:58:29 +0000";
layers = (
{
layerId = "D68CFE38-7B02-4705-B0C1-3A2279678377";
paths = (
{
closed = 1;
nodes = (
"1028 1536 LINE",
"785 1536 LINE",
"785 983 LINE",
"714 1062 OFFCURVE",
"622 1102 OFFCURVE",
"507 1102 CURVE SMOOTH",
"243 1102 OFFCURVE",
"80 879 OFFCURVE",
"80 550 CURVE SMOOTH",
"80 529 LINE SMOOTH",
"80 214 OFFCURVE",
"245 -20 OFFCURVE",
"505 -20 CURVE SMOOTH",
"627 -20 OFFCURVE",
"724 24 OFFCURVE",
"796 112 CURVE",
"807 0 LINE",
"1028 0 LINE"
);
},
{
closed = 1;
nodes = (
"322 745 OFFCURVE",
"393 904 OFFCURVE",
"569 904 CURVE SMOOTH",
"668 904 OFFCURVE",
"740 861 OFFCURVE",
"785 774 CURVE",
"785 313 LINE",
"739 224 OFFCURVE",
"666 179 OFFCURVE",
"567 179 CURVE SMOOTH",
"392 179 OFFCURVE",
"322 336 OFFCURVE",
"322 529 CURVE SMOOTH",
"322 550 LINE SMOOTH"
);
}
);
width = 1157;
}
);
leftKerningGroup = c;
note = d;
unicode = 0064;
},
{
glyphname = e;
lastChange = "2017-04-17 14:58:29 +0000";
layers = (
{
layerId = "D68CFE38-7B02-4705-B0C1-3A2279678377";
paths = (
{
closed = 1;
nodes = (
"818 220 OFFCURVE",
"727 175 OFFCURVE",
"616 175 CURVE SMOOTH",
"445 175 OFFCURVE",
"342 298 OFFCURVE",
"329 465 CURVE",
"1036 465 LINE",
"1036 568 LINE SMOOTH",
"1036 880 OFFCURVE",
"888 1102 OFFCURVE",
"573 1102 CURVE SMOOTH",
"298 1102 OFFCURVE",
"84 885 OFFCURVE",
"84 544 CURVE SMOOTH",
"84 503 LINE SMOOTH",
"84 206 OFFCURVE",
"280 -20 OFFCURVE",
"601 -20 CURVE SMOOTH",
"817 -20 OFFCURVE",
"949 83 OFFCURVE",
"1018 184 CURVE",
"887 309 LINE"
);
},
{
closed = 1;
nodes = (
"734 907 OFFCURVE",
"788 788 OFFCURVE",
"795 661 CURVE",
"795 643 LINE",
"333 643 LINE",
"357 808 OFFCURVE",
"440 907 OFFCURVE",
"573 907 CURVE SMOOTH"
);
}
);
width = 1099;
}
);
leftKerningGroup = c;
note = e;
rightKerningGroup = e;
unicode = 0065;
},
{
glyphname = f;
lastChange = "2017-04-17 14:58:29 +0000";
layers = (
{
layerId = "D68CFE38-7B02-4705-B0C1-3A2279678377";
paths = (
{
closed = 1;
nodes = (
"454 1082 LINE",
"454 1189 LINE SMOOTH",
"455 1301 OFFCURVE",
"513 1357 OFFCURVE",
"627 1357 CURVE SMOOTH",
"662 1357 OFFCURVE",
"693 1354 OFFCURVE",
"721 1349 CURVE",
"727 1539 LINE",
"680 1551 OFFCURVE",
"635 1557 OFFCURVE",
"590 1557 CURVE SMOOTH",
"355 1557 OFFCURVE",
"210 1426 OFFCURVE",
"210 1185 CURVE SMOOTH",
"210 1082 LINE",
"45 1082 LINE",
"45 903 LINE",
"210 903 LINE",
"210 0 LINE",
"454 0 LINE",
"454 903 LINE",
"673 903 LINE",
"673 1082 LINE"
);
}
);
width = 726;
}
);
note = f;
unicode = 0066;
},
{
glyphname = g;
lastChange = "2017-04-17 14:58:29 +0000";
layers = (
{
layerId = "D68CFE38-7B02-4705-B0C1-3A2279678377";
paths = (
{
closed = 1;
nodes = (
"837 -426 OFFCURVE",
"1037 -262 OFFCURVE",
"1037 30 CURVE SMOOTH",
"1037 1082 LINE",
"817 1082 LINE",
"807 975 LINE",
"737 1060 OFFCURVE",
"640 1102 OFFCURVE",
"516 1102 CURVE SMOOTH",
"248 1102 OFFCURVE",
"82 879 OFFCURVE",
"82 550 CURVE SMOOTH",
"82 521 LINE SMOOTH",
"85 212 OFFCURVE",
"250 -20 OFFCURVE",
"514 -20 CURVE SMOOTH",
"630 -20 OFFCURVE",
"723 19 OFFCURVE",
"794 98 CURVE",
"794 25 LINE SMOOTH",
"794 -144 OFFCURVE",
"693 -235 OFFCURVE",
"532 -235 CURVE SMOOTH",
"424 -235 OFFCURVE",
"332 -191 OFFCURVE",
"256 -102 CURVE",
"141 -247 LINE",
"237 -378 OFFCURVE",
"427 -426 OFFCURVE",
"546 -426 CURVE SMOOTH"
);
},
{
closed = 1;
nodes = (
"325 745 OFFCURVE",
"402 904 OFFCURVE",
"578 904 CURVE SMOOTH",
"677 904 OFFCURVE",
"749 863 OFFCURVE",
"794 780 CURVE",
"794 307 LINE",
"749 222 OFFCURVE",
"676 179 OFFCURVE",
"576 179 CURVE SMOOTH",
"401 179 OFFCURVE",
"325 336 OFFCURVE",
"325 529 CURVE SMOOTH",
"325 550 LINE SMOOTH"
);
}
);
width = 1161;
}
);
leftKerningGroup = c;
note = g;
unicode = 0067;
},
{
glyphname = h;
lastChange = "2017-04-23 08:52:53 +0000";
layers = (
{
layerId = "D68CFE38-7B02-4705-B0C1-3A2279678377";
paths = (
{
closed = 1;
nodes = (
"707 904 OFFCURVE",
"774 850 OFFCURVE",
"774 699 CURVE SMOOTH",
"774 0 LINE",
"1017 0 LINE",
"1017 702 LINE",
"1016 993 OFFCURVE",
"877 1102 OFFCURVE",
"665 1102 CURVE SMOOTH",
"543 1102 OFFCURVE",
"443 1056 OFFCURVE",
"364 963 CURVE",
"364 1536 LINE",
"122 1536 LINE",
"122 0 LINE",
"364 0 LINE",
"364 773 LINE",
"412 860 OFFCURVE",
"485 904 OFFCURVE",
"583 904 CURVE SMOOTH"
);
}
);
width = 1137;
}
);
note = h;
rightKerningGroup = h;
unicode = 0068;
},
{
glyphname = i;
lastChange = "2017-04-17 14:58:29 +0000";
layers = (
{
layerId = "D68CFE38-7B02-4705-B0C1-3A2279678377";
paths = (
{
closed = 1;
nodes = (
"125 1289 OFFCURVE",
"176 1235 OFFCURVE",
"263 1235 CURVE SMOOTH",
"350 1235 OFFCURVE",
"401 1289 OFFCURVE",
"401 1364 CURVE SMOOTH",
"401 1439 OFFCURVE",
"350 1493 OFFCURVE",
"263 1493 CURVE SMOOTH",
"176 1493 OFFCURVE",
"125 1439 OFFCURVE",
"125 1364 CURVE SMOOTH"
);
},
{
closed = 1;
nodes = (
"140 0 LINE",
"383 0 LINE",
"383 1082 LINE",
"140 1082 LINE"
);
}
);
width = 524;
}
);
note = i;
unicode = 0069;
},
{
glyphname = j;
lastChange = "2017-04-17 14:58:29 +0000";
layers = (
{
layerId = "D68CFE38-7B02-4705-B0C1-3A2279678377";
paths = (
{
closed = 1;
nodes = (
"114 1289 OFFCURVE",
"165 1235 OFFCURVE",
"252 1235 CURVE SMOOTH",
"339 1235 OFFCURVE",
"390 1289 OFFCURVE",
"390 1364 CURVE SMOOTH",
"390 1439 OFFCURVE",
"339 1493 OFFCURVE",
"252 1493 CURVE SMOOTH",
"165 1493 OFFCURVE",
"114 1439 OFFCURVE",
"114 1364 CURVE SMOOTH"
);
},
{
closed = 1;
nodes = (
"135 -190 OFFCURVE",
"94 -237 OFFCURVE",
"12 -237 CURVE SMOOTH",
"-16 -237 OFFCURVE",
"-45 -234 OFFCURVE",
"-76 -229 CURVE",
"-76 -420 LINE",
"-35 -431 OFFCURVE",
"9 -437 OFFCURVE",
"54 -437 CURVE SMOOTH",
"270 -437 OFFCURVE",
"378 -323 OFFCURVE",
"378 -96 CURVE SMOOTH",
"378 1082 LINE",
"135 1082 LINE",
"135 -96 LINE SMOOTH"
);
}
);
width = 513;
}
);
note = j;
unicode = 006A;
},
{
glyphname = k;
lastChange = "2017-04-17 14:58:29 +0000";
layers = (
{
layerId = "D68CFE38-7B02-4705-B0C1-3A2279678377";
paths = (
{
closed = 1;
nodes = (
"633 632 LINE",
"1036 1082 LINE",
"744 1082 LINE",
"445 746 LINE",
"368 650 LINE",
"368 1536 LINE",
"125 1536 LINE",
"125 0 LINE",
"368 0 LINE",
"368 354 LINE",
"477 466 LINE",
"798 0 LINE",
"1079 0 LINE"
);
}
);
width = 1069;
}
);
note = k;
unicode = 006B;
},
{
glyphname = l;
lastChange = "2017-04-17 14:58:29 +0000";
layers = (
{
layerId = "D68CFE38-7B02-4705-B0C1-3A2279678377";
paths = (
{
closed = 1;
nodes = (
"140 0 LINE",
"383 0 LINE",
"383 1536 LINE",
"140 1536 LINE"
);
}
);
width = 524;
}
);
note = l;
unicode = 006C;
},
{
glyphname = m;
lastChange = "2017-04-17 14:58:29 +0000";
layers = (
{
layerId = "D68CFE38-7B02-4705-B0C1-3A2279678377";
paths = (
{
closed = 1;
nodes = (
"695 904 OFFCURVE",
"769 852 OFFCURVE",
"769 700 CURVE SMOOTH",
"769 0 LINE",
"1012 0 LINE",
"1012 742 LINE",
"1039 838 OFFCURVE",
"1109 904 OFFCURVE",
"1220 904 CURVE SMOOTH",
"1340 904 OFFCURVE",
"1415 862 OFFCURVE",
"1415 702 CURVE SMOOTH",
"1415 0 LINE",
"1658 0 LINE",
"1658 706 LINE",
"1657 989 OFFCURVE",
"1522 1102 OFFCURVE",
"1302 1102 CURVE SMOOTH",
"1159 1102 OFFCURVE",
"1048 1047 OFFCURVE",
"969 937 CURVE",
"915 1047 OFFCURVE",
"816 1102 OFFCURVE",
"673 1102 CURVE SMOOTH",
"541 1102 OFFCURVE",
"437 1058 OFFCURVE",
"360 969 CURVE",
"353 1082 LINE",
"125 1082 LINE",
"125 0 LINE",
"367 0 LINE",
"367 784 LINE",
"408 864 OFFCURVE",
"477 904 OFFCURVE",
"575 904 CURVE SMOOTH"
);
}
);
width = 1783;
}
);
leftKerningGroup = m;
note = m;
rightKerningGroup = h;
unicode = 006D;
},
{
glyphname = n;
lastChange = "2017-04-17 14:58:29 +0000";
layers = (
{
layerId = "D68CFE38-7B02-4705-B0C1-3A2279678377";
paths = (
{
closed = 1;
nodes = (
"708 904 OFFCURVE",
"774 851 OFFCURVE",
"774 702 CURVE SMOOTH",
"774 0 LINE",
"1017 0 LINE",
"1017 705 LINE",
"1016 994 OFFCURVE",
"880 1102 OFFCURVE",
"672 1102 CURVE SMOOTH",
"543 1102 OFFCURVE",
"438 1054 OFFCURVE",
"359 958 CURVE",
"351 1082 LINE",
"122 1082 LINE",
"122 0 LINE",
"365 0 LINE",
"365 772 LINE",
"414 860 OFFCURVE",
"486 904 OFFCURVE",
"583 904 CURVE SMOOTH"
);
}
);
width = 1139;
}
);
leftKerningGroup = m;
note = n;
rightKerningGroup = h;
unicode = 006E;
},
{
glyphname = o;
lastChange = "2017-04-17 14:58:29 +0000";
layers = (
{
layerId = "D68CFE38-7B02-4705-B0C1-3A2279678377";
paths = (
{
closed = 1;
nodes = (
"80 215 OFFCURVE",
"267 -20 OFFCURVE",
"584 -20 CURVE SMOOTH",
"900 -20 OFFCURVE",
"1086 215 OFFCURVE",
"1086 530 CURVE SMOOTH",
"1086 564 LINE",
"1081 871 OFFCURVE",
"895 1102 OFFCURVE",
"582 1102 CURVE SMOOTH",
"267 1102 OFFCURVE",
"80 864 OFFCURVE",
"80 551 CURVE SMOOTH",
"80 530 LINE SMOOTH"
);
},
{
closed = 1;
nodes = (
"322 742 OFFCURVE",
"402 907 OFFCURVE",
"582 907 CURVE SMOOTH",
"763 907 OFFCURVE",
"843 742 OFFCURVE",
"843 551 CURVE SMOOTH",
"843 530 LINE SMOOTH",
"843 335 OFFCURVE",
"763 175 OFFCURVE",
"584 175 CURVE SMOOTH",
"401 175 OFFCURVE",
"322 335 OFFCURVE",
"322 530 CURVE SMOOTH",
"322 551 LINE SMOOTH"
);
}
);
width = 1166;
}
);
leftKerningGroup = o;
note = o;
rightKerningGroup = o;
unicode = 006F;
},
{
glyphname = p;
lastChange = "2017-04-17 14:58:29 +0000";
layers = (
{
layerId = "D68CFE38-7B02-4705-B0C1-3A2279678377";
paths = (
{
closed = 1;
nodes = (
"923 -20 OFFCURVE",
"1073 215 OFFCURVE",
"1073 530 CURVE SMOOTH",
"1073 550 LINE SMOOTH",
"1073 881 OFFCURVE",
"925 1102 OFFCURVE",
"650 1102 CURVE SMOOTH",
"528 1102 OFFCURVE",
"431 1059 OFFCURVE",
"358 973 CURVE",
"348 1082 LINE",
"125 1082 LINE",
"125 -416 LINE",
"367 -416 LINE",
"367 97 LINE",
"439 19 OFFCURVE",
"534 -20 OFFCURVE",
"652 -20 CURVE SMOOTH"
);
},
{
closed = 1;
nodes = (
"757 904 OFFCURVE",
"830 746 OFFCURVE",
"830 551 CURVE SMOOTH",
"830 531 LINE SMOOTH",
"830 338 OFFCURVE",
"757 175 OFFCURVE",
"584 175 CURVE SMOOTH",
"484 175 OFFCURVE",
"412 217 OFFCURVE",
"367 302 CURVE",
"367 779 LINE",
"410 862 OFFCURVE",
"482 904 OFFCURVE",
"582 904 CURVE SMOOTH"
);
}
);
width = 1153;
}
);
leftKerningGroup = m;
note = p;
rightKerningGroup = b;
unicode = 0070;
},
{
glyphname = q;
lastChange = "2017-04-17 14:58:29 +0000";
layers = (
{
layerId = "D68CFE38-7B02-4705-B0C1-3A2279678377";
paths = (
{
closed = 1;
nodes = (
"797 976 LINE",
"726 1060 OFFCURVE",
"630 1102 OFFCURVE",
"510 1102 CURVE SMOOTH",
"235 1102 OFFCURVE",
"80 880 OFFCURVE",
"80 551 CURVE SMOOTH",
"80 531 LINE SMOOTH",
"80 215 OFFCURVE",
"239 -20 OFFCURVE",
"508 -20 CURVE SMOOTH",
"621 -20 OFFCURVE",
"713 18 OFFCURVE",
"784 93 CURVE",
"784 -416 LINE",
"1027 -416 LINE",
"1027 1082 LINE",
"810 1082 LINE"
);
},
{
closed = 1;
nodes = (
"322 744 OFFCURVE",
"396 907 OFFCURVE",
"571 907 CURVE SMOOTH",
"666 907 OFFCURVE",
"737 868 OFFCURVE",
"784 789 CURVE",
"784 299 LINE",
"738 216 OFFCURVE",
"666 175 OFFCURVE",
"569 175 CURVE SMOOTH",
"394 175 OFFCURVE",
"322 337 OFFCURVE",
"322 530 CURVE SMOOTH",
"322 551 LINE SMOOTH"
);
}
);
width = 1163;
}
);
leftKerningGroup = c;
note = q;
unicode = 0071;
},
{
glyphname = r;
lastChange = "2017-04-17 14:58:29 +0000";
layers = (
{
layerId = "D68CFE38-7B02-4705-B0C1-3A2279678377";
paths = (
{
closed = 1;
nodes = (
"625 868 OFFCURVE",
"658 865 OFFCURVE",
"691 860 CURVE",
"693 1089 LINE",
"668 1098 OFFCURVE",
"640 1102 OFFCURVE",
"607 1102 CURVE SMOOTH",
"502 1102 OFFCURVE",
"420 1055 OFFCURVE",
"363 960 CURVE",
"357 1082 LINE",
"125 1082 LINE",
"125 0 LINE",
"367 0 LINE",
"367 740 LINE",
"405 825 OFFCURVE",
"480 868 OFFCURVE",
"593 868 CURVE SMOOTH"
);
}
);
width = 720;
}
);
note = r;
rightKerningGroup = r;
unicode = 0072;
},
{
glyphname = s;
lastChange = "2017-04-17 14:58:29 +0000";
layers = (
{
layerId = "D68CFE38-7B02-4705-B0C1-3A2279678377";
paths = (
{
closed = 1;
nodes = (
"732 217 OFFCURVE",
"663 162 OFFCURVE",
"535 162 CURVE SMOOTH",
"428 162 OFFCURVE",
"317 209 OFFCURVE",
"312 342 CURVE",
"76 342 LINE",
"76 163 OFFCURVE",
"236 -20 OFFCURVE",
"533 -20 CURVE SMOOTH",
"798 -20 OFFCURVE",
"970 116 OFFCURVE",
"970 308 CURVE SMOOTH",
"970 501 OFFCURVE",
"822 584 OFFCURVE",
"571 639 CURVE SMOOTH",
"482 658 OFFCURVE",
"422 679 OFFCURVE",
"393 700 CURVE SMOOTH",
"364 721 OFFCURVE",
"349 749 OFFCURVE",
"349 784 CURVE SMOOTH",
"349 856 OFFCURVE",
"406 920 OFFCURVE",
"529 920 CURVE SMOOTH",
"656 920 OFFCURVE",
"720 842 OFFCURVE",
"720 758 CURVE",
"963 758 LINE",
"963 953 OFFCURVE",
"800 1102 OFFCURVE",
"529 1102 CURVE SMOOTH",
"272 1102 OFFCURVE",
"112 951 OFFCURVE",
"112 774 CURVE SMOOTH",
"112 591 OFFCURVE",
"270 502 OFFCURVE",
"505 453 CURVE SMOOTH",
"600 433 OFFCURVE",
"661 410 OFFCURVE",
"690 385 CURVE",
"718 359 OFFCURVE",
"732 329 OFFCURVE",
"732 294 CURVE SMOOTH"
);
}
);
width = 1058;
}
);
leftKerningGroup = s;
note = s;
unicode = 0073;
},
{
glyphname = t;
lastChange = "2017-04-17 14:58:29 +0000";
layers = (
{
layerId = "D68CFE38-7B02-4705-B0C1-3A2279678377";
paths = (
{
closed = 1;
nodes = (
"598 185 OFFCURVE",
"570 182 OFFCURVE",
"542 182 CURVE SMOOTH",
"475 182 OFFCURVE",
"429 201 OFFCURVE",
"429 298 CURVE SMOOTH",
"429 903 LINE",
"620 903 LINE",
"620 1082 LINE",
"429 1082 LINE",
"429 1345 LINE",
"187 1345 LINE",
"187 1082 LINE",
"8 1082 LINE",
"8 903 LINE",
"187 903 LINE",
"187 284 LINE SMOOTH",
"187 61 OFFCURVE",
"306 -20 OFFCURVE",
"467 -20 CURVE SMOOTH",
"527 -20 OFFCURVE",
"580 -12 OFFCURVE",
"627 4 CURVE",
"627 192 LINE"
);
}
);
width = 682;
}
);
note = t;
unicode = 0074;
},
{
glyphname = u;
lastChange = "2017-04-17 14:58:29 +0000";
layers = (
{
layerId = "D68CFE38-7B02-4705-B0C1-3A2279678377";
paths = (
{
closed = 1;
nodes = (
"1015 1082 LINE",
"772 1082 LINE",
"772 304 LINE",
"729 221 OFFCURVE",
"650 179 OFFCURVE",
"534 179 CURVE SMOOTH",
"442 179 OFFCURVE",
"362 225 OFFCURVE",
"362 381 CURVE SMOOTH",
"362 1082 LINE",
"119 1082 LINE",
"119 379 LINE SMOOTH",
"120 95 OFFCURVE",
"265 -20 OFFCURVE",
"476 -20 CURVE SMOOTH",
"608 -20 OFFCURVE",
"709 22 OFFCURVE",
"780 106 CURVE",
"786 0 LINE",
"1015 0 LINE"
);
}
);
width = 1138;
}
);
leftKerningGroup = u;
note = u;
unicode = 0075;
},
{
glyphname = v;
lastChange = "2017-04-17 14:58:29 +0000";
layers = (
{
layerId = "D68CFE38-7B02-4705-B0C1-3A2279678377";
paths = (
{
closed = 1;
nodes = (
"508 309 LINE",
"274 1082 LINE",
"23 1082 LINE",
"401 0 LINE",
"612 0 LINE",
"987 1082 LINE",
"736 1082 LINE"
);
}
);
width = 1014;
}
);
leftKerningGroup = v;
note = v;
rightKerningGroup = v;
unicode = 0076;
},
{
glyphname = w;
lastChange = "2017-04-17 14:58:29 +0000";
layers = (
{
layerId = "D68CFE38-7B02-4705-B0C1-3A2279678377";
paths = (
{
closed = 1;
nodes = (
"1076 334 LINE",
"851 1082 LINE",
"667 1082 LINE",
"446 344 LINE",
"271 1082 LINE",
"34 1082 LINE",
"330 0 LINE",
"529 0 LINE",
"757 742 LINE",
"989 0 LINE",
"1189 0 LINE",
"1485 1082 LINE",
"1248 1082 LINE"
);
}
);
width = 1522;
}
);
note = w;
unicode = 0077;
},
{
glyphname = x;
lastChange = "2017-04-17 14:58:29 +0000";
layers = (
{
layerId = "D68CFE38-7B02-4705-B0C1-3A2279678377";
paths = (
{
closed = 1;
nodes = (
"373 550 LINE",
"31 0 LINE",
"301 0 LINE",
"516 370 LINE",
"732 0 LINE",
"1001 0 LINE",
"659 550 LINE",
"989 1082 LINE",
"720 1082 LINE",
"514 726 LINE",
"312 1082 LINE",
"43 1082 LINE"
);
}
);
width = 1031;
}
);
leftKerningGroup = x;
note = x;
rightKerningGroup = x;
unicode = 0078;
},
{
glyphname = y;
lastChange = "2017-04-17 14:58:29 +0000";
layers = (
{
layerId = "D68CFE38-7B02-4705-B0C1-3A2279678377";
paths = (
{
closed = 1;
nodes = (
"724 1082 LINE",
"504 347 LINE",
"275 1082 LINE",
"12 1082 LINE",
"392 5 LINE",
"357 -89 LINE SMOOTH",
"321 -197 OFFCURVE",
"266 -235 OFFCURVE",
"146 -235 CURVE",
"100 -232 LINE",
"100 -420 LINE",
"145 -431 OFFCURVE",
"184 -437 OFFCURVE",
"217 -437 CURVE SMOOTH",
"286 -437 OFFCURVE",
"343 -422 OFFCURVE",
"388 -393 CURVE SMOOTH",
"476 -334 OFFCURVE",
"523 -243 OFFCURVE",
"552 -164 CURVE SMOOTH",
"983 1082 LINE"
);
}
);
width = 997;
}
);
leftKerningGroup = v;
note = y;
rightKerningGroup = v;
unicode = 0079;
},
{
glyphname = z;
lastChange = "2017-04-17 14:58:29 +0000";
layers = (
{
layerId = "D68CFE38-7B02-4705-B0C1-3A2279678377";
paths = (
{
closed = 1;
nodes = (
"82 159 LINE",
"82 0 LINE",
"960 0 LINE",
"960 195 LINE",
"385 195 LINE",
"939 929 LINE",
"939 1082 LINE",
"93 1082 LINE",
"93 886 LINE",
"632 886 LINE"
);
}
);
width = 1031;
}
);
leftKerningGroup = z;
note = z;
rightKerningGroup = z;
unicode = 007A;
},
{
glyphname = braceleft;
lastChange = "2017-04-17 14:58:29 +0000";
layers = (
{
layerId = "D68CFE38-7B02-4705-B0C1-3A2279678377";
paths = (
{
closed = 1;
nodes = (
"185 530 OFFCURVE",
"250 455 OFFCURVE",
"250 304 CURVE SMOOTH",
"250 106 LINE SMOOTH",
"250 -105 OFFCURVE",
"335 -283 OFFCURVE",
"610 -360 CURVE",
"658 -219 LINE",
"519 -172 OFFCURVE",
"478 -46 OFFCURVE",
"478 106 CURVE SMOOTH",
"478 300 LINE SMOOTH",
"478 453 OFFCURVE",
"421 559 OFFCURVE",
"306 619 CURVE",
"421 679 OFFCURVE",
"478 785 OFFCURVE",
"478 938 CURVE SMOOTH",
"478 1132 LINE SMOOTH",
"478 1284 OFFCURVE",
"519 1410 OFFCURVE",
"658 1457 CURVE",
"610 1597 LINE",
"335 1520 OFFCURVE",
"250 1343 OFFCURVE",
"250 1132 CURVE SMOOTH",
"250 934 LINE SMOOTH",
"250 783 OFFCURVE",
"185 708 OFFCURVE",
"56 708 CURVE",
"56 530 LINE"
);
}
);
width = 687;
}
);
note = braceleft;
unicode = 007B;
},
{
glyphname = bar;
lastChange = "2017-04-17 14:58:29 +0000";
layers = (
{
layerId = "D68CFE38-7B02-4705-B0C1-3A2279678377";
paths = (
{
closed = 1;
nodes = (
"174 -270 LINE",
"342 -270 LINE",
"342 1456 LINE",
"174 1456 LINE"
);
}
);
width = 514;
}
);
note = bar;
unicode = 007C;
},
{
glyphname = braceright;
lastChange = "2017-04-17 14:58:29 +0000";
layers = (
{
layerId = "D68CFE38-7B02-4705-B0C1-3A2279678377";
paths = (
{
closed = 1;
nodes = (
"501 708 OFFCURVE",
"436 783 OFFCURVE",
"436 934 CURVE SMOOTH",
"436 1132 LINE SMOOTH",
"436 1343 OFFCURVE",
"352 1520 OFFCURVE",
"76 1597 CURVE",
"28 1457 LINE",
"167 1410 OFFCURVE",
"207 1284 OFFCURVE",
"207 1132 CURVE SMOOTH",
"207 937 LINE SMOOTH",
"207 782 OFFCURVE",
"268 676 OFFCURVE",
"389 619 CURVE",
"268 562 OFFCURVE",
"207 456 OFFCURVE",
"207 301 CURVE SMOOTH",
"207 106 LINE SMOOTH",
"207 -46 OFFCURVE",
"167 -172 OFFCURVE",
"28 -219 CURVE",
"76 -360 LINE",
"352 -283 OFFCURVE",
"436 -105 OFFCURVE",
"436 106 CURVE SMOOTH",
"436 304 LINE SMOOTH",
"436 455 OFFCURVE",
"501 530 OFFCURVE",
"630 530 CURVE",
"630 708 LINE"
);
}
);
width = 687;
}
);
note = braceright;
unicode = 007D;
},
{
glyphname = asciitilde;
lastChange = "2017-04-17 14:58:29 +0000";
layers = (
{
layerId = "D68CFE38-7B02-4705-B0C1-3A2279678377";
paths = (
{
closed = 1;
nodes = (
"1057 673 OFFCURVE",
"995 591 OFFCURVE",
"906 591 CURVE SMOOTH",
"857 591 OFFCURVE",
"801 621 OFFCURVE",
"738 681 CURVE SMOOTH",
"643 768 OFFCURVE",
"559 816 OFFCURVE",
"448 816 CURVE SMOOTH",
"255 816 OFFCURVE",
"118 658 OFFCURVE",
"118 425 CURVE",
"311 425 LINE",
"311 537 OFFCURVE",
"366 613 OFFCURVE",
"455 613 CURVE SMOOTH",
"480 613 OFFCURVE",
"504 607 OFFCURVE",
"527 596 CURVE SMOOTH",
"550 585 OFFCURVE",
"586 557 OFFCURVE",
"637 512 CURVE SMOOTH",
"737 423 OFFCURVE",
"809 388 OFFCURVE",
"913 388 CURVE SMOOTH",
"1105 388 OFFCURVE",
"1244 556 OFFCURVE",
"1244 787 CURVE",
"1057 786 LINE"
);
}
);
width = 1361;
}
);
note = asciitilde;
unicode = 007E;
},
{
glyphname = exclamdown;
lastChange = "2017-04-17 14:58:29 +0000";
layers = (
{
layerId = "D68CFE38-7B02-4705-B0C1-3A2279678377";
paths = (
{
closed = 1;
nodes = (
"410 1044 OFFCURVE",
"359 1101 OFFCURVE",
"272 1101 CURVE SMOOTH",
"185 1101 OFFCURVE",
"134 1044 OFFCURVE",
"134 971 CURVE SMOOTH",
"134 898 OFFCURVE",
"185 840 OFFCURVE",
"272 840 CURVE SMOOTH",
"359 840 OFFCURVE",
"410 898 OFFCURVE",
"410 971 CURVE SMOOTH"
);
},
{
closed = 1;
nodes = (
"379 662 LINE",
"170 662 LINE",
"147 -365 LINE",
"403 -365 LINE"
);
}
);
width = 543;
}
);
note = exclamdown;
unicode = 00A1;
},
{
glyphname = cent;
lastChange = "2017-04-17 14:58:29 +0000";
layers = (
{
layerId = "D68CFE38-7B02-4705-B0C1-3A2279678377";
paths = (
{
closed = 1;
nodes = (
"801 251 OFFCURVE",
"710 175 OFFCURVE",
"591 175 CURVE SMOOTH",
"391 175 OFFCURVE",
"344 348 OFFCURVE",
"344 523 CURVE SMOOTH",
"344 559 LINE SMOOTH",
"344 731 OFFCURVE",
"393 907 OFFCURVE",
"590 907 CURVE SMOOTH",
"723 907 OFFCURVE",
"801 811 OFFCURVE",
"806 695 CURVE",
"1035 695 LINE",
"1028 904 OFFCURVE",
"896 1058 OFFCURVE",
"688 1094 CURVE",
"688 1318 LINE",
"488 1318 LINE",
"488 1093 LINE",
"227 1046 OFFCURVE",
"101 822 OFFCURVE",
"101 559 CURVE SMOOTH",
"101 523 LINE SMOOTH",
"101 259 OFFCURVE",
"227 36 OFFCURVE",
"488 -11 CURVE",
"488 -245 LINE",
"688 -245 LINE",
"688 -11 LINE",
"883 26 OFFCURVE",
"1028 177 OFFCURVE",
"1035 358 CURVE",
"806 358 LINE"
);
}
);
width = 1149;
}
);
note = cent;
unicode = 00A2;
},
{
glyphname = sterling;
lastChange = "2017-04-17 14:58:29 +0000";
layers = (
{
layerId = "D68CFE38-7B02-4705-B0C1-3A2279678377";
paths = (
{
closed = 1;
nodes = (
"1148 202 LINE",
"452 202 LINE",
"495 258 OFFCURVE",
"517 331 OFFCURVE",
"517 422 CURVE",
"510 599 LINE",
"814 599 LINE",
"814 798 LINE",
"503 798 LINE",
"494 1039 LINE",
"494 1191 OFFCURVE",
"578 1273 OFFCURVE",
"685 1273 CURVE SMOOTH",
"790 1273 OFFCURVE",
"885 1220 OFFCURVE",
"885 1073 CURVE",
"1130 1073 LINE",
"1130 1314 OFFCURVE",
"972 1476 OFFCURVE",
"695 1476 CURVE SMOOTH",
"431 1476 OFFCURVE",
"242 1315 OFFCURVE",
"242 1039 CURVE SMOOTH",
"250 798 LINE",
"95 798 LINE",
"95 599 LINE",
"257 599 LINE",
"263 414 LINE SMOOTH",
"263 331 OFFCURVE",
"247 219 OFFCURVE",
"180 202 CURVE",
"99 202 LINE",
"99 0 LINE",
"1148 0 LINE"
);
}
);
width = 1206;
}
);
note = sterling;
unicode = 00A3;
},
{
glyphname = currency;
lastChange = "2017-04-17 14:58:29 +0000";
layers = (
{
layerId = "D68CFE38-7B02-4705-B0C1-3A2279678377";
paths = (
{
closed = 1;
nodes = (
"1285 364 OFFCURVE",
"1318 480 OFFCURVE",
"1318 608 CURVE SMOOTH",
"1318 742 OFFCURVE",
"1283 863 OFFCURVE",
"1212 970 CURVE",
"1359 1120 LINE",
"1217 1265 LINE",
"1073 1117 LINE",
"970 1195 OFFCURVE",
"853 1234 OFFCURVE",
"724 1234 CURVE SMOOTH",
"595 1234 OFFCURVE",
"479 1196 OFFCURVE",
"376 1119 CURVE",
"234 1264 LINE",
"93 1120 LINE",
"237 973 LINE",
"164 866 OFFCURVE",
"128 744 OFFCURVE",
"128 608 CURVE SMOOTH",
"128 478 OFFCURVE",
"162 361 OFFCURVE",
"229 256 CURVE",
"93 118 LINE",
"234 -26 LINE",
"363 106 LINE",
"469 22 OFFCURVE",
"589 -20 OFFCURVE",
"724 -20 CURVE SMOOTH",
"859 -20 OFFCURVE",
"980 23 OFFCURVE",
"1086 108 CURVE",
"1217 -27 LINE",
"1359 118 LINE",
"1220 259 LINE"
);
},
{
closed = 1;
nodes = (
"314 853 OFFCURVE",
"496 1049 OFFCURVE",
"724 1049 CURVE SMOOTH",
"951 1049 OFFCURVE",
"1133 853 OFFCURVE",
"1133 608 CURVE SMOOTH",
"1133 363 OFFCURVE",
"951 166 OFFCURVE",
"724 166 CURVE SMOOTH",
"496 166 OFFCURVE",
"314 363 OFFCURVE",
"314 608 CURVE SMOOTH"
);
}
);
width = 1438;
}
);
note = currency;
unicode = 00A4;
},
{
glyphname = yen;
lastChange = "2017-04-17 14:58:29 +0000";
layers = (
{
layerId = "D68CFE38-7B02-4705-B0C1-3A2279678377";
paths = (
{
closed = 1;
nodes = (
"667 452 LINE",
"667 590 LINE",
"970 590 LINE",
"970 742 LINE",
"735 742 LINE",
"1077 1456 LINE",
"807 1456 LINE",
"546 848 LINE",
"284 1456 LINE",
"12 1456 LINE",
"354 742 LINE",
"107 742 LINE",
"107 590 LINE",
"415 590 LINE",
"415 452 LINE",
"107 452 LINE",
"107 301 LINE",
"415 301 LINE",
"415 0 LINE",
"667 0 LINE",
"667 301 LINE",
"970 301 LINE",
"970 452 LINE"
);
}
);
width = 1089;
}
);
note = yen;
unicode = 00A5;
},
{
glyphname = brokenbar;
lastChange = "2017-04-17 14:58:29 +0000";
layers = (
{
layerId = "D68CFE38-7B02-4705-B0C1-3A2279678377";
paths = (
{
closed = 1;
nodes = (
"137 698 LINE",
"366 698 LINE",
"366 1456 LINE",
"137 1456 LINE"
);
},
{
closed = 1;
nodes = (
"137 525 LINE",
"137 -270 LINE",
"366 -270 LINE",
"366 525 LINE"
);
}
);
width = 509;
}
);
note = brokenbar;
unicode = 00A6;
},
{
glyphname = section;
lastChange = "2017-04-17 14:58:29 +0000";
layers = (
{
layerId = "D68CFE38-7B02-4705-B0C1-3A2279678377";
paths = (
{
closed = 1;
nodes = (
"1129 19 OFFCURVE",
"1084 114 OFFCURVE",
"995 183 CURVE",
"1108 242 OFFCURVE",
"1165 332 OFFCURVE",
"1165 455 CURVE SMOOTH",
"1165 702 OFFCURVE",
"994 799 OFFCURVE",
"691 880 CURVE SMOOTH",
"564 914 OFFCURVE",
"480 945 OFFCURVE",
"437 974 CURVE SMOOTH",
"394 1003 OFFCURVE",
"373 1046 OFFCURVE",
"373 1104 CURVE SMOOTH",
"373 1201 OFFCURVE",
"453 1282 OFFCURVE",
"636 1282 CURVE SMOOTH",
"809 1282 OFFCURVE",
"900 1177 OFFCURVE",
"900 1048 CURVE",
"1143 1048 LINE",
"1143 1324 OFFCURVE",
"951 1477 OFFCURVE",
"636 1477 CURVE SMOOTH",
"329 1477 OFFCURVE",
"130 1329 OFFCURVE",
"130 1102 CURVE SMOOTH",
"130 980 OFFCURVE",
"175 885 OFFCURVE",
"264 816 CURVE",
"151 757 OFFCURVE",
"94 666 OFFCURVE",
"94 543 CURVE SMOOTH",
"94 296 OFFCURVE",
"270 197 OFFCURVE",
"565 118 CURVE SMOOTH",
"688 81 OFFCURVE",
"773 48 OFFCURVE",
"818 18 CURVE SMOOTH",
"863 -12 OFFCURVE",
"886 -53 OFFCURVE",
"886 -106 CURVE SMOOTH",
"886 -207 OFFCURVE",
"793 -279 OFFCURVE",
"625 -279 CURVE SMOOTH",
"486 -279 OFFCURVE",
"333 -226 OFFCURVE",
"333 -49 CURVE",
"90 -50 LINE",
"90 -158 OFFCURVE",
"116 -243 OFFCURVE",
"169 -304 CURVE SMOOTH",
"273 -428 OFFCURVE",
"448 -475 OFFCURVE",
"625 -475 CURVE SMOOTH",
"930 -475 OFFCURVE",
"1129 -341 OFFCURVE",
"1129 -104 CURVE SMOOTH"
);
},
{
closed = 1;
nodes = (
"772 289 OFFCURVE",
"726 304 OFFCURVE",
"672 319 CURVE SMOOTH",
"540 356 OFFCURVE",
"451 389 OFFCURVE",
"406 420 CURVE SMOOTH",
"360 451 OFFCURVE",
"337 497 OFFCURVE",
"337 558 CURVE SMOOTH",
"337 640 OFFCURVE",
"373 695 OFFCURVE",
"444 723 CURVE",
"454 719 OFFCURVE",
"517 699 OFFCURVE",
"633 664 CURVE SMOOTH",
"748 628 OFFCURVE",
"826 594 OFFCURVE",
"865 563 CURVE SMOOTH",
"904 531 OFFCURVE",
"924 490 OFFCURVE",
"924 440 CURVE SMOOTH",
"924 361 OFFCURVE",
"886 306 OFFCURVE",
"811 275 CURVE"
);
}
);
width = 1273;
}
);
note = section;
unicode = 00A7;
},
{
glyphname = dieresis;
lastChange = "2017-04-17 14:58:29 +0000";
layers = (
{
layerId = "D68CFE38-7B02-4705-B0C1-3A2279678377";
paths = (
{
closed = 1;
nodes = (
"94 1299 OFFCURVE",
"143 1249 OFFCURVE",
"220 1249 CURVE SMOOTH",
"297 1249 OFFCURVE",
"347 1299 OFFCURVE",
"347 1366 CURVE SMOOTH",
"347 1433 OFFCURVE",
"297 1485 OFFCURVE",
"220 1485 CURVE SMOOTH",
"143 1485 OFFCURVE",
"94 1433 OFFCURVE",
"94 1366 CURVE SMOOTH"
);
},
{
closed = 1;
nodes = (
"551 1300 OFFCURVE",
"598 1248 OFFCURVE",
"677 1248 CURVE SMOOTH",
"756 1248 OFFCURVE",
"804 1300 OFFCURVE",
"804 1365 CURVE SMOOTH",
"804 1432 OFFCURVE",
"756 1484 OFFCURVE",
"677 1484 CURVE SMOOTH",
"598 1484 OFFCURVE",
"551 1432 OFFCURVE",
"551 1365 CURVE SMOOTH"
);
}
);
width = 901;
}
);
note = dieresis;
unicode = 00A8;
},
{
glyphname = copyright;
lastChange = "2017-04-17 14:58:29 +0000";
layers = (
{
layerId = "D68CFE38-7B02-4705-B0C1-3A2279678377";
paths = (
{
closed = 1;
nodes = (
"87 588 OFFCURVE",
"119 461 OFFCURVE",
"183 348 CURVE SMOOTH",
"311 121 OFFCURVE",
"536 -21 OFFCURVE",
"797 -21 CURVE SMOOTH",
"927 -21 OFFCURVE",
"1046 12 OFFCURVE",
"1154 79 CURVE SMOOTH",
"1369 211 OFFCURVE",
"1507 448 OFFCURVE",
"1507 729 CURVE SMOOTH",
"1507 870 OFFCURVE",
"1475 997 OFFCURVE",
"1411 1110 CURVE SMOOTH",
"1283 1336 OFFCURVE",
"1057 1476 OFFCURVE",
"797 1476 CURVE SMOOTH",
"666 1476 OFFCURVE",
"547 1443 OFFCURVE",
"440 1378 CURVE SMOOTH",
"225 1246 OFFCURVE",
"87 1010 OFFCURVE",
"87 729 CURVE SMOOTH"
);
},
{
closed = 1;
nodes = (
"209 1077 OFFCURVE",
"469 1351 OFFCURVE",
"797 1351 CURVE SMOOTH",
"905 1351 OFFCURVE",
"1004 1324 OFFCURVE",
"1093 1269 CURVE SMOOTH",
"1271 1160 OFFCURVE",
"1384 965 OFFCURVE",
"1384 729 CURVE SMOOTH",
"1384 611 OFFCURVE",
"1358 505 OFFCURVE",
"1305 411 CURVE SMOOTH",
"1200 222 OFFCURVE",
"1013 104 OFFCURVE",
"797 104 CURVE SMOOTH",
"688 104 OFFCURVE",
"590 132 OFFCURVE",
"501 187 CURVE SMOOTH",
"324 297 OFFCURVE",
"209 493 OFFCURVE",
"209 729 CURVE SMOOTH"
);
},
{
closed = 1;
nodes = (
"962 465 OFFCURVE",
"902 417 OFFCURVE",
"783 417 CURVE SMOOTH",
"655 417 OFFCURVE",
"589 520 OFFCURVE",
"589 669 CURVE SMOOTH",
"589 789 LINE SMOOTH",
"589 936 OFFCURVE",
"655 1040 OFFCURVE",
"783 1040 CURVE SMOOTH",
"902 1040 OFFCURVE",
"963 990 OFFCURVE",
"963 862 CURVE",
"1119 862 LINE",
"1119 1071 OFFCURVE",
"990 1175 OFFCURVE",
"783 1175 CURVE SMOOTH",
"568 1175 OFFCURVE",
"434 1017 OFFCURVE",
"434 788 CURVE SMOOTH",
"434 669 LINE SMOOTH",
"434 438 OFFCURVE",
"568 282 OFFCURVE",
"783 282 CURVE SMOOTH",
"990 282 OFFCURVE",
"1118 385 OFFCURVE",
"1118 596 CURVE",
"962 596 LINE"
);
}
);
width = 1605;
}
);
note = copyright;
unicode = 00A9;
},
{
glyphname = ordfeminine;
lastChange = "2017-04-17 14:58:29 +0000";
layers = (
{
layerId = "D68CFE38-7B02-4705-B0C1-3A2279678377";
paths = (
{
closed = 1;
nodes = (
"769 759 OFFCURVE",
"760 819 OFFCURVE",
"760 887 CURVE SMOOTH",
"760 1201 LINE SMOOTH",
"760 1384 OFFCURVE",
"644 1477 OFFCURVE",
"469 1477 CURVE SMOOTH",
"281 1477 OFFCURVE",
"158 1379 OFFCURVE",
"158 1244 CURVE",
"331 1230 LINE",
"331 1296 OFFCURVE",
"377 1329 OFFCURVE",
"469 1329 CURVE SMOOTH",
"546 1329 OFFCURVE",
"585 1287 OFFCURVE",
"585 1202 CURVE SMOOTH",
"585 1151 LINE",
"466 1151 LINE SMOOTH",
"250 1147 OFFCURVE",
"142 1070 OFFCURVE",
"142 920 CURVE SMOOTH",
"142 781 OFFCURVE",
"231 692 OFFCURVE",
"391 692 CURVE SMOOTH",
"474 692 OFFCURVE",
"541 719 OFFCURVE",
"592 774 CURVE",
"596 750 OFFCURVE",
"602 727 OFFCURVE",
"609 706 CURVE",
"786 706 LINE"
);
},
{
closed = 1;
nodes = (
"356 836 OFFCURVE",
"317 865 OFFCURVE",
"317 924 CURVE SMOOTH",
"317 983 OFFCURVE",
"368 1034 OFFCURVE",
"484 1034 CURVE SMOOTH",
"585 1034 LINE",
"585 898 LINE",
"549 865 OFFCURVE",
"487 836 OFFCURVE",
"434 836 CURVE SMOOTH"
);
}
);
width = 914;
}
);
note = ordfeminine;
unicode = 00AA;
},
{
glyphname = guillemotleft;
lastChange = "2017-04-17 14:58:29 +0000";
layers = (
{
layerId = "D68CFE38-7B02-4705-B0C1-3A2279678377";
paths = (
{
closed = 1;
nodes = (
"295 538 LINE",
"542 938 LINE",
"374 938 LINE",
"86 548 LINE",
"86 529 LINE",
"374 139 LINE",
"542 139 LINE"
);
},
{
closed = 1;
nodes = (
"655 538 LINE",
"902 938 LINE",
"734 938 LINE",
"446 548 LINE",
"446 529 LINE",
"734 139 LINE",
"902 139 LINE"
);
}
);
width = 994;
}
);
note = guillemotleft;
unicode = 00AB;
},
{
glyphname = logicalnot;
lastChange = "2017-04-17 14:58:29 +0000";
layers = (
{
layerId = "D68CFE38-7B02-4705-B0C1-3A2279678377";
paths = (
{
closed = 1;
nodes = (
"762 634 LINE",
"762 374 LINE",
"962 374 LINE",
"962 805 LINE",
"127 805 LINE",
"127 634 LINE"
);
}
);
width = 1134;
}
);
note = logicalnot;
unicode = 00AC;
},
{
glyphname = registered;
lastChange = "2017-04-17 14:58:29 +0000";
layers = (
{
layerId = "D68CFE38-7B02-4705-B0C1-3A2279678377";
paths = (
{
closed = 1;
nodes = (
"87 588 OFFCURVE",
"119 461 OFFCURVE",
"183 348 CURVE SMOOTH",
"311 121 OFFCURVE",
"536 -21 OFFCURVE",
"797 -21 CURVE SMOOTH",
"927 -21 OFFCURVE",
"1046 12 OFFCURVE",
"1154 79 CURVE SMOOTH",
"1369 211 OFFCURVE",
"1507 448 OFFCURVE",
"1507 729 CURVE SMOOTH",
"1507 870 OFFCURVE",
"1475 997 OFFCURVE",
"1411 1110 CURVE SMOOTH",
"1283 1336 OFFCURVE",
"1057 1476 OFFCURVE",
"797 1476 CURVE SMOOTH",
"666 1476 OFFCURVE",
"547 1443 OFFCURVE",
"440 1378 CURVE SMOOTH",
"225 1246 OFFCURVE",
"87 1010 OFFCURVE",
"87 729 CURVE SMOOTH"
);
},
{
closed = 1;
nodes = (
"209 1077 OFFCURVE",
"469 1351 OFFCURVE",
"797 1351 CURVE SMOOTH",
"905 1351 OFFCURVE",
"1004 1324 OFFCURVE",
"1093 1269 CURVE SMOOTH",
"1271 1160 OFFCURVE",
"1384 965 OFFCURVE",
"1384 729 CURVE SMOOTH",
"1384 611 OFFCURVE",
"1358 505 OFFCURVE",
"1305 411 CURVE SMOOTH",
"1200 222 OFFCURVE",
"1013 104 OFFCURVE",
"797 104 CURVE SMOOTH",
"688 104 OFFCURVE",
"590 132 OFFCURVE",
"501 187 CURVE SMOOTH",
"324 297 OFFCURVE",
"209 493 OFFCURVE",
"209 729 CURVE SMOOTH"
);
},
{
closed = 1;
nodes = (
"906 653 OFFCURVE",
"954 608 OFFCURVE",
"954 511 CURVE SMOOTH",
"954 414 OFFCURVE",
"954 351 OFFCURVE",
"967 316 CURVE",
"1122 316 LINE",
"1122 332 LINE",
"1115 347 OFFCURVE",
"1111 366 OFFCURVE",
"1109 389 CURVE",
"1106 412 OFFCURVE",
"1105 451 OFFCURVE",
"1105 506 CURVE SMOOTH",
"1105 614 OFFCURVE",
"1074 687 OFFCURVE",
"989 726 CURVE",
"1068 769 OFFCURVE",
"1108 829 OFFCURVE",
"1108 907 CURVE SMOOTH",
"1108 1079 OFFCURVE",
"982 1166 OFFCURVE",
"783 1166 CURVE SMOOTH",
"502 1166 LINE",
"502 316 LINE",
"653 316 LINE",
"653 653 LINE",
"811 653 LINE SMOOTH"
);
},
{
closed = 1;
nodes = (
"912 1033 OFFCURVE",
"958 1000 OFFCURVE",
"958 903 CURVE SMOOTH",
"958 827 OFFCURVE",
"882 788 OFFCURVE",
"797 787 CURVE SMOOTH",
"653 787 LINE",
"653 1033 LINE",
"783 1033 LINE SMOOTH"
);
}
);
width = 1605;
}
);
note = registered;
unicode = 00AE;
},
{
glyphname = macron;
lastChange = "2017-04-17 14:58:29 +0000";
layers = (
{
layerId = "D68CFE38-7B02-4705-B0C1-3A2279678377";
paths = (
{
closed = 1;
nodes = (
"156 1292 LINE",
"842 1292 LINE",
"842 1450 LINE",
"156 1450 LINE"
);
}
);
width = 988;
}
);
note = macron;
unicode = 00AF;
},
{
glyphname = degree;
lastChange = "2017-04-17 14:58:29 +0000";
layers = (
{
layerId = "D68CFE38-7B02-4705-B0C1-3A2279678377";
paths = (
{
closed = 1;
nodes = (
"127 1061 OFFCURVE",
"247 943 OFFCURVE",
"392 943 CURVE SMOOTH",
"535 943 OFFCURVE",
"652 1061 OFFCURVE",
"652 1208 CURVE SMOOTH",
"652 1355 OFFCURVE",
"535 1477 OFFCURVE",
"392 1477 CURVE SMOOTH",
"247 1477 OFFCURVE",
"127 1355 OFFCURVE",
"127 1208 CURVE SMOOTH"
);
},
{
closed = 1;
nodes = (
"266 1281 OFFCURVE",
"324 1336 OFFCURVE",
"392 1336 CURVE SMOOTH",
"460 1336 OFFCURVE",
"513 1281 OFFCURVE",
"513 1208 CURVE SMOOTH",
"513 1137 OFFCURVE",
"460 1084 OFFCURVE",
"392 1084 CURVE SMOOTH",
"324 1084 OFFCURVE",
"266 1137 OFFCURVE",
"266 1208 CURVE SMOOTH"
);
}
);
width = 779;
}
);
note = degree;
unicode = 00B0;
},
{
glyphname = plusminus;
lastChange = "2017-04-17 14:58:29 +0000";
layers = (
{
layerId = "D68CFE38-7B02-4705-B0C1-3A2279678377";
paths = (
{
closed = 1;
nodes = (
"668 899 LINE",
"668 1276 LINE",
"453 1276 LINE",
"453 899 LINE",
"95 899 LINE",
"95 700 LINE",
"453 700 LINE",
"453 312 LINE",
"668 312 LINE",
"668 700 LINE",
"1011 700 LINE",
"1011 899 LINE"
);
},
{
closed = 1;
nodes = (
"126 1 LINE",
"974 1 LINE",
"974 197 LINE",
"126 197 LINE"
);
}
);
width = 1099;
}
);
note = plusminus;
unicode = 00B1;
},
{
glyphname = twosuperior;
lastChange = "2017-04-17 14:58:29 +0000";
layers = (
{
layerId = "D68CFE38-7B02-4705-B0C1-3A2279678377";
paths = (
{
closed = 1;
nodes = (
"464 933 LINE SMOOTH",
"593 1041 OFFCURVE",
"664 1115 OFFCURVE",
"664 1224 CURVE SMOOTH",
"664 1376 OFFCURVE",
"553 1467 OFFCURVE",
"364 1467 CURVE SMOOTH",
"175 1467 OFFCURVE",
"60 1346 OFFCURVE",
"60 1199 CURVE",
"247 1199 LINE",
"247 1264 OFFCURVE",
"286 1318 OFFCURVE",
"371 1318 CURVE SMOOTH",
"442 1318 OFFCURVE",
"477 1286 OFFCURVE",
"477 1223 CURVE SMOOTH",
"477 1180 OFFCURVE",
"439 1124 OFFCURVE",
"364 1055 CURVE SMOOTH",
"78 793 LINE",
"78 667 LINE",
"690 667 LINE",
"690 816 LINE",
"319 816 LINE"
);
}
);
width = 758;
}
);
note = twosuperior;
unicode = 00B2;
},
{
glyphname = threesuperior;
lastChange = "2017-04-17 14:58:29 +0000";
layers = (
{
layerId = "D68CFE38-7B02-4705-B0C1-3A2279678377";
paths = (
{
closed = 1;
nodes = (
"450 1004 OFFCURVE",
"495 970 OFFCURVE",
"495 903 CURVE SMOOTH",
"495 847 OFFCURVE",
"454 805 OFFCURVE",
"370 805 CURVE SMOOTH",
"291 805 OFFCURVE",
"242 847 OFFCURVE",
"242 896 CURVE",
"55 896 LINE",
"55 725 OFFCURVE",
"210 656 OFFCURVE",
"361 656 CURVE SMOOTH",
"544 656 OFFCURVE",
"681 740 OFFCURVE",
"681 888 CURVE SMOOTH",
"681 983 OFFCURVE",
"632 1045 OFFCURVE",
"533 1072 CURVE",
"623 1106 OFFCURVE",
"668 1163 OFFCURVE",
"668 1242 CURVE SMOOTH",
"668 1389 OFFCURVE",
"544 1467 OFFCURVE",
"361 1467 CURVE SMOOTH",
"200 1467 OFFCURVE",
"67 1385 OFFCURVE",
"67 1244 CURVE",
"253 1244 LINE",
"253 1289 OFFCURVE",
"302 1318 OFFCURVE",
"365 1318 CURVE SMOOTH",
"448 1318 OFFCURVE",
"481 1277 OFFCURVE",
"481 1230 CURVE SMOOTH",
"481 1167 OFFCURVE",
"441 1134 OFFCURVE",
"361 1133 CURVE SMOOTH",
"269 1133 LINE",
"269 1005 LINE",
"361 1005 LINE SMOOTH"
);
}
);
width = 758;
}
);
note = threesuperior;
unicode = 00B3;
},
{
glyphname = acute;
lastChange = "2017-04-17 14:58:29 +0000";
layers = (
{
layerId = "D68CFE38-7B02-4705-B0C1-3A2279678377";
paths = (
{
closed = 1;
nodes = (
"585 1536 LINE",
"308 1536 LINE",
"113 1234 LINE",
"308 1234 LINE"
);
}
);
width = 668;
}
);
note = acute;
unicode = 00B4;
},
{
glyphname = mu;
lastChange = "2017-04-17 14:58:29 +0000";
layers = (
{
layerId = "D68CFE38-7B02-4705-B0C1-3A2279678377";
paths = (
{
closed = 1;
nodes = (
"686 -21 OFFCURVE",
"766 15 OFFCURVE",
"826 87 CURVE",
"833 0 LINE",
"1055 0 LINE",
"1055 1082 LINE",
"813 1082 LINE",
"813 297 LINE",
"773 216 OFFCURVE",
"697 175 OFFCURVE",
"585 175 CURVE SMOOTH",
"473 175 OFFCURVE",
"390 223 OFFCURVE",
"389 455 CURVE",
"389 1082 LINE",
"147 1082 LINE",
"147 -416 LINE",
"389 -416 LINE",
"389 35 LINE",
"440 -2 OFFCURVE",
"505 -21 OFFCURVE",
"586 -21 CURVE SMOOTH"
);
}
);
width = 1211;
}
);
note = mu;
unicode = 00B5;
},
{
glyphname = paragraph;
lastChange = "2017-04-17 14:58:29 +0000";
layers = (
{
layerId = "D68CFE38-7B02-4705-B0C1-3A2279678377";
paths = (
{
closed = 1;
nodes = (
"562 1456 LINE SMOOTH",
"245 1456 OFFCURVE",
"70 1256 OFFCURVE",
"70 988 CURVE SMOOTH",
"70 720 OFFCURVE",
"243 523 OFFCURVE",
"555 520 CURVE SMOOTH",
"645 520 LINE",
"645 0 LINE",
"854 0 LINE",
"854 1456 LINE"
);
}
);
width = 1006;
}
);
note = paragraph;
unicode = 00B6;
},
{
glyphname = periodcentered;
lastChange = "2017-04-17 14:58:29 +0000";
layers = (
{
layerId = "D68CFE38-7B02-4705-B0C1-3A2279678377";
paths = (
{
closed = 1;
nodes = (
"142 640 OFFCURVE",
"193 582 OFFCURVE",
"284 582 CURVE SMOOTH",
"373 582 OFFCURVE",
"426 640 OFFCURVE",
"426 715 CURVE SMOOTH",
"426 791 OFFCURVE",
"373 850 OFFCURVE",
"284 850 CURVE SMOOTH",
"193 850 OFFCURVE",
"142 791 OFFCURVE",
"142 715 CURVE SMOOTH"
);
}
);
width = 578;
}
);
note = periodcentered;
unicode = 00B7;
},
{
glyphname = cedilla;
lastChange = "2017-04-17 14:58:29 +0000";
layers = (
{
layerId = "D68CFE38-7B02-4705-B0C1-3A2279678377";
paths = (
{
closed = 1;
nodes = (
"217 -144 OFFCURVE",
"260 -161 OFFCURVE",
"260 -221 CURVE SMOOTH",
"260 -280 OFFCURVE",
"215 -310 OFFCURVE",
"124 -310 CURVE",
"131 -448 LINE",
"346 -448 OFFCURVE",
"457 -357 OFFCURVE",
"457 -224 CURVE SMOOTH",
"457 -109 OFFCURVE",
"382 -64 OFFCURVE",
"307 -51 CURVE",
"319 4 LINE",
"141 4 LINE",
"110 -136 LINE"
);
}
);
width = 529;
}
);
note = cedilla;
unicode = 00B8;
},
{
glyphname = onesuperior;
lastChange = "2017-04-17 14:58:29 +0000";
layers = (
{
layerId = "D68CFE38-7B02-4705-B0C1-3A2279678377";
paths = (
{
closed = 1;
nodes = (
"129 1336 LINE",
"129 1189 LINE",
"329 1238 LINE",
"329 667 LINE",
"515 667 LINE",
"515 1455 LINE",
"496 1455 LINE"
);
}
);
width = 758;
}
);
note = onesuperior;
unicode = 00B9;
},
{
glyphname = ordmasculine;
lastChange = "2017-04-17 14:58:29 +0000";
layers = (
{
layerId = "D68CFE38-7B02-4705-B0C1-3A2279678377";
paths = (
{
closed = 1;
nodes = (
"119 838 OFFCURVE",
"252 691 OFFCURVE",
"467 691 CURVE SMOOTH",
"680 691 OFFCURVE",
"812 838 OFFCURVE",
"812 1045 CURVE SMOOTH",
"812 1122 LINE SMOOTH",
"812 1329 OFFCURVE",
"680 1477 OFFCURVE",
"465 1477 CURVE SMOOTH",
"253 1477 OFFCURVE",
"119 1329 OFFCURVE",
"119 1122 CURVE SMOOTH",
"119 1045 LINE SMOOTH"
);
},
{
closed = 1;
nodes = (
"294 1239 OFFCURVE",
"350 1329 OFFCURVE",
"465 1329 CURVE SMOOTH",
"581 1329 OFFCURVE",
"637 1239 OFFCURVE",
"637 1122 CURVE SMOOTH",
"637 1045 LINE SMOOTH",
"637 926 OFFCURVE",
"580 837 OFFCURVE",
"467 837 CURVE SMOOTH",
"350 837 OFFCURVE",
"294 926 OFFCURVE",
"294 1045 CURVE SMOOTH",
"294 1122 LINE SMOOTH"
);
}
);
width = 935;
}
);
note = ordmasculine;
unicode = 00BA;
},
{
glyphname = guillemotright;
lastChange = "2017-04-17 14:58:29 +0000";
layers = (
{
layerId = "D68CFE38-7B02-4705-B0C1-3A2279678377";
paths = (
{
closed = 1;
nodes = (
"341 538 LINE",
"94 138 LINE",
"261 138 LINE",
"549 528 LINE",
"549 547 LINE",
"261 937 LINE",
"94 937 LINE"
);
},
{
closed = 1;
nodes = (
"714 538 LINE",
"467 138 LINE",
"634 138 LINE",
"922 528 LINE",
"922 547 LINE",
"634 937 LINE",
"467 937 LINE"
);
}
);
width = 994;
}
);
note = guillemotright;
unicode = 00BB;
},
{
glyphname = onequarter;
lastChange = "2017-04-17 14:58:29 +0000";
layers = (
{
layerId = "D68CFE38-7B02-4705-B0C1-3A2279678377";
paths = (
{
closed = 1;
nodes = (
"89 1333 LINE",
"89 1186 LINE",
"289 1235 LINE",
"289 664 LINE",
"475 664 LINE",
"475 1452 LINE",
"456 1452 LINE"
);
},
{
closed = 1;
nodes = (
"328 190 LINE",
"454 117 LINE",
"1165 1255 LINE",
"1039 1328 LINE"
);
},
{
closed = 1;
nodes = (
"1130 164 LINE",
"1130 0 LINE",
"1316 0 LINE",
"1316 164 LINE",
"1412 164 LINE",
"1412 315 LINE",
"1316 315 LINE",
"1316 789 LINE",
"1128 789 LINE",
"762 284 LINE",
"772 164 LINE"
);
},
{
closed = 1;
nodes = (
"1130 558 LINE",
"1130 315 LINE",
"944 315 LINE",
"1116 535 LINE"
);
}
);
width = 1488;
}
);
note = onequarter;
unicode = 00BC;
},
{
glyphname = onehalf;
lastChange = "2017-04-17 14:58:29 +0000";
layers = (
{
layerId = "D68CFE38-7B02-4705-B0C1-3A2279678377";
paths = (
{
closed = 1;
nodes = (
"285 190 LINE",
"411 117 LINE",
"1122 1255 LINE",
"996 1328 LINE"
);
},
{
closed = 1;
nodes = (
"80 1336 LINE",
"80 1189 LINE",
"280 1238 LINE",
"280 667 LINE",
"466 667 LINE",
"466 1455 LINE",
"447 1455 LINE"
);
},
{
closed = 1;
nodes = (
"1254 263 LINE SMOOTH",
"1386 371 OFFCURVE",
"1458 446 OFFCURVE",
"1458 557 CURVE SMOOTH",
"1458 709 OFFCURVE",
"1347 800 OFFCURVE",
"1158 800 CURVE SMOOTH",
"969 800 OFFCURVE",
"854 679 OFFCURVE",
"854 532 CURVE",
"1041 532 LINE",
"1041 599 OFFCURVE",
"1080 651 OFFCURVE",
"1165 651 CURVE SMOOTH",
"1236 651 OFFCURVE",
"1271 619 OFFCURVE",
"1271 556 CURVE SMOOTH",
"1271 513 OFFCURVE",
"1233 457 OFFCURVE",
"1158 388 CURVE SMOOTH",
"872 126 LINE",
"872 0 LINE",
"1484 0 LINE",
"1484 149 LINE",
"1113 149 LINE"
);
}
);
width = 1579;
}
);
note = onehalf;
unicode = 00BD;
},
{
glyphname = threequarters;
lastChange = "2017-04-17 14:58:29 +0000";
layers = (
{
layerId = "D68CFE38-7B02-4705-B0C1-3A2279678377";
paths = (
{
closed = 1;
nodes = (
"469 190 LINE",
"595 117 LINE",
"1306 1255 LINE",
"1180 1328 LINE"
);
},
{
closed = 1;
nodes = (
"1251 164 LINE",
"1251 0 LINE",
"1437 0 LINE",
"1437 164 LINE",
"1533 164 LINE",
"1533 315 LINE",
"1437 315 LINE",
"1437 789 LINE",
"1249 789 LINE",
"883 284 LINE",
"893 164 LINE"
);
},
{
closed = 1;
nodes = (
"1251 558 LINE",
"1251 315 LINE",
"1065 315 LINE",
"1237 535 LINE"
);
},
{
closed = 1;
nodes = (
"498 1004 OFFCURVE",
"543 970 OFFCURVE",
"543 903 CURVE SMOOTH",
"543 847 OFFCURVE",
"502 805 OFFCURVE",
"418 805 CURVE SMOOTH",
"339 805 OFFCURVE",
"290 847 OFFCURVE",
"290 896 CURVE",
"103 896 LINE",
"103 725 OFFCURVE",
"258 656 OFFCURVE",
"409 656 CURVE SMOOTH",
"592 656 OFFCURVE",
"729 740 OFFCURVE",
"729 888 CURVE SMOOTH",
"729 983 OFFCURVE",
"680 1045 OFFCURVE",
"581 1072 CURVE",
"671 1106 OFFCURVE",
"716 1163 OFFCURVE",
"716 1242 CURVE SMOOTH",
"716 1389 OFFCURVE",
"592 1467 OFFCURVE",
"409 1467 CURVE SMOOTH",
"248 1467 OFFCURVE",
"115 1387 OFFCURVE",
"115 1244 CURVE",
"301 1244 LINE",
"301 1291 OFFCURVE",
"350 1318 OFFCURVE",
"413 1318 CURVE SMOOTH",
"496 1318 OFFCURVE",
"529 1277 OFFCURVE",
"529 1230 CURVE SMOOTH",
"529 1167 OFFCURVE",
"489 1134 OFFCURVE",
"409 1133 CURVE SMOOTH",
"317 1133 LINE",
"317 1005 LINE",
"409 1005 LINE SMOOTH"
);
}
);
width = 1623;
}
);
note = threequarters;
unicode = 00BE;
},
{
glyphname = questiondown;
lastChange = "2017-04-17 14:58:29 +0000";
layers = (
{
layerId = "D68CFE38-7B02-4705-B0C1-3A2279678377";
paths = (
{
closed = 1;
nodes = (
"651 1047 OFFCURVE",
"600 1102 OFFCURVE",
"513 1102 CURVE SMOOTH",
"426 1102 OFFCURVE",
"375 1047 OFFCURVE",
"375 972 CURVE SMOOTH",
"375 897 OFFCURVE",
"426 841 OFFCURVE",
"513 841 CURVE SMOOTH",
"600 841 OFFCURVE",
"651 897 OFFCURVE",
"651 972 CURVE SMOOTH"
);
},
{
closed = 1;
nodes = (
"402 562 OFFCURVE",
"385 489 OFFCURVE",
"313 420 CURVE SMOOTH",
"192 303 OFFCURVE",
"67 178 OFFCURVE",
"67 1 CURVE SMOOTH",
"67 -247 OFFCURVE",
"226 -386 OFFCURVE",
"499 -386 CURVE SMOOTH",
"743 -386 OFFCURVE",
"930 -251 OFFCURVE",
"933 0 CURVE",
"690 0 LINE",
"689 -128 OFFCURVE",
"596 -184 OFFCURVE",
"496 -184 CURVE SMOOTH",
"372 -184 OFFCURVE",
"310 -121 OFFCURVE",
"310 5 CURVE SMOOTH",
"310 46 OFFCURVE",
"317 82 OFFCURVE",
"332 113 CURVE SMOOTH",
"346 144 OFFCURVE",
"388 195 OFFCURVE",
"459 268 CURVE SMOOTH",
"600 413 OFFCURVE",
"629 482 OFFCURVE",
"630 662 CURVE",
"403 662 LINE"
);
}
);
width = 997;
}
);
note = questiondown;
unicode = 00BF;
},
{
glyphname = AE;
lastChange = "2017-04-17 14:58:29 +0000";
layers = (
{
layerId = "D68CFE38-7B02-4705-B0C1-3A2279678377";
paths = (
{
closed = 1;
nodes = (
"1197 655 LINE",
"1737 655 LINE",
"1737 851 LINE",
"1188 851 LINE",
"1171 1260 LINE",
"1818 1260 LINE",
"1818 1456 LINE",
"825 1456 LINE",
"-10 0 LINE",
"280 0 LINE",
"464 341 LINE",
"968 341 LINE",
"982 0 LINE",
"1879 0 LINE",
"1879 196 LINE",
"1216 196 LINE"
);
},
{
closed = 1;
nodes = (
"959 555 LINE",
"580 555 LINE",
"932 1205 LINE"
);
}
);
width = 1925;
}
);
note = AE;
unicode = 00C6;
},
{
glyphname = multiply;
lastChange = "2017-04-17 14:58:29 +0000";
layers = (
{
layerId = "D68CFE38-7B02-4705-B0C1-3A2279678377";
paths = (
{
closed = 1;
nodes = (
"1004 1009 LINE",
"856 1158 LINE",
"540 836 LINE",
"225 1158 LINE",
"77 1009 LINE",
"393 686 LINE",
"77 364 LINE",
"225 215 LINE",
"540 537 LINE",
"856 215 LINE",
"1004 364 LINE",
"688 686 LINE"
);
}
);
width = 1093;
}
);
note = multiply;
unicode = 00D7;
},
{
glyphname = Oslash;
lastChange = "2017-04-17 14:58:29 +0000";
layers = (
{
layerId = "D68CFE38-7B02-4705-B0C1-3A2279678377";
paths = (
{
closed = 1;
nodes = (
"1073 -20 OFFCURVE",
"1314 248 OFFCURVE",
"1314 691 CURVE SMOOTH",
"1314 764 LINE SMOOTH",
"1314 977 OFFCURVE",
"1261 1148 OFFCURVE",
"1156 1276 CURVE",
"1303 1518 LINE",
"1136 1518 LINE",
"1049 1375 LINE",
"953 1442 OFFCURVE",
"840 1476 OFFCURVE",
"710 1476 CURVE SMOOTH",
"354 1476 OFFCURVE",
"106 1207 OFFCURVE",
"106 764 CURVE SMOOTH",
"106 691 LINE SMOOTH",
"106 452 OFFCURVE",
"179 266 OFFCURVE",
"300 143 CURVE",
"156 -95 LINE",
"324 -95 LINE",
"415 55 LINE",
"502 5 OFFCURVE",
"601 -20 OFFCURVE",
"712 -20 CURVE SMOOTH"
);
},
{
closed = 1;
nodes = (
"359 1093 OFFCURVE",
"493 1267 OFFCURVE",
"710 1267 CURVE SMOOTH",
"801 1267 OFFCURVE",
"875 1239 OFFCURVE",
"932 1182 CURVE",
"430 356 LINE",
"383 441 OFFCURVE",
"359 553 OFFCURVE",
"359 691 CURVE SMOOTH",
"359 766 LINE SMOOTH"
);
},
{
closed = 1;
nodes = (
"1061 364 OFFCURVE",
"935 188 OFFCURVE",
"712 188 CURVE SMOOTH",
"641 188 OFFCURVE",
"580 206 OFFCURVE",
"529 242 CURVE",
"1017 1047 LINE",
"1046 970 OFFCURVE",
"1061 877 OFFCURVE",
"1061 766 CURVE SMOOTH",
"1061 691 LINE SMOOTH"
);
}
);
width = 1413;
}
);
leftKerningGroup = C;
note = Oslash;
unicode = 00D8;
},
{
glyphname = Thorn;
lastChange = "2017-04-17 14:58:29 +0000";
layers = (
{
layerId = "D68CFE38-7B02-4705-B0C1-3A2279678377";
paths = (
{
closed = 1;
nodes = (
"969 300 OFFCURVE",
"1151 485 OFFCURVE",
"1151 738 CURVE SMOOTH",
"1151 989 OFFCURVE",
"972 1174 OFFCURVE",
"645 1177 CURVE SMOOTH",
"392 1177 LINE",
"392 1456 LINE",
"149 1456 LINE",
"149 0 LINE",
"392 0 LINE",
"392 300 LINE",
"637 300 LINE SMOOTH"
);
},
{
closed = 1;
nodes = (
"830 982 OFFCURVE",
"908 861 OFFCURVE",
"908 736 CURVE SMOOTH",
"908 613 OFFCURVE",
"830 495 OFFCURVE",
"637 495 CURVE SMOOTH",
"392 495 LINE",
"392 982 LINE",
"637 982 LINE SMOOTH"
);
}
);
width = 1227;
}
);
note = Thorn;
unicode = 00DE;
},
{
glyphname = germandbls;
lastChange = "2017-04-17 14:58:29 +0000";
layers = (
{
layerId = "D68CFE38-7B02-4705-B0C1-3A2279678377";
paths = (
{
closed = 1;
nodes = (
"380 1280 OFFCURVE",
"443 1363 OFFCURVE",
"567 1363 CURVE SMOOTH",
"667 1363 OFFCURVE",
"739 1301 OFFCURVE",
"739 1186 CURVE SMOOTH",
"739 1135 OFFCURVE",
"729 1093 OFFCURVE",
"708 1060 CURVE SMOOTH",
"666 992 OFFCURVE",
"613 931 OFFCURVE",
"613 820 CURVE SMOOTH",
"613 687 OFFCURVE",
"690 605 OFFCURVE",
"775 540 CURVE SMOOTH",
"860 475 OFFCURVE",
"937 416 OFFCURVE",
"937 328 CURVE SMOOTH",
"937 239 OFFCURVE",
"880 175 OFFCURVE",
"751 175 CURVE SMOOTH",
"658 175 OFFCURVE",
"568 214 OFFCURVE",
"525 239 CURVE",
"476 44 LINE",
"528 9 OFFCURVE",
"658 -20 OFFCURVE",
"765 -20 CURVE SMOOTH",
"1021 -20 OFFCURVE",
"1180 101 OFFCURVE",
"1180 336 CURVE SMOOTH",
"1180 463 OFFCURVE",
"1105 547 OFFCURVE",
"1018 616 CURVE SMOOTH",
"931 685 OFFCURVE",
"855 745 OFFCURVE",
"855 825 CURVE SMOOTH",
"855 872 OFFCURVE",
"865 911 OFFCURVE",
"885 942 CURVE SMOOTH",
"924 1002 OFFCURVE",
"974 1065 OFFCURVE",
"974 1202 CURVE SMOOTH",
"974 1443 OFFCURVE",
"800 1558 OFFCURVE",
"572 1558 CURVE SMOOTH",
"309 1558 OFFCURVE",
"136 1405 OFFCURVE",
"136 1106 CURVE SMOOTH",
"136 0 LINE",
"378 0 LINE",
"378 1113 LINE SMOOTH"
);
}
);
width = 1256;
}
);
note = germandbls;
unicode = 00DF;
},
{
glyphname = ae;
lastChange = "2017-04-17 14:58:29 +0000";
layers = (
{
layerId = "D68CFE38-7B02-4705-B0C1-3A2279678377";
paths = (
{
closed = 1;
nodes = (
"1503 225 OFFCURVE",
"1420 174 OFFCURVE",
"1269 174 CURVE SMOOTH",
"1074 174 OFFCURVE",
"985 303 OFFCURVE",
"973 471 CURVE",
"1669 471 LINE",
"1669 612 LINE SMOOTH",
"1669 763 OFFCURVE",
"1630 882 OFFCURVE",
"1552 970 CURVE SMOOTH",
"1396 1146 OFFCURVE",
"1061 1147 OFFCURVE",
"888 970 CURVE",
"815 1058 OFFCURVE",
"704 1102 OFFCURVE",
"553 1102 CURVE SMOOTH",
"282 1102 OFFCURVE",
"103 963 OFFCURVE",
"103 771 CURVE",
"345 752 LINE",
"345 836 OFFCURVE",
"425 907 OFFCURVE",
"552 907 CURVE SMOOTH",
"669 907 OFFCURVE",
"734 833 OFFCURVE",
"734 713 CURVE SMOOTH",
"734 643 LINE",
"544 643 LINE SMOOTH",
"235 643 OFFCURVE",
"72 523 OFFCURVE",
"72 312 CURVE SMOOTH",
"72 109 OFFCURVE",
"205 -21 OFFCURVE",
"448 -21 CURVE SMOOTH",
"656 -21 OFFCURVE",
"791 58 OFFCURVE",
"862 141 CURVE",
"956 33 OFFCURVE",
"1087 -21 OFFCURVE",
"1255 -21 CURVE SMOOTH",
"1456 -21 OFFCURVE",
"1593 57 OFFCURVE",
"1646 100 CURVE",
"1574 266 LINE"
);
},
{
closed = 1;
nodes = (
"1370 907 OFFCURVE",
"1428 804 OFFCURVE",
"1428 672 CURVE SMOOTH",
"1428 643 LINE",
"977 643 LINE",
"997 796 OFFCURVE",
"1076 907 OFFCURVE",
"1219 907 CURVE SMOOTH"
);
},
{
closed = 1;
nodes = (
"372 165 OFFCURVE",
"315 225 OFFCURVE",
"315 308 CURVE SMOOTH",
"315 396 OFFCURVE",
"394 476 OFFCURVE",
"546 476 CURVE SMOOTH",
"734 476 LINE",
"734 266 LINE",
"677 213 OFFCURVE",
"580 165 OFFCURVE",
"496 165 CURVE SMOOTH"
);
}
);
width = 1729;
}
);
note = ae;
unicode = 00E6;
},
{
glyphname = eth;
lastChange = "2017-04-17 14:58:29 +0000";
layers = (
{
layerId = "D68CFE38-7B02-4705-B0C1-3A2279678377";
paths = (
{
closed = 1;
nodes = (
"1089 913 OFFCURVE",
"994 1140 OFFCURVE",
"835 1304 CURVE",
"988 1406 LINE",
"911 1515 LINE",
"731 1396 LINE",
"612 1486 OFFCURVE",
"474 1547 OFFCURVE",
"315 1580 CURVE",
"240 1385 LINE",
"349 1358 OFFCURVE",
"446 1317 OFFCURVE",
"529 1262 CURVE",
"356 1147 LINE",
"434 1038 LINE",
"639 1174 LINE",
"721 1095 OFFCURVE",
"779 998 OFFCURVE",
"814 883 CURVE",
"739 943 OFFCURVE",
"653 973 OFFCURVE",
"555 973 CURVE SMOOTH",
"284 973 OFFCURVE",
"104 772 OFFCURVE",
"104 468 CURVE SMOOTH",
"104 196 OFFCURVE",
"304 -20 OFFCURVE",
"593 -20 CURVE SMOOTH",
"880 -20 OFFCURVE",
"1089 214 OFFCURVE",
"1089 555 CURVE SMOOTH",
"1089 642 LINE SMOOTH"
);
},
{
closed = 1;
nodes = (
"346 664 OFFCURVE",
"442 785 OFFCURVE",
"611 785 CURVE SMOOTH",
"731 785 OFFCURVE",
"809 736 OFFCURVE",
"845 680 CURVE",
"846 644 LINE",
"846 541 LINE SMOOTH",
"846 332 OFFCURVE",
"756 175 OFFCURVE",
"597 175 CURVE SMOOTH",
"437 175 OFFCURVE",
"346 319 OFFCURVE",
"346 468 CURVE SMOOTH"
);
}
);
width = 1191;
}
);
note = eth;
unicode = 00F0;
},
{
glyphname = divide;
lastChange = "2017-04-17 14:58:29 +0000";
layers = (
{
layerId = "D68CFE38-7B02-4705-B0C1-3A2279678377";
paths = (
{
closed = 1;
nodes = (
"435 1020 OFFCURVE",
"488 964 OFFCURVE",
"577 964 CURVE SMOOTH",
"666 964 OFFCURVE",
"719 1020 OFFCURVE",
"719 1095 CURVE SMOOTH",
"719 1172 OFFCURVE",
"666 1229 OFFCURVE",
"577 1229 CURVE SMOOTH",
"488 1229 OFFCURVE",
"435 1172 OFFCURVE",
"435 1095 CURVE SMOOTH"
);
},
{
closed = 1;
nodes = (
"68 583 LINE",
"1080 583 LINE",
"1080 795 LINE",
"68 795 LINE"
);
},
{
closed = 1;
nodes = (
"435 204 OFFCURVE",
"488 147 OFFCURVE",
"577 147 CURVE SMOOTH",
"666 147 OFFCURVE",
"719 204 OFFCURVE",
"719 279 CURVE SMOOTH",
"719 355 OFFCURVE",
"666 412 OFFCURVE",
"577 412 CURVE SMOOTH",
"488 412 OFFCURVE",
"435 355 OFFCURVE",
"435 279 CURVE SMOOTH"
);
}
);
width = 1170;
}
);
note = divide;
unicode = 00F7;
},
{
glyphname = oslash;
lastChange = "2017-04-17 14:58:29 +0000";
layers = (
{
layerId = "D68CFE38-7B02-4705-B0C1-3A2279678377";
paths = (
{
closed = 1;
nodes = (
"900 -20 OFFCURVE",
"1086 215 OFFCURVE",
"1086 530 CURVE SMOOTH",
"1086 563 LINE",
"1083 758 OFFCURVE",
"1018 906 OFFCURVE",
"889 1005 CURVE",
"991 1212 LINE",
"847 1212 LINE",
"776 1068 LINE",
"717 1091 OFFCURVE",
"652 1102 OFFCURVE",
"582 1102 CURVE SMOOTH",
"267 1102 OFFCURVE",
"80 864 OFFCURVE",
"80 551 CURVE SMOOTH",
"80 521 LINE SMOOTH",
"82 319 OFFCURVE",
"151 169 OFFCURVE",
"286 70 CURVE",
"184 -138 LINE",
"328 -138 LINE",
"401 10 LINE",
"457 -10 OFFCURVE",
"518 -20 OFFCURVE",
"584 -20 CURVE SMOOTH"
);
},
{
closed = 1;
nodes = (
"322 742 OFFCURVE",
"402 907 OFFCURVE",
"582 907 CURVE SMOOTH",
"621 907 OFFCURVE",
"655 900 OFFCURVE",
"686 885 CURVE",
"387 276 LINE",
"344 339 OFFCURVE",
"322 423 OFFCURVE",
"322 530 CURVE SMOOTH",
"322 551 LINE SMOOTH"
);
},
{
closed = 1;
nodes = (
"843 335 OFFCURVE",
"763 175 OFFCURVE",
"584 175 CURVE SMOOTH",
"550 175 OFFCURVE",
"519 181 OFFCURVE",
"490 192 CURVE",
"785 793 LINE",
"824 730 OFFCURVE",
"843 650 OFFCURVE",
"843 551 CURVE SMOOTH",
"843 530 LINE SMOOTH"
);
}
);
width = 1161;
}
);
note = oslash;
unicode = 00F8;
},
{
glyphname = thorn;
lastChange = "2017-04-17 14:58:29 +0000";
layers = (
{
layerId = "D68CFE38-7B02-4705-B0C1-3A2279678377";
paths = (
{
closed = 1;
nodes = (
"929 -20 OFFCURVE",
"1079 215 OFFCURVE",
"1079 530 CURVE SMOOTH",
"1079 550 LINE SMOOTH",
"1079 881 OFFCURVE",
"931 1102 OFFCURVE",
"656 1102 CURVE SMOOTH",
"539 1102 OFFCURVE",
"445 1063 OFFCURVE",
"374 984 CURVE",
"374 1536 LINE",
"131 1536 LINE",
"131 -416 LINE",
"374 -416 LINE",
"374 96 LINE",
"446 19 OFFCURVE",
"541 -20 OFFCURVE",
"658 -20 CURVE SMOOTH"
);
},
{
closed = 1;
nodes = (
"763 904 OFFCURVE",
"836 746 OFFCURVE",
"836 551 CURVE SMOOTH",
"836 531 LINE SMOOTH",
"836 338 OFFCURVE",
"763 175 OFFCURVE",
"590 175 CURVE SMOOTH",
"491 175 OFFCURVE",
"419 217 OFFCURVE",
"374 300 CURVE",
"374 781 LINE",
"417 863 OFFCURVE",
"489 904 OFFCURVE",
"588 904 CURVE SMOOTH"
);
}
);
width = 1175;
}
);
note = thorn;
rightKerningGroup = b;
unicode = 00FE;
},
{
glyphname = dcroat;
lastChange = "2017-04-17 14:58:29 +0000";
layers = (
{
layerId = "D68CFE38-7B02-4705-B0C1-3A2279678377";
paths = (
{
closed = 1;
nodes = (
"1028 1224 LINE",
"1203 1224 LINE",
"1203 1395 LINE",
"1028 1395 LINE",
"1028 1536 LINE",
"785 1536 LINE",
"785 1395 LINE",
"533 1395 LINE",
"533 1224 LINE",
"785 1224 LINE",
"785 983 LINE",
"714 1062 OFFCURVE",
"622 1102 OFFCURVE",
"507 1102 CURVE SMOOTH",
"243 1102 OFFCURVE",
"80 879 OFFCURVE",
"80 550 CURVE SMOOTH",
"80 529 LINE SMOOTH",
"80 214 OFFCURVE",
"245 -20 OFFCURVE",
"505 -20 CURVE SMOOTH",
"627 -20 OFFCURVE",
"724 24 OFFCURVE",
"796 112 CURVE",
"807 0 LINE",
"1028 0 LINE"
);
},
{
closed = 1;
nodes = (
"322 745 OFFCURVE",
"393 904 OFFCURVE",
"569 904 CURVE SMOOTH",
"668 904 OFFCURVE",
"740 861 OFFCURVE",
"785 774 CURVE",
"785 313 LINE",
"739 224 OFFCURVE",
"666 179 OFFCURVE",
"567 179 CURVE SMOOTH",
"392 179 OFFCURVE",
"322 336 OFFCURVE",
"322 529 CURVE SMOOTH",
"322 550 LINE SMOOTH"
);
}
);
width = 1262;
}
);
note = dcroat;
unicode = 0111;
},
{
glyphname = Hbar;
lastChange = "2017-04-17 14:58:29 +0000";
layers = (
{
layerId = "D68CFE38-7B02-4705-B0C1-3A2279678377";
paths = (
{
closed = 1;
nodes = (
"1311 1037 LINE",
"1438 1037 LINE",
"1438 1198 LINE",
"1311 1198 LINE",
"1311 1456 LINE",
"1059 1456 LINE",
"1059 1198 LINE",
"408 1198 LINE",
"408 1456 LINE",
"155 1456 LINE",
"155 1198 LINE",
"32 1198 LINE",
"32 1037 LINE",
"155 1037 LINE",
"155 0 LINE",
"408 0 LINE",
"408 648 LINE",
"1059 648 LINE",
"1059 0 LINE",
"1311 0 LINE"
);
},
{
closed = 1;
nodes = (
"1059 1037 LINE",
"1059 850 LINE",
"408 850 LINE",
"408 1037 LINE"
);
}
);
width = 1456;
}
);
note = Hbar;
unicode = 0126;
},
{
glyphname = dotlessi;
lastChange = "2017-04-17 14:58:29 +0000";
layers = (
{
layerId = "D68CFE38-7B02-4705-B0C1-3A2279678377";
paths = (
{
closed = 1;
nodes = (
"144 0 LINE",
"387 0 LINE",
"387 1082 LINE",
"144 1082 LINE"
);
}
);
width = 539;
}
);
note = dotlessi;
unicode = 0131;
},
{
glyphname = kgreenlandic;
lastChange = "2017-04-17 14:58:29 +0000";
layers = (
{
layerId = "D68CFE38-7B02-4705-B0C1-3A2279678377";
paths = (
{
closed = 1;
nodes = (
"691 558 LINE",
"1106 1082 LINE",
"805 1082 LINE",
"469 651 LINE",
"385 651 LINE",
"385 1082 LINE",
"142 1082 LINE",
"142 0 LINE",
"385 0 LINE",
"385 429 LINE",
"494 429 LINE",
"822 0 LINE",
"1131 0 LINE"
);
}
);
width = 1176;
}
);
note = kgreenlandic;
unicode = 0138;
},
{
glyphname = Lslash;
lastChange = "2017-04-17 14:58:29 +0000";
layers = (
{
layerId = "D68CFE38-7B02-4705-B0C1-3A2279678377";
paths = (
{
closed = 1;
nodes = (
"417 725 LINE",
"652 796 LINE",
"652 943 LINE",
"417 872 LINE",
"417 1456 LINE",
"165 1456 LINE",
"165 796 LINE",
"34 756 LINE",
"34 609 LINE",
"165 649 LINE",
"165 0 LINE",
"1078 0 LINE",
"1078 202 LINE",
"417 202 LINE"
);
}
);
width = 1124;
}
);
note = Lslash;
unicode = 0141;
},
{
glyphname = lslash;
lastChange = "2017-04-17 14:58:29 +0000";
layers = (
{
layerId = "D68CFE38-7B02-4705-B0C1-3A2279678377";
paths = (
{
closed = 1;
nodes = (
"411 890 LINE",
"411 1536 LINE",
"168 1536 LINE",
"168 804 LINE",
"34 756 LINE",
"34 610 LINE",
"168 658 LINE",
"168 0 LINE",
"411 0 LINE",
"411 744 LINE",
"559 797 LINE",
"559 943 LINE"
);
}
);
width = 591;
}
);
note = lslash;
unicode = 0142;
},
{
glyphname = Eng;
lastChange = "2017-04-17 14:58:29 +0000";
layers = (
{
layerId = "D68CFE38-7B02-4705-B0C1-3A2279678377";
paths = (
{
closed = 1;
nodes = (
"396 1047 LINE",
"1036 0 LINE",
"1036 -65 LINE SMOOTH",
"1034 -178 OFFCURVE",
"993 -234 OFFCURVE",
"913 -234 CURVE SMOOTH",
"875 -234 OFFCURVE",
"842 -230 OFFCURVE",
"814 -221 CURVE",
"800 -420 LINE",
"840 -431 OFFCURVE",
"883 -437 OFFCURVE",
"930 -437 CURVE SMOOTH",
"1154 -437 OFFCURVE",
"1289 -304 OFFCURVE",
"1289 -57 CURVE SMOOTH",
"1289 1456 LINE",
"1036 1456 LINE",
"1036 412 LINE",
"396 1456 LINE",
"144 1456 LINE",
"144 0 LINE",
"396 0 LINE"
);
}
);
width = 1428;
}
);
note = Eng;
unicode = 014A;
},
{
glyphname = eng;
lastChange = "2017-04-17 14:58:29 +0000";
layers = (
{
layerId = "D68CFE38-7B02-4705-B0C1-3A2279678377";
paths = (
{
closed = 1;
nodes = (
"1029 982 OFFCURVE",
"888 1102 OFFCURVE",
"673 1102 CURVE SMOOTH",
"541 1102 OFFCURVE",
"437 1045 OFFCURVE",
"362 932 CURVE",
"349 1082 LINE",
"127 1082 LINE",
"127 0 LINE",
"369 0 LINE",
"369 800 LINE",
"418 869 OFFCURVE",
"492 904 OFFCURVE",
"590 904 CURVE SMOOTH",
"718 904 OFFCURVE",
"787 845 OFFCURVE",
"787 672 CURVE SMOOTH",
"787 -66 LINE SMOOTH",
"786 -179 OFFCURVE",
"745 -235 OFFCURVE",
"664 -235 CURVE SMOOTH",
"623 -235 OFFCURVE",
"590 -231 OFFCURVE",
"565 -223 CURVE",
"551 -420 LINE",
"590 -431 OFFCURVE",
"632 -437 OFFCURVE",
"678 -437 CURVE SMOOTH",
"898 -437 OFFCURVE",
"1030 -304 OFFCURVE",
"1030 -63 CURVE SMOOTH",
"1030 679 LINE"
);
}
);
width = 1161;
}
);
note = eng;
unicode = 014B;
},
{
glyphname = OE;
lastChange = "2017-04-17 14:58:29 +0000";
layers = (
{
layerId = "D68CFE38-7B02-4705-B0C1-3A2279678377";
paths = (
{
closed = 1;
nodes = (
"1138 651 LINE",
"1736 651 LINE",
"1736 850 LINE",
"1138 850 LINE",
"1138 1253 LINE",
"1831 1253 LINE",
"1831 1456 LINE",
"971 1456 LINE",
"854 1470 OFFCURVE",
"757 1477 OFFCURVE",
"681 1477 CURVE SMOOTH",
"336 1477 OFFCURVE",
"101 1233 OFFCURVE",
"101 880 CURVE SMOOTH",
"101 576 LINE SMOOTH",
"101 223 OFFCURVE",
"338 -21 OFFCURVE",
"683 -21 CURVE SMOOTH",
"758 -21 OFFCURVE",
"854 -14 OFFCURVE",
"971 0 CURVE",
"1837 0 LINE",
"1837 202 LINE",
"1138 202 LINE"
);
},
{
closed = 1;
nodes = (
"343 1147 OFFCURVE",
"473 1282 OFFCURVE",
"681 1282 CURVE SMOOTH",
"743 1282 OFFCURVE",
"811 1277 OFFCURVE",
"886 1268 CURVE",
"886 188 LINE",
"811 179 OFFCURVE",
"744 174 OFFCURVE",
"683 174 CURVE SMOOTH",
"475 174 OFFCURVE",
"343 309 OFFCURVE",
"343 576 CURVE SMOOTH",
"343 882 LINE SMOOTH"
);
}
);
width = 1972;
}
);
leftKerningGroup = C;
note = OE;
unicode = 0152;
},
{
glyphname = oe;
lastChange = "2017-04-17 14:58:29 +0000";
layers = (
{
layerId = "D68CFE38-7B02-4705-B0C1-3A2279678377";
paths = (
{
closed = 1;
nodes = (
"1600 216 OFFCURVE",
"1513 174 OFFCURVE",
"1370 174 CURVE SMOOTH",
"1199 174 OFFCURVE",
"1110 306 OFFCURVE",
"1097 471 CURVE",
"1779 471 LINE",
"1779 615 LINE SMOOTH",
"1779 904 OFFCURVE",
"1628 1102 OFFCURVE",
"1327 1102 CURVE SMOOTH",
"1182 1103 OFFCURVE",
"1054 1037 OFFCURVE",
"969 926 CURVE",
"885 1035 OFFCURVE",
"754 1102 OFFCURVE",
"586 1102 CURVE SMOOTH",
"271 1102 OFFCURVE",
"91 864 OFFCURVE",
"91 551 CURVE SMOOTH",
"91 530 LINE SMOOTH",
"91 215 OFFCURVE",
"272 -21 OFFCURVE",
"588 -21 CURVE SMOOTH",
"755 -21 OFFCURVE",
"884 45 OFFCURVE",
"968 154 CURVE",
"1056 45 OFFCURVE",
"1188 -21 OFFCURVE",
"1356 -21 CURVE SMOOTH",
"1549 -21 OFFCURVE",
"1681 47 OFFCURVE",
"1752 108 CURVE",
"1673 267 LINE"
);
},
{
closed = 1;
nodes = (
"1476 907 OFFCURVE",
"1538 802 OFFCURVE",
"1538 675 CURVE SMOOTH",
"1538 649 LINE",
"1102 649 LINE",
"1125 797 OFFCURVE",
"1204 907 OFFCURVE",
"1327 907 CURVE SMOOTH"
);
},
{
closed = 1;
nodes = (
"334 742 OFFCURVE",
"406 907 OFFCURVE",
"586 907 CURVE SMOOTH",
"767 907 OFFCURVE",
"841 742 OFFCURVE",
"841 551 CURVE SMOOTH",
"841 531 LINE SMOOTH",
"841 335 OFFCURVE",
"768 174 OFFCURVE",
"588 174 CURVE SMOOTH",
"407 174 OFFCURVE",
"334 335 OFFCURVE",
"334 530 CURVE SMOOTH",
"334 551 LINE SMOOTH"
);
}
);
width = 1851;
}
);
leftKerningGroup = c;
note = oe;
unicode = 0153;
},
{
glyphname = longs;
lastChange = "2017-04-17 14:58:29 +0000";
layers = (
{
layerId = "D68CFE38-7B02-4705-B0C1-3A2279678377";
paths = (
{
closed = 1;
nodes = (
"382 1303 OFFCURVE",
"436 1362 OFFCURVE",
"545 1362 CURVE SMOOTH",
"578 1362 OFFCURVE",
"609 1358 OFFCURVE",
"637 1351 CURVE",
"662 1536 LINE",
"601 1550 OFFCURVE",
"551 1557 OFFCURVE",
"510 1557 CURVE SMOOTH",
"278 1557 OFFCURVE",
"139 1426 OFFCURVE",
"139 1185 CURVE SMOOTH",
"139 0 LINE",
"382 0 LINE",
"382 1185 LINE SMOOTH"
);
}
);
width = 525;
}
);
note = longs;
unicode = 017F;
},
{
glyphname = uni0181;
lastChange = "2017-04-17 14:58:29 +0000";
layers = (
{
layerId = "D68CFE38-7B02-4705-B0C1-3A2279678377";
paths = (
{
closed = 1;
nodes = (
"34 1083 OFFCURVE",
"40 1040 OFFCURVE",
"51 1002 CURVE",
"249 1002 LINE",
"243 1027 OFFCURVE",
"240 1052 OFFCURVE",
"240 1077 CURVE SMOOTH",
"240 1178 OFFCURVE",
"282 1252 OFFCURVE",
"403 1253 CURVE",
"403 0 LINE",
"937 0 LINE SMOOTH",
"1250 0 OFFCURVE",
"1441 146 OFFCURVE",
"1441 425 CURVE SMOOTH",
"1441 577 OFFCURVE",
"1363 715 OFFCURVE",
"1196 759 CURVE",
"1333 816 OFFCURVE",
"1407 930 OFFCURVE",
"1407 1062 CURVE SMOOTH",
"1407 1334 OFFCURVE",
"1218 1456 OFFCURVE",
"901 1456 CURVE SMOOTH",
"403 1456 LINE",
"403 1456 LINE SMOOTH",
"166 1456 OFFCURVE",
"34 1343 OFFCURVE",
"34 1132 CURVE SMOOTH"
);
},
{
closed = 1;
nodes = (
"1074 1250 OFFCURVE",
"1155 1181 OFFCURVE",
"1155 1048 CURVE SMOOTH",
"1155 919 OFFCURVE",
"1061 844 OFFCURVE",
"904 844 CURVE SMOOTH",
"656 844 LINE",
"656 1253 LINE",
"913 1253 LINE SMOOTH"
);
},
{
closed = 1;
nodes = (
"1189 293 OFFCURVE",
"1104 202 OFFCURVE",
"937 202 CURVE SMOOTH",
"656 202 LINE",
"656 657 LINE",
"962 657 LINE SMOOTH",
"1113 652 OFFCURVE",
"1189 575 OFFCURVE",
"1189 426 CURVE SMOOTH"
);
}
);
width = 1546;
}
);
note = uni0181;
unicode = 0181;
},
{
glyphname = uni0183;
lastChange = "2017-04-17 14:58:29 +0000";
layers = (
{
layerId = "D68CFE38-7B02-4705-B0C1-3A2279678377";
paths = (
{
closed = 1;
nodes = (
"356 118 LINE",
"428 26 OFFCURVE",
"527 -20 OFFCURVE",
"653 -20 CURVE SMOOTH",
"928 -20 OFFCURVE",
"1074 211 OFFCURVE",
"1074 530 CURVE SMOOTH",
"1074 551 LINE SMOOTH",
"1074 876 OFFCURVE",
"930 1102 OFFCURVE",
"651 1102 CURVE SMOOTH",
"532 1102 OFFCURVE",
"438 1061 OFFCURVE",
"367 978 CURVE",
"367 1365 LINE",
"859 1365 LINE",
"859 1536 LINE",
"125 1536 LINE",
"125 0 LINE",
"345 0 LINE"
);
},
{
closed = 1;
nodes = (
"774 904 OFFCURVE",
"832 742 OFFCURVE",
"832 551 CURVE SMOOTH",
"832 324 OFFCURVE",
"771 179 OFFCURVE",
"591 179 CURVE SMOOTH",
"487 179 OFFCURVE",
"412 226 OFFCURVE",
"367 320 CURVE",
"367 764 LINE",
"412 857 OFFCURVE",
"486 904 OFFCURVE",
"589 904 CURVE SMOOTH"
);
}
);
width = 1153;
}
);
note = uni0183;
rightKerningGroup = b;
unicode = 0183;
},
{
glyphname = uni0184;
lastChange = "2017-04-17 14:58:29 +0000";
layers = (
{
layerId = "D68CFE38-7B02-4705-B0C1-3A2279678377";
paths = (
{
closed = 1;
nodes = (
"1331 722 OFFCURVE",
"1139 898 OFFCURVE",
"811 899 CURVE SMOOTH",
"511 899 LINE",
"511 1456 LINE",
"258 1456 LINE",
"85 1265 LINE",
"85 1157 LINE",
"258 967 LINE",
"258 0 LINE",
"807 0 LINE SMOOTH",
"1138 0 OFFCURVE",
"1331 187 OFFCURVE",
"1331 454 CURVE SMOOTH"
);
},
{
closed = 1;
nodes = (
"807 696 LINE SMOOTH",
"995 696 OFFCURVE",
"1078 589 OFFCURVE",
"1078 456 CURVE SMOOTH",
"1078 321 OFFCURVE",
"995 202 OFFCURVE",
"807 202 CURVE SMOOTH",
"511 202 LINE",
"511 696 LINE"
);
}
);
width = 1400;
}
);
note = uni0184;
unicode = 0184;
},
{
glyphname = uni0185;
lastChange = "2017-04-17 14:58:29 +0000";
layers = (
{
layerId = "D68CFE38-7B02-4705-B0C1-3A2279678377";
paths = (
{
closed = 1;
nodes = (
"1201 879 OFFCURVE",
"1055 1102 OFFCURVE",
"778 1102 CURVE SMOOTH",
"660 1102 OFFCURVE",
"566 1061 OFFCURVE",
"495 979 CURVE",
"495 1536 LINE",
"252 1536 LINE",
"79 1345 LINE",
"79 1237 LINE",
"252 1047 LINE",
"252 0 LINE",
"472 0 LINE",
"484 117 LINE",
"556 26 OFFCURVE",
"655 -20 OFFCURVE",
"780 -20 CURVE SMOOTH",
"1055 -20 OFFCURVE",
"1202 211 OFFCURVE",
"1202 530 CURVE SMOOTH",
"1202 555 LINE"
);
},
{
closed = 1;
nodes = (
"902 904 OFFCURVE",
"959 742 OFFCURVE",
"959 551 CURVE SMOOTH",
"959 324 OFFCURVE",
"898 179 OFFCURVE",
"719 179 CURVE SMOOTH",
"614 179 OFFCURVE",
"540 226 OFFCURVE",
"495 320 CURVE",
"495 765 LINE",
"539 858 OFFCURVE",
"613 904 OFFCURVE",
"717 904 CURVE SMOOTH"
);
}
);
width = 1280;
}
);
note = uni0185;
rightKerningGroup = b;
unicode = 0185;
},
{
glyphname = uni0186;
lastChange = "2017-04-17 14:58:29 +0000";
layers = (
{
layerId = "D68CFE38-7B02-4705-B0C1-3A2279678377";
paths = (
{
closed = 1;
nodes = (
"106 190 OFFCURVE",
"288 -20 OFFCURVE",
"637 -20 CURVE SMOOTH",
"1004 -20 OFFCURVE",
"1235 250 OFFCURVE",
"1235 670 CURVE SMOOTH",
"1235 803 LINE",
"1230 1212 OFFCURVE",
"1003 1476 OFFCURVE",
"648 1476 CURVE SMOOTH",
"291 1476 OFFCURVE",
"105 1265 OFFCURVE",
"78 982 CURVE",
"330 982 LINE",
"354 1169 OFFCURVE",
"431 1272 OFFCURVE",
"648 1272 CURVE SMOOTH",
"884 1272 OFFCURVE",
"981 1079 OFFCURVE",
"981 788 CURVE SMOOTH",
"981 663 LINE SMOOTH",
"980 359 OFFCURVE",
"865 184 OFFCURVE",
"637 184 CURVE SMOOTH",
"428 184 OFFCURVE",
"352 296 OFFCURVE",
"329 481 CURVE",
"77 481 LINE"
);
}
);
width = 1337;
}
);
note = uni0186;
rightKerningGroup = D;
unicode = 0186;
},
{
glyphname = uni0187;
lastChange = "2017-04-17 14:58:29 +0000";
layers = (
{
layerId = "D68CFE38-7B02-4705-B0C1-3A2279678377";
paths = (
{
closed = 1;
nodes = (
"1472 1330 OFFCURVE",
"1497 1327 OFFCURVE",
"1519 1322 CURVE",
"1519 1523 LINE",
"1478 1534 OFFCURVE",
"1434 1540 OFFCURVE",
"1389 1540 CURVE SMOOTH",
"1236 1540 OFFCURVE",
"1135 1476 OFFCURVE",
"1086 1347 CURVE",
"990 1433 OFFCURVE",
"862 1476 OFFCURVE",
"701 1476 CURVE SMOOTH",
"334 1476 OFFCURVE",
"102 1206 OFFCURVE",
"102 787 CURVE SMOOTH",
"102 669 LINE SMOOTH",
"102 249 OFFCURVE",
"330 -20 OFFCURVE",
"689 -20 CURVE SMOOTH",
"1046 -20 OFFCURVE",
"1234 191 OFFCURVE",
"1259 474 CURVE",
"1007 474 LINE",
"983 287 OFFCURVE",
"906 184 OFFCURVE",
"689 184 CURVE SMOOTH",
"453 184 OFFCURVE",
"357 378 OFFCURVE",
"357 669 CURVE SMOOTH",
"357 794 LINE SMOOTH",
"358 1097 OFFCURVE",
"472 1272 OFFCURVE",
"701 1272 CURVE SMOOTH",
"909 1272 OFFCURVE",
"987 1160 OFFCURVE",
"1008 975 CURVE",
"1260 975 LINE",
"1260 1166 LINE SMOOTH",
"1260 1299 OFFCURVE",
"1343 1330 OFFCURVE",
"1444 1330 CURVE SMOOTH"
);
}
);
width = 1465;
}
);
leftKerningGroup = C;
note = uni0187;
unicode = 0187;
},
{
glyphname = uni0188;
lastChange = "2017-04-17 14:58:29 +0000";
layers = (
{
layerId = "D68CFE38-7B02-4705-B0C1-3A2279678377";
paths = (
{
closed = 1;
nodes = (
"1194 1006 OFFCURVE",
"1216 1004 OFFCURVE",
"1235 999 CURVE",
"1235 1162 LINE",
"1201 1172 OFFCURVE",
"1164 1177 OFFCURVE",
"1124 1177 CURVE SMOOTH",
"992 1177 OFFCURVE",
"907 1120 OFFCURVE",
"868 1006 CURVE",
"789 1070 OFFCURVE",
"691 1102 OFFCURVE",
"572 1102 CURVE SMOOTH",
"240 1102 OFFCURVE",
"80 855 OFFCURVE",
"80 559 CURVE SMOOTH",
"80 523 LINE SMOOTH",
"80 226 OFFCURVE",
"239 -20 OFFCURVE",
"572 -20 CURVE SMOOTH",
"813 -20 OFFCURVE",
"1006 149 OFFCURVE",
"1013 358 CURVE",
"785 358 LINE",
"778 251 OFFCURVE",
"687 175 OFFCURVE",
"570 175 CURVE SMOOTH",
"370 175 OFFCURVE",
"322 348 OFFCURVE",
"322 523 CURVE SMOOTH",
"322 559 LINE SMOOTH",
"322 731 OFFCURVE",
"372 907 OFFCURVE",
"569 907 CURVE SMOOTH",
"701 907 OFFCURVE",
"778 811 OFFCURVE",
"785 695 CURVE",
"1013 695 LINE",
"1013 858 LINE SMOOTH",
"1013 973 OFFCURVE",
"1084 1006 OFFCURVE",
"1171 1006 CURVE SMOOTH"
);
}
);
width = 1223;
}
);
leftKerningGroup = c;
note = uni0188;
unicode = 0188;
},
{
glyphname = uni018A;
lastChange = "2017-04-17 14:58:29 +0000";
layers = (
{
layerId = "D68CFE38-7B02-4705-B0C1-3A2279678377";
paths = (
{
closed = 1;
nodes = (
"34 1083 OFFCURVE",
"40 1040 OFFCURVE",
"51 1002 CURVE",
"249 1002 LINE",
"243 1027 OFFCURVE",
"240 1052 OFFCURVE",
"240 1077 CURVE SMOOTH",
"240 1180 OFFCURVE",
"281 1252 OFFCURVE",
"404 1253 CURVE",
"404 0 LINE",
"822 0 LINE SMOOTH",
"1225 0 OFFCURVE",
"1489 271 OFFCURVE",
"1489 691 CURVE SMOOTH",
"1489 764 LINE SMOOTH",
"1489 1184 OFFCURVE",
"1224 1456 OFFCURVE",
"833 1456 CURVE SMOOTH",
"404 1456 LINE",
"404 1456 LINE SMOOTH",
"157 1456 OFFCURVE",
"34 1348 OFFCURVE",
"34 1132 CURVE SMOOTH"
);
},
{
closed = 1;
nodes = (
"1094 1253 OFFCURVE",
"1236 1081 OFFCURVE",
"1236 766 CURVE SMOOTH",
"1236 683 LINE SMOOTH",
"1233 383 OFFCURVE",
"1094 202 OFFCURVE",
"822 202 CURVE SMOOTH",
"656 202 LINE",
"656 1253 LINE",
"833 1253 LINE SMOOTH"
);
}
);
width = 1593;
}
);
note = uni018A;
rightKerningGroup = D;
unicode = 018A;
},
{
glyphname = uni018B;
lastChange = "2017-04-17 14:58:29 +0000";
layers = (
{
layerId = "D68CFE38-7B02-4705-B0C1-3A2279678377";
paths = (
{
closed = 1;
nodes = (
"227 1456 LINE",
"227 1253 LINE",
"899 1253 LINE",
"899 899 LINE",
"602 899 LINE SMOOTH",
"271 899 OFFCURVE",
"78 723 OFFCURVE",
"78 454 CURVE SMOOTH",
"78 189 OFFCURVE",
"270 1 OFFCURVE",
"598 0 CURVE SMOOTH",
"1151 0 LINE",
"1151 1456 LINE"
);
},
{
closed = 1;
nodes = (
"414 202 OFFCURVE",
"331 321 OFFCURVE",
"331 456 CURVE SMOOTH",
"331 589 OFFCURVE",
"414 696 OFFCURVE",
"602 696 CURVE SMOOTH",
"899 696 LINE",
"899 202 LINE",
"602 202 LINE SMOOTH"
);
}
);
width = 1288;
}
);
note = uni018B;
rightKerningGroup = H;
unicode = 018B;
},
{
glyphname = uni018C;
lastChange = "2017-04-17 14:58:29 +0000";
layers = (
{
layerId = "D68CFE38-7B02-4705-B0C1-3A2279678377";
paths = (
{
closed = 1;
nodes = (
"785 983 LINE",
"714 1062 OFFCURVE",
"622 1102 OFFCURVE",
"507 1102 CURVE SMOOTH",
"243 1102 OFFCURVE",
"80 879 OFFCURVE",
"80 550 CURVE SMOOTH",
"80 529 LINE SMOOTH",
"80 214 OFFCURVE",
"245 -20 OFFCURVE",
"505 -20 CURVE SMOOTH",
"627 -20 OFFCURVE",
"724 24 OFFCURVE",
"796 112 CURVE",
"807 0 LINE",
"1028 0 LINE",
"1028 1536 LINE",
"294 1536 LINE",
"294 1365 LINE",
"785 1365 LINE"
);
},
{
closed = 1;
nodes = (
"322 745 OFFCURVE",
"393 904 OFFCURVE",
"569 904 CURVE SMOOTH",
"668 904 OFFCURVE",
"740 861 OFFCURVE",
"785 774 CURVE",
"785 313 LINE",
"739 224 OFFCURVE",
"666 179 OFFCURVE",
"567 179 CURVE SMOOTH",
"392 179 OFFCURVE",
"322 336 OFFCURVE",
"322 529 CURVE SMOOTH",
"322 550 LINE SMOOTH"
);
}
);
width = 1157;
}
);
note = uni018C;
unicode = 018C;
},
{
glyphname = uni018D;
lastChange = "2017-04-17 14:58:29 +0000";
layers = (
{
layerId = "D68CFE38-7B02-4705-B0C1-3A2279678377";
paths = (
{
closed = 1;
nodes = (
"901 -191 OFFCURVE",
"848 -138 OFFCURVE",
"785 -80 CURVE SMOOTH",
"614 75 LINE",
"647 77 LINE",
"908 113 OFFCURVE",
"1076 308 OFFCURVE",
"1076 563 CURVE SMOOTH",
"1076 584 LINE SMOOTH",
"1076 879 OFFCURVE",
"895 1101 OFFCURVE",
"579 1101 CURVE SMOOTH",
"263 1101 OFFCURVE",
"83 873 OFFCURVE",
"83 570 CURVE SMOOTH",
"83 549 LINE SMOOTH",
"83 324 OFFCURVE",
"233 151 OFFCURVE",
"437 -22 CURVE SMOOTH",
"529 -97 OFFCURVE",
"591 -150 OFFCURVE",
"624 -183 CURVE",
"196 -183 LINE",
"196 -376 LINE",
"944 -376 LINE",
"944 -239 LINE"
);
},
{
closed = 1;
nodes = (
"833 369 OFFCURVE",
"757 214 OFFCURVE",
"568 214 CURVE SMOOTH",
"538 214 OFFCURVE",
"513 217 OFFCURVE",
"494 222 CURVE",
"406 279 OFFCURVE",
"326 396 OFFCURVE",
"326 549 CURVE SMOOTH",
"326 570 LINE SMOOTH",
"326 754 OFFCURVE",
"399 906 OFFCURVE",
"579 906 CURVE SMOOTH",
"762 906 OFFCURVE",
"833 754 OFFCURVE",
"833 570 CURVE SMOOTH",
"833 549 LINE SMOOTH"
);
}
);
width = 1161;
}
);
note = uni018D;
unicode = 018D;
},
{
glyphname = uni018E;
lastChange = "2017-04-17 14:58:29 +0000";
layers = (
{
layerId = "D68CFE38-7B02-4705-B0C1-3A2279678377";
paths = (
{
closed = 1;
nodes = (
"757 805 LINE",
"159 805 LINE",
"159 606 LINE",
"757 606 LINE",
"757 203 LINE",
"65 203 LINE",
"65 0 LINE",
"1010 0 LINE",
"1010 1456 LINE",
"58 1456 LINE",
"58 1254 LINE",
"757 1254 LINE"
);
}
);
width = 1158;
}
);
note = uni018E;
rightKerningGroup = H;
unicode = 018E;
},
{
glyphname = uni018F;
lastChange = "2017-04-17 14:58:29 +0000";
layers = (
{
layerId = "D68CFE38-7B02-4705-B0C1-3A2279678377";
paths = (
{
closed = 1;
nodes = (
"1310 1189 OFFCURVE",
"1072 1476 OFFCURVE",
"633 1476 CURVE SMOOTH",
"522 1476 OFFCURVE",
"428 1465 OFFCURVE",
"353 1442 CURVE SMOOTH",
"277 1419 OFFCURVE",
"228 1402 OFFCURVE",
"207 1389 CURVE",
"256 1192 LINE",
"332 1221 OFFCURVE",
"451 1262 OFFCURVE",
"626 1262 CURVE SMOOTH",
"934 1262 OFFCURVE",
"1054 1055 OFFCURVE",
"1058 798 CURVE",
"81 798 LINE",
"81 656 LINE SMOOTH",
"81 243 OFFCURVE",
"291 -20 OFFCURVE",
"696 -20 CURVE SMOOTH",
"811 -20 OFFCURVE",
"914 9 OFFCURVE",
"1007 67 CURVE SMOOTH",
"1192 183 OFFCURVE",
"1310 396 OFFCURVE",
"1310 667 CURVE SMOOTH",
"1310 784 LINE SMOOTH"
);
},
{
closed = 1;
nodes = (
"427 193 OFFCURVE",
"334 360 OFFCURVE",
"334 569 CURVE SMOOTH",
"334 600 LINE",
"1055 600 LINE",
"1035 371 OFFCURVE",
"911 193 OFFCURVE",
"696 193 CURVE SMOOTH"
);
}
);
width = 1417;
}
);
note = uni018F;
rightKerningGroup = D;
unicode = 018F;
},
{
glyphname = uni0190;
lastChange = "2017-04-17 14:58:29 +0000";
layers = (
{
layerId = "D68CFE38-7B02-4705-B0C1-3A2279678377";
paths = (
{
closed = 1;
nodes = (
"433 842 OFFCURVE",
"361 930 OFFCURVE",
"361 1061 CURVE SMOOTH",
"361 1181 OFFCURVE",
"443 1273 OFFCURVE",
"638 1273 CURVE SMOOTH",
"785 1273 OFFCURVE",
"891 1194 OFFCURVE",
"891 1070 CURVE",
"1143 1070 LINE",
"1143 1322 OFFCURVE",
"911 1477 OFFCURVE",
"638 1477 CURVE SMOOTH",
"319 1477 OFFCURVE",
"108 1333 OFFCURVE",
"108 1061 CURVE SMOOTH",
"108 914 OFFCURVE",
"195 805 OFFCURVE",
"335 746 CURVE",
"169 687 OFFCURVE",
"86 574 OFFCURVE",
"86 408 CURVE SMOOTH",
"86 105 OFFCURVE",
"319 -21 OFFCURVE",
"638 -21 CURVE SMOOTH",
"723 -21 OFFCURVE",
"806 -6 OFFCURVE",
"887 23 CURVE SMOOTH",
"1048 82 OFFCURVE",
"1164 205 OFFCURVE",
"1164 404 CURVE",
"912 404 LINE",
"912 279 OFFCURVE",
"807 182 OFFCURVE",
"638 182 CURVE SMOOTH",
"457 182 OFFCURVE",
"339 252 OFFCURVE",
"339 408 CURVE SMOOTH",
"339 573 OFFCURVE",
"434 643 OFFCURVE",
"622 643 CURVE SMOOTH",
"792 643 LINE",
"792 842 LINE",
"622 842 LINE SMOOTH"
);
}
);
width = 1238;
}
);
note = uni0190;
unicode = 0190;
},
{
glyphname = uni0191;
lastChange = "2017-04-17 14:58:29 +0000";
layers = (
{
layerId = "D68CFE38-7B02-4705-B0C1-3A2279678377";
paths = (
{
closed = 1;
nodes = (
"232 1456 LINE",
"232 -63 LINE SMOOTH",
"232 -173 OFFCURVE",
"191 -228 OFFCURVE",
"109 -228 CURVE SMOOTH",
"79 -228 OFFCURVE",
"47 -224 OFFCURVE",
"14 -215 CURVE",
"0 -420 LINE",
"39 -431 OFFCURVE",
"81 -437 OFFCURVE",
"127 -437 CURVE SMOOTH",
"347 -437 OFFCURVE",
"484 -304 OFFCURVE",
"484 -63 CURVE SMOOTH",
"484 617 LINE",
"1070 617 LINE",
"1070 819 LINE",
"484 819 LINE",
"484 1253 LINE",
"1156 1253 LINE",
"1156 1456 LINE"
);
}
);
width = 1209;
}
);
note = uni0191;
unicode = 0191;
},
{
glyphname = florin;
lastChange = "2017-04-17 14:58:29 +0000";
layers = (
{
layerId = "D68CFE38-7B02-4705-B0C1-3A2279678377";
paths = (
{
closed = 1;
nodes = (
"444 1189 LINE SMOOTH",
"445 1302 OFFCURVE",
"498 1358 OFFCURVE",
"601 1358 CURVE SMOOTH",
"638 1358 OFFCURVE",
"670 1355 OFFCURVE",
"699 1348 CURVE",
"723 1536 LINE",
"664 1550 OFFCURVE",
"613 1557 OFFCURVE",
"571 1557 CURVE SMOOTH",
"334 1557 OFFCURVE",
"204 1420 OFFCURVE",
"201 1192 CURVE SMOOTH",
"201 1082 LINE",
"36 1082 LINE",
"36 903 LINE",
"201 903 LINE",
"201 -73 LINE SMOOTH",
"200 -186 OFFCURVE",
"160 -242 OFFCURVE",
"81 -242 CURVE SMOOTH",
"40 -242 OFFCURVE",
"8 -238 OFFCURVE",
"-14 -229 CURVE",
"-28 -420 LINE",
"11 -431 OFFCURVE",
"53 -437 OFFCURVE",
"99 -437 CURVE SMOOTH",
"314 -437 OFFCURVE",
"444 -307 OFFCURVE",
"444 -70 CURVE SMOOTH",
"444 903 LINE",
"644 903 LINE",
"644 1082 LINE",
"444 1082 LINE"
);
}
);
width = 721;
}
);
note = florin;
unicode = 0192;
},
{
glyphname = uni0193;
lastChange = "2017-04-17 14:58:29 +0000";
layers = (
{
layerId = "D68CFE38-7B02-4705-B0C1-3A2279678377";
paths = (
{
closed = 1;
nodes = (
"1265 1299 OFFCURVE",
"1348 1335 OFFCURVE",
"1449 1335 CURVE SMOOTH",
"1474 1335 OFFCURVE",
"1499 1332 OFFCURVE",
"1523 1326 CURVE",
"1523 1523 LINE",
"1483 1534 OFFCURVE",
"1440 1540 OFFCURVE",
"1393 1540 CURVE SMOOTH",
"1244 1540 OFFCURVE",
"1144 1478 OFFCURVE",
"1095 1354 CURVE",
"1000 1435 OFFCURVE",
"870 1476 OFFCURVE",
"706 1476 CURVE SMOOTH",
"330 1476 OFFCURVE",
"106 1220 OFFCURVE",
"106 775 CURVE SMOOTH",
"106 680 LINE SMOOTH",
"106 235 OFFCURVE",
"361 -20 OFFCURVE",
"728 -20 CURVE SMOOTH",
"1053 -20 OFFCURVE",
"1203 107 OFFCURVE",
"1264 190 CURVE",
"1264 747 LINE",
"713 747 LINE",
"713 556 LINE",
"1012 556 LINE",
"1012 270 LINE",
"995 251 OFFCURVE",
"966 232 OFFCURVE",
"927 212 CURVE SMOOTH",
"887 192 OFFCURVE",
"823 182 OFFCURVE",
"736 182 CURVE SMOOTH",
"503 182 OFFCURVE",
"361 360 OFFCURVE",
"361 680 CURVE SMOOTH",
"361 787 LINE SMOOTH",
"364 1096 OFFCURVE",
"475 1273 OFFCURVE",
"710 1273 CURVE SMOOTH",
"907 1273 OFFCURVE",
"991 1162 OFFCURVE",
"1016 1011 CURVE",
"1265 1011 LINE",
"1265 1166 LINE SMOOTH"
);
}
);
width = 1468;
}
);
leftKerningGroup = C;
note = uni0193;
unicode = 0193;
},
{
glyphname = uni0194;
lastChange = "2017-04-17 14:58:29 +0000";
layers = (
{
layerId = "D68CFE38-7B02-4705-B0C1-3A2279678377";
paths = (
{
closed = 1;
nodes = (
"970 -135 OFFCURVE",
"951 -72 OFFCURVE",
"913 10 CURVE SMOOTH",
"874 92 OFFCURVE",
"831 189 OFFCURVE",
"784 300 CURVE",
"1305 1456 LINE",
"1019 1456 LINE",
"662 594 LINE",
"309 1456 LINE",
"24 1456 LINE",
"543 305 LINE",
"494 192 OFFCURVE",
"451 94 OFFCURVE",
"412 11 CURVE SMOOTH",
"373 -72 OFFCURVE",
"354 -135 OFFCURVE",
"354 -179 CURVE SMOOTH",
"354 -351 OFFCURVE",
"483 -437 OFFCURVE",
"664 -437 CURVE SMOOTH",
"844 -437 OFFCURVE",
"970 -351 OFFCURVE",
"970 -179 CURVE SMOOTH"
);
},
{
closed = 1;
nodes = (
"601 -133 OFFCURVE",
"622 -64 OFFCURVE",
"664 34 CURVE",
"706 -63 OFFCURVE",
"727 -133 OFFCURVE",
"727 -174 CURVE SMOOTH",
"727 -224 OFFCURVE",
"706 -249 OFFCURVE",
"664 -249 CURVE SMOOTH",
"622 -249 OFFCURVE",
"601 -224 OFFCURVE",
"601 -174 CURVE SMOOTH"
);
}
);
width = 1328;
}
);
note = uni0194;
unicode = 0194;
},
{
glyphname = uni0195;
lastChange = "2017-04-17 14:58:29 +0000";
layers = (
{
layerId = "D68CFE38-7B02-4705-B0C1-3A2279678377";
paths = (
{
closed = 1;
nodes = (
"543 1102 OFFCURVE",
"443 1056 OFFCURVE",
"364 963 CURVE",
"364 1536 LINE",
"122 1536 LINE",
"122 0 LINE",
"364 0 LINE",
"364 773 LINE",
"412 860 OFFCURVE",
"485 904 OFFCURVE",
"583 904 CURVE SMOOTH",
"739 904 OFFCURVE",
"774 815 OFFCURVE",
"774 690 CURVE SMOOTH",
"774 427 LINE SMOOTH",
"777 110 OFFCURVE",
"920 -20 OFFCURVE",
"1189 -20 CURVE SMOOTH",
"1457 -20 OFFCURVE",
"1600 110 OFFCURVE",
"1603 427 CURVE SMOOTH",
"1603 1082 LINE",
"1360 1082 LINE",
"1360 434 LINE SMOOTH",
"1360 237 OFFCURVE",
"1280 179 OFFCURVE",
"1189 179 CURVE SMOOTH",
"1098 179 OFFCURVE",
"1018 236 OFFCURVE",
"1017 428 CURVE",
"1017 690 LINE SMOOTH",
"1017 917 OFFCURVE",
"942 1102 OFFCURVE",
"665 1102 CURVE SMOOTH"
);
}
);
width = 1725;
}
);
note = uni0195;
unicode = 0195;
},
{
glyphname = uni0198;
lastChange = "2017-04-17 14:58:29 +0000";
layers = (
{
layerId = "D68CFE38-7B02-4705-B0C1-3A2279678377";
paths = (
{
closed = 1;
nodes = (
"731 815 LINE",
"990 1158 LINE SMOOTH",
"1023 1201 OFFCURVE",
"1047 1229 OFFCURVE",
"1064 1240 CURVE SMOOTH",
"1080 1251 OFFCURVE",
"1098 1257 OFFCURVE",
"1119 1257 CURVE SMOOTH",
"1152 1257 OFFCURVE",
"1184 1248 OFFCURVE",
"1213 1230 CURVE",
"1302 1407 LINE",
"1233 1453 OFFCURVE",
"1161 1476 OFFCURVE",
"1087 1476 CURVE SMOOTH",
"944 1476 OFFCURVE",
"875 1384 OFFCURVE",
"774 1247 CURVE SMOOTH",
"542 946 LINE",
"401 757 LINE",
"401 1456 LINE",
"149 1456 LINE",
"149 0 LINE",
"401 0 LINE",
"401 438 LINE",
"569 626 LINE",
"1004 0 LINE",
"1304 0 LINE"
);
}
);
width = 1291;
}
);
note = uni0198;
rightKerningGroup = K;
unicode = 0198;
},
{
glyphname = uni0199;
lastChange = "2017-04-17 14:58:29 +0000";
layers = (
{
layerId = "D68CFE38-7B02-4705-B0C1-3A2279678377";
paths = (
{
closed = 1;
nodes = (
"548 1386 OFFCURVE",
"570 1384 OFFCURVE",
"589 1379 CURVE",
"589 1542 LINE",
"558 1552 OFFCURVE",
"517 1557 OFFCURVE",
"466 1557 CURVE SMOOTH",
"261 1557 OFFCURVE",
"125 1447 OFFCURVE",
"125 1238 CURVE SMOOTH",
"125 0 LINE",
"368 0 LINE",
"368 354 LINE",
"477 466 LINE",
"798 0 LINE",
"1079 0 LINE",
"633 632 LINE",
"1036 1082 LINE",
"744 1082 LINE",
"445 746 LINE",
"368 650 LINE",
"368 1238 LINE SMOOTH",
"368 1353 OFFCURVE",
"438 1386 OFFCURVE",
"525 1386 CURVE SMOOTH"
);
}
);
width = 1069;
}
);
note = uni0199;
unicode = 0199;
},
{
glyphname = uni019B;
lastChange = "2017-04-17 14:58:29 +0000";
layers = (
{
layerId = "D68CFE38-7B02-4705-B0C1-3A2279678377";
paths = (
{
closed = 1;
nodes = (
"1060 183 LINE",
"1019 183 OFFCURVE",
"986 214 OFFCURVE",
"961 277 CURVE SMOOTH",
"608 1176 LINE",
"722 1217 LINE",
"722 1399 LINE",
"545 1336 LINE",
"532 1370 LINE SMOOTH",
"491 1474 OFFCURVE",
"418 1532 OFFCURVE",
"275 1532 CURVE SMOOTH",
"226 1532 OFFCURVE",
"182 1526 OFFCURVE",
"145 1515 CURVE",
"148 1334 LINE",
"201 1336 LINE",
"254 1336 OFFCURVE",
"293 1309 OFFCURVE",
"318 1255 CURVE",
"197 1212 LINE",
"197 1030 LINE",
"385 1097 LINE",
"408 1041 LINE",
"22 0 LINE",
"287 0 LINE",
"535 714 LINE",
"737 178 LINE SMOOTH",
"797 25 OFFCURVE",
"869 -18 OFFCURVE",
"1004 -18 CURVE SMOOTH",
"1040 -18 OFFCURVE",
"1071 -15 OFFCURVE",
"1098 -9 CURVE",
"1095 185 LINE"
);
}
);
width = 1130;
}
);
note = uni019B;
unicode = 019B;
},
{
glyphname = uni019C;
lastChange = "2017-04-17 14:58:29 +0000";
layers = (
{
layerId = "D68CFE38-7B02-4705-B0C1-3A2279678377";
paths = (
{
closed = 1;
nodes = (
"1702 1456 LINE",
"1459 1456 LINE",
"1459 335 LINE",
"1421 231 OFFCURVE",
"1341 179 OFFCURVE",
"1220 179 CURVE SMOOTH",
"1129 179 OFFCURVE",
"1049 237 OFFCURVE",
"1049 434 CURVE SMOOTH",
"1049 1456 LINE",
"806 1456 LINE",
"806 413 LINE",
"810 346 LINE",
"772 235 OFFCURVE",
"691 179 OFFCURVE",
"567 179 CURVE SMOOTH",
"476 179 OFFCURVE",
"396 237 OFFCURVE",
"396 434 CURVE SMOOTH",
"396 1456 LINE",
"153 1456 LINE",
"153 430 LINE SMOOTH",
"154 87 OFFCURVE",
"295 -20 OFFCURVE",
"510 -20 CURVE SMOOTH",
"666 -20 OFFCURVE",
"780 42 OFFCURVE",
"852 165 CURVE",
"905 42 OFFCURVE",
"1008 -20 OFFCURVE",
"1163 -20 CURVE SMOOTH",
"1295 -20 OFFCURVE",
"1397 25 OFFCURVE",
"1469 116 CURVE",
"1479 0 LINE",
"1702 0 LINE"
);
}
);
width = 1855;
}
);
note = uni019C;
rightKerningGroup = H;
unicode = 019C;
},
{
glyphname = uni019D;
lastChange = "2017-04-17 14:58:29 +0000";
layers = (
{
layerId = "D68CFE38-7B02-4705-B0C1-3A2279678377";
paths = (
{
closed = 1;
nodes = (
"1387 1456 LINE",
"1136 1456 LINE",
"1136 420 LINE",
"484 1456 LINE",
"232 1456 LINE",
"232 -63 LINE SMOOTH",
"232 -173 OFFCURVE",
"191 -228 OFFCURVE",
"109 -228 CURVE SMOOTH",
"79 -228 OFFCURVE",
"47 -224 OFFCURVE",
"14 -215 CURVE",
"0 -420 LINE",
"39 -431 OFFCURVE",
"81 -437 OFFCURVE",
"127 -437 CURVE SMOOTH",
"347 -437 OFFCURVE",
"484 -304 OFFCURVE",
"484 -63 CURVE SMOOTH",
"484 1033 LINE",
"1134 0 LINE",
"1387 0 LINE"
);
}
);
width = 1538;
}
);
note = uni019D;
rightKerningGroup = H;
unicode = 019D;
},
{
glyphname = Ohorn;
lastChange = "2017-04-17 14:58:29 +0000";
layers = (
{
layerId = "D68CFE38-7B02-4705-B0C1-3A2279678377";
paths = (
{
closed = 1;
nodes = (
"1295 926 OFFCURVE",
"1265 1061 OFFCURVE",
"1206 1174 CURVE",
"1369 1221 OFFCURVE",
"1450 1357 OFFCURVE",
"1450 1582 CURVE",
"1263 1582 LINE",
"1263 1426 OFFCURVE",
"1222 1326 OFFCURVE",
"1109 1309 CURVE",
"1001 1420 OFFCURVE",
"862 1476 OFFCURVE",
"692 1476 CURVE SMOOTH",
"337 1476 OFFCURVE",
"88 1207 OFFCURVE",
"88 764 CURVE SMOOTH",
"88 691 LINE SMOOTH",
"88 248 OFFCURVE",
"339 -20 OFFCURVE",
"694 -20 CURVE SMOOTH",
"1055 -20 OFFCURVE",
"1296 248 OFFCURVE",
"1296 691 CURVE SMOOTH",
"1296 769 LINE"
);
},
{
closed = 1;
nodes = (
"1044 364 OFFCURVE",
"917 188 OFFCURVE",
"694 188 CURVE SMOOTH",
"477 188 OFFCURVE",
"341 364 OFFCURVE",
"341 691 CURVE SMOOTH",
"341 766 LINE SMOOTH",
"341 1093 OFFCURVE",
"475 1267 OFFCURVE",
"692 1267 CURVE SMOOTH",
"913 1267 OFFCURVE",
"1044 1093 OFFCURVE",
"1044 766 CURVE SMOOTH",
"1044 691 LINE SMOOTH"
);
}
);
width = 1418;
}
);
leftKerningGroup = C;
note = Ohorn;
unicode = 01A0;
},
{
glyphname = ohorn;
lastChange = "2017-04-17 14:58:29 +0000";
layers = (
{
layerId = "D68CFE38-7B02-4705-B0C1-3A2279678377";
paths = (
{
closed = 1;
nodes = (
"1085 661 OFFCURVE",
"1063 758 OFFCURVE",
"1020 843 CURVE",
"1148 888 OFFCURVE",
"1212 1004 OFFCURVE",
"1212 1193 CURVE",
"1044 1193 LINE",
"1044 1070 OFFCURVE",
"1027 983 OFFCURVE",
"943 954 CURVE",
"853 1053 OFFCURVE",
"732 1102 OFFCURVE",
"581 1102 CURVE SMOOTH",
"266 1102 OFFCURVE",
"79 864 OFFCURVE",
"79 551 CURVE SMOOTH",
"79 530 LINE SMOOTH",
"79 215 OFFCURVE",
"266 -20 OFFCURVE",
"583 -20 CURVE SMOOTH",
"899 -20 OFFCURVE",
"1085 215 OFFCURVE",
"1085 530 CURVE SMOOTH",
"1085 551 LINE SMOOTH"
);
},
{
closed = 1;
nodes = (
"322 742 OFFCURVE",
"401 907 OFFCURVE",
"581 907 CURVE SMOOTH",
"764 907 OFFCURVE",
"843 742 OFFCURVE",
"843 551 CURVE SMOOTH",
"843 526 LINE SMOOTH",
"842 333 OFFCURVE",
"762 175 OFFCURVE",
"583 175 CURVE SMOOTH",
"400 175 OFFCURVE",
"322 335 OFFCURVE",
"322 530 CURVE SMOOTH",
"322 551 LINE SMOOTH"
);
}
);
width = 1183;
}
);
leftKerningGroup = c;
note = ohorn;
unicode = 01A1;
},
{
glyphname = uni01A2;
lastChange = "2017-04-17 14:58:29 +0000";
layers = (
{
layerId = "D68CFE38-7B02-4705-B0C1-3A2279678377";
paths = (
{
closed = 1;
nodes = (
"885 -20 OFFCURVE",
"1007 5 OFFCURVE",
"1088 55 CURVE SMOOTH",
"1168 105 OFFCURVE",
"1223 150 OFFCURVE",
"1254 191 CURVE",
"1254 1131 LINE",
"1399 1190 LINE",
"1399 -416 LINE",
"1641 -416 LINE",
"1641 1456 LINE",
"1456 1456 LINE",
"1184 1338 LINE",
"1101 1407 OFFCURVE",
"961 1476 OFFCURVE",
"722 1476 CURVE SMOOTH",
"358 1476 OFFCURVE",
"102 1220 OFFCURVE",
"102 777 CURVE SMOOTH",
"102 680 LINE SMOOTH",
"102 227 OFFCURVE",
"359 -20 OFFCURVE",
"722 -20 CURVE SMOOTH"
);
},
{
closed = 1;
nodes = (
"816 1274 OFFCURVE",
"880 1264 OFFCURVE",
"921 1244 CURVE SMOOTH",
"962 1224 OFFCURVE",
"992 1204 OFFCURVE",
"1012 1183 CURVE",
"1012 273 LINE",
"994 254 OFFCURVE",
"965 235 OFFCURVE",
"926 214 CURVE SMOOTH",
"886 193 OFFCURVE",
"822 182 OFFCURVE",
"735 182 CURVE SMOOTH",
"480 182 OFFCURVE",
"355 373 OFFCURVE",
"355 680 CURVE SMOOTH",
"355 777 LINE SMOOTH",
"355 1100 OFFCURVE",
"493 1274 OFFCURVE",
"729 1274 CURVE SMOOTH"
);
}
);
width = 1793;
}
);
leftKerningGroup = C;
note = uni01A2;
rightKerningGroup = H;
unicode = 01A2;
},
{
glyphname = uni01A3;
lastChange = "2017-04-17 14:58:29 +0000";
layers = (
{
layerId = "D68CFE38-7B02-4705-B0C1-3A2279678377";
paths = (
{
closed = 1;
nodes = (
"1307 -416 LINE",
"1307 1082 LINE",
"1129 1082 LINE",
"901 971 LINE",
"826 1044 OFFCURVE",
"715 1102 OFFCURVE",
"572 1102 CURVE SMOOTH",
"240 1102 OFFCURVE",
"80 855 OFFCURVE",
"80 559 CURVE SMOOTH",
"80 523 LINE SMOOTH",
"80 226 OFFCURVE",
"239 -20 OFFCURVE",
"572 -20 CURVE SMOOTH",
"751 -20 OFFCURVE",
"875 59 OFFCURVE",
"952 164 CURVE",
"952 730 LINE",
"1064 787 LINE",
"1064 -416 LINE"
);
},
{
closed = 1;
nodes = (
"399 175 OFFCURVE",
"322 311 OFFCURVE",
"322 523 CURVE SMOOTH",
"322 559 LINE SMOOTH",
"322 731 OFFCURVE",
"372 907 OFFCURVE",
"569 907 CURVE SMOOTH",
"625 907 OFFCURVE",
"672 890 OFFCURVE",
"709 856 CURVE",
"709 220 LINE",
"672 190 OFFCURVE",
"625 175 OFFCURVE",
"570 175 CURVE SMOOTH"
);
}
);
width = 1436;
}
);
note = uni01A3;
unicode = 01A3;
},
{
glyphname = uni01A4;
lastChange = "2017-04-17 14:58:29 +0000";
layers = (
{
layerId = "D68CFE38-7B02-4705-B0C1-3A2279678377";
paths = (
{
closed = 1;
nodes = (
"34 1083 OFFCURVE",
"40 1040 OFFCURVE",
"51 1002 CURVE",
"249 1002 LINE",
"243 1027 OFFCURVE",
"240 1052 OFFCURVE",
"240 1077 CURVE SMOOTH",
"240 1178 OFFCURVE",
"282 1252 OFFCURVE",
"403 1253 CURVE",
"403 0 LINE",
"656 0 LINE",
"656 541 LINE",
"960 541 LINE SMOOTH",
"1299 541 OFFCURVE",
"1490 712 OFFCURVE",
"1490 993 CURVE SMOOTH",
"1490 1261 OFFCURVE",
"1299 1456 OFFCURVE",
"960 1456 CURVE SMOOTH",
"403 1456 LINE",
"403 1456 LINE SMOOTH",
"166 1456 OFFCURVE",
"34 1343 OFFCURVE",
"34 1132 CURVE SMOOTH"
);
},
{
closed = 1;
nodes = (
"1156 1253 OFFCURVE",
"1236 1127 OFFCURVE",
"1236 991 CURVE SMOOTH",
"1236 846 OFFCURVE",
"1156 744 OFFCURVE",
"960 744 CURVE SMOOTH",
"656 744 LINE",
"656 1253 LINE",
"960 1253 LINE SMOOTH"
);
}
);
width = 1564;
}
);
note = uni01A4;
rightKerningGroup = P;
unicode = 01A4;
},
{
glyphname = uni01A5;
lastChange = "2017-04-17 14:58:29 +0000";
layers = (
{
layerId = "D68CFE38-7B02-4705-B0C1-3A2279678377";
paths = (
{
closed = 1;
nodes = (
"923 -20 OFFCURVE",
"1073 215 OFFCURVE",
"1073 530 CURVE SMOOTH",
"1073 550 LINE SMOOTH",
"1073 881 OFFCURVE",
"925 1102 OFFCURVE",
"650 1102 CURVE SMOOTH",
"533 1102 OFFCURVE",
"438 1062 OFFCURVE",
"367 983 CURVE",
"367 1075 LINE SMOOTH",
"367 1188 OFFCURVE",
"438 1224 OFFCURVE",
"525 1224 CURVE SMOOTH",
"543 1224 OFFCURVE",
"564 1222 OFFCURVE",
"589 1217 CURVE",
"589 1379 LINE",
"555 1389 OFFCURVE",
"514 1394 OFFCURVE",
"465 1394 CURVE SMOOTH",
"298 1394 OFFCURVE",
"129 1315 OFFCURVE",
"125 1082 CURVE",
"125 1082 LINE",
"125 -416 LINE",
"367 -416 LINE",
"367 97 LINE",
"439 19 OFFCURVE",
"534 -20 OFFCURVE",
"652 -20 CURVE SMOOTH"
);
},
{
closed = 1;
nodes = (
"757 904 OFFCURVE",
"830 746 OFFCURVE",
"830 551 CURVE SMOOTH",
"830 531 LINE SMOOTH",
"830 338 OFFCURVE",
"757 175 OFFCURVE",
"584 175 CURVE SMOOTH",
"484 175 OFFCURVE",
"412 217 OFFCURVE",
"367 302 CURVE",
"367 779 LINE",
"410 862 OFFCURVE",
"482 904 OFFCURVE",
"582 904 CURVE SMOOTH"
);
}
);
width = 1153;
}
);
note = uni01A5;
unicode = 01A5;
},
{
glyphname = uni01A6;
lastChange = "2017-04-17 14:58:29 +0000";
layers = (
{
layerId = "D68CFE38-7B02-4705-B0C1-3A2279678377";
paths = (
{
closed = 1;
nodes = (
"685 561 LINE",
"1163 -356 LINE",
"1434 -356 LINE",
"1434 -343 LINE",
"919 621 LINE",
"1086 690 OFFCURVE",
"1186 822 OFFCURVE",
"1186 1017 CURVE SMOOTH",
"1186 1300 OFFCURVE",
"1001 1452 OFFCURVE",
"674 1456 CURVE SMOOTH",
"401 1456 LINE",
"401 1560 LINE",
"149 1560 LINE",
"149 0 LINE",
"401 0 LINE",
"401 561 LINE"
);
},
{
closed = 1;
nodes = (
"853 1252 OFFCURVE",
"934 1154 OFFCURVE",
"934 1005 CURVE SMOOTH",
"934 866 OFFCURVE",
"842 764 OFFCURVE",
"661 764 CURVE SMOOTH",
"401 764 LINE",
"401 1253 LINE",
"665 1253 LINE SMOOTH"
);
}
);
width = 1412;
}
);
note = uni01A6;
unicode = 01A6;
},
{
glyphname = uni01A7;
lastChange = "2017-04-17 14:58:29 +0000";
layers = (
{
layerId = "D68CFE38-7B02-4705-B0C1-3A2279678377";
paths = (
{
closed = 1;
nodes = (
"327 433 OFFCURVE",
"346 480 OFFCURVE",
"385 515 CURVE SMOOTH",
"423 550 OFFCURVE",
"510 589 OFFCURVE",
"647 632 CURVE SMOOTH",
"920 716 OFFCURVE",
"1117 837 OFFCURVE",
"1117 1073 CURVE SMOOTH",
"1117 1308 OFFCURVE",
"909 1476 OFFCURVE",
"601 1476 CURVE SMOOTH",
"272 1476 OFFCURVE",
"76 1274 OFFCURVE",
"76 1031 CURVE",
"328 1031 LINE",
"328 1174 OFFCURVE",
"415 1275 OFFCURVE",
"603 1275 CURVE SMOOTH",
"780 1275 OFFCURVE",
"864 1189 OFFCURVE",
"864 1074 CURVE SMOOTH",
"864 966 OFFCURVE",
"766 901 OFFCURVE",
"561 841 CURVE SMOOTH",
"226 744 OFFCURVE",
"74 609 OFFCURVE",
"74 378 CURVE SMOOTH",
"74 133 OFFCURVE",
"277 -20 OFFCURVE",
"592 -20 CURVE SMOOTH",
"685 -20 OFFCURVE",
"776 -3 OFFCURVE",
"863 31 CURVE SMOOTH",
"1038 99 OFFCURVE",
"1162 235 OFFCURVE",
"1162 440 CURVE",
"909 440 LINE",
"909 256 OFFCURVE",
"771 180 OFFCURVE",
"592 180 CURVE SMOOTH",
"417 180 OFFCURVE",
"327 259 OFFCURVE",
"327 376 CURVE SMOOTH"
);
}
);
width = 1237;
}
);
note = uni01A7;
unicode = 01A7;
},
{
glyphname = uni01A8;
lastChange = "2017-04-17 14:58:29 +0000";
layers = (
{
layerId = "D68CFE38-7B02-4705-B0C1-3A2279678377";
paths = (
{
closed = 1;
nodes = (
"326 329 OFFCURVE",
"340 359 OFFCURVE",
"368 385 CURVE SMOOTH",
"396 410 OFFCURVE",
"457 433 OFFCURVE",
"552 453 CURVE SMOOTH",
"789 502 OFFCURVE",
"946 593 OFFCURVE",
"946 774 CURVE SMOOTH",
"946 951 OFFCURVE",
"785 1102 OFFCURVE",
"528 1102 CURVE SMOOTH",
"259 1102 OFFCURVE",
"95 953 OFFCURVE",
"95 758 CURVE",
"338 758 LINE",
"338 842 OFFCURVE",
"402 920 OFFCURVE",
"529 920 CURVE SMOOTH",
"650 920 OFFCURVE",
"709 856 OFFCURVE",
"709 784 CURVE SMOOTH",
"709 749 OFFCURVE",
"694 720 OFFCURVE",
"664 699 CURVE SMOOTH",
"633 678 OFFCURVE",
"574 658 OFFCURVE",
"487 639 CURVE SMOOTH",
"240 586 OFFCURVE",
"87 503 OFFCURVE",
"87 308 CURVE SMOOTH",
"87 116 OFFCURVE",
"260 -20 OFFCURVE",
"525 -20 CURVE SMOOTH",
"822 -20 OFFCURVE",
"982 163 OFFCURVE",
"982 342 CURVE",
"746 342 LINE",
"739 209 OFFCURVE",
"630 162 OFFCURVE",
"522 162 CURVE SMOOTH",
"395 162 OFFCURVE",
"326 217 OFFCURVE",
"326 294 CURVE SMOOTH"
);
}
);
width = 1058;
}
);
note = uni01A8;
unicode = 01A8;
},
{
glyphname = uni01AA;
lastChange = "2017-04-17 14:58:29 +0000";
layers = (
{
layerId = "D68CFE38-7B02-4705-B0C1-3A2279678377";
paths = (
{
closed = 1;
nodes = (
"952 -215 OFFCURVE",
"927 -218 OFFCURVE",
"902 -218 CURVE SMOOTH",
"811 -218 OFFCURVE",
"766 -160 OFFCURVE",
"766 -44 CURVE SMOOTH",
"766 1197 LINE SMOOTH",
"766 1401 OFFCURVE",
"599 1567 OFFCURVE",
"396 1567 CURVE SMOOTH",
"192 1567 OFFCURVE",
"27 1401 OFFCURVE",
"27 1197 CURVE SMOOTH",
"27 994 OFFCURVE",
"192 829 OFFCURVE",
"396 829 CURVE SMOOTH",
"440 829 OFFCURVE",
"482 836 OFFCURVE",
"523 851 CURVE",
"523 -62 LINE SMOOTH",
"528 -299 OFFCURVE",
"636 -418 OFFCURVE",
"847 -418 CURVE SMOOTH",
"893 -418 OFFCURVE",
"936 -412 OFFCURVE",
"976 -401 CURVE",
"976 -209 LINE"
);
},
{
closed = 1;
nodes = (
"312 1042 OFFCURVE",
"246 1095 OFFCURVE",
"246 1199 CURVE SMOOTH",
"246 1303 OFFCURVE",
"312 1357 OFFCURVE",
"397 1357 CURVE SMOOTH",
"480 1357 OFFCURVE",
"545 1303 OFFCURVE",
"545 1199 CURVE SMOOTH",
"545 1095 OFFCURVE",
"480 1042 OFFCURVE",
"397 1042 CURVE SMOOTH"
);
}
);
width = 1012;
}
);
note = uni01AA;
unicode = 01AA;
},
{
glyphname = uni01AB;
lastChange = "2017-04-17 14:58:29 +0000";
layers = (
{
layerId = "D68CFE38-7B02-4705-B0C1-3A2279678377";
paths = (
{
closed = 1;
nodes = (
"475 182 OFFCURVE",
"429 201 OFFCURVE",
"429 298 CURVE SMOOTH",
"429 903 LINE",
"620 903 LINE",
"620 1082 LINE",
"429 1082 LINE",
"429 1345 LINE",
"187 1345 LINE",
"187 1082 LINE",
"8 1082 LINE",
"8 903 LINE",
"187 903 LINE",
"187 284 LINE SMOOTH",
"187 64 OFFCURVE",
"301 -17 OFFCURVE",
"460 -20 CURVE",
"460 -60 LINE SMOOTH",
"460 -175 OFFCURVE",
"390 -209 OFFCURVE",
"303 -209 CURVE SMOOTH",
"280 -209 OFFCURVE",
"258 -207 OFFCURVE",
"239 -202 CURVE",
"239 -365 LINE",
"273 -375 OFFCURVE",
"310 -380 OFFCURVE",
"350 -380 CURVE SMOOTH",
"531 -380 OFFCURVE",
"623 -278 OFFCURVE",
"627 -73 CURVE SMOOTH",
"627 192 LINE",
"598 185 OFFCURVE",
"570 182 OFFCURVE",
"542 182 CURVE SMOOTH"
);
}
);
width = 682;
}
);
note = uni01AB;
unicode = 01AB;
},
{
glyphname = uni01AC;
lastChange = "2017-04-17 14:58:29 +0000";
layers = (
{
layerId = "D68CFE38-7B02-4705-B0C1-3A2279678377";
paths = (
{
closed = 1;
nodes = (
"30 1087 OFFCURVE",
"36 1043 OFFCURVE",
"47 1002 CURVE",
"245 1002 LINE",
"240 1029 OFFCURVE",
"237 1054 OFFCURVE",
"237 1077 CURVE SMOOTH",
"237 1180 OFFCURVE",
"279 1253 OFFCURVE",
"404 1253 CURVE SMOOTH",
"612 1253 LINE",
"612 0 LINE",
"863 0 LINE",
"863 1253 LINE",
"1317 1253 LINE",
"1317 1456 LINE",
"386 1456 LINE SMOOTH",
"149 1451 OFFCURVE",
"30 1343 OFFCURVE",
"30 1132 CURVE SMOOTH"
);
}
);
width = 1360;
}
);
note = uni01AC;
unicode = 01AC;
},
{
glyphname = uni01AD;
lastChange = "2017-04-17 14:58:29 +0000";
layers = (
{
layerId = "D68CFE38-7B02-4705-B0C1-3A2279678377";
paths = (
{
closed = 1;
nodes = (
"615 1397 OFFCURVE",
"636 1395 OFFCURVE",
"661 1390 CURVE",
"661 1552 LINE",
"627 1562 OFFCURVE",
"586 1567 OFFCURVE",
"537 1567 CURVE SMOOTH",
"369 1567 OFFCURVE",
"197 1485 OFFCURVE",
"197 1248 CURVE SMOOTH",
"197 1082 LINE",
"19 1082 LINE",
"19 903 LINE",
"197 903 LINE",
"197 304 LINE SMOOTH",
"197 71 OFFCURVE",
"316 -20 OFFCURVE",
"477 -20 CURVE SMOOTH",
"537 -20 OFFCURVE",
"590 -12 OFFCURVE",
"637 4 CURVE",
"637 192 LINE",
"608 185 OFFCURVE",
"580 182 OFFCURVE",
"552 182 CURVE SMOOTH",
"485 182 OFFCURVE",
"440 210 OFFCURVE",
"440 318 CURVE SMOOTH",
"440 903 LINE",
"631 903 LINE",
"631 1082 LINE",
"440 1082 LINE",
"440 1248 LINE SMOOTH",
"440 1363 OFFCURVE",
"510 1397 OFFCURVE",
"597 1397 CURVE SMOOTH"
);
}
);
width = 714;
}
);
note = uni01AD;
unicode = 01AD;
},
{
glyphname = uni01AE;
lastChange = "2017-04-17 14:58:29 +0000";
layers = (
{
layerId = "D68CFE38-7B02-4705-B0C1-3A2279678377";
paths = (
{
closed = 1;
nodes = (
"495 -63 LINE SMOOTH",
"495 -304 OFFCURVE",
"629 -437 OFFCURVE",
"848 -437 CURVE SMOOTH",
"894 -437 OFFCURVE",
"936 -431 OFFCURVE",
"975 -420 CURVE",
"961 -219 LINE",
"928 -228 OFFCURVE",
"896 -232 OFFCURVE",
"863 -232 CURVE SMOOTH",
"786 -232 OFFCURVE",
"747 -176 OFFCURVE",
"747 -63 CURVE SMOOTH",
"747 1253 LINE",
"1200 1253 LINE",
"1200 1456 LINE",
"45 1456 LINE",
"45 1253 LINE",
"495 1253 LINE"
);
}
);
width = 1244;
}
);
leftKerningGroup = T;
note = uni01AE;
rightKerningGroup = T;
unicode = 01AE;
},
{
glyphname = Uhorn;
lastChange = "2017-04-17 14:58:29 +0000";
layers = (
{
layerId = "D68CFE38-7B02-4705-B0C1-3A2279678377";
paths = (
{
closed = 1;
nodes = (
"972 -20 OFFCURVE",
"1214 150 OFFCURVE",
"1214 483 CURVE SMOOTH",
"1214 1086 LINE",
"1498 1101 OFFCURVE",
"1597 1260 OFFCURVE",
"1597 1537 CURVE",
"1417 1537 LINE",
"1417 1358 OFFCURVE",
"1383 1252 OFFCURVE",
"1214 1237 CURVE",
"1214 1456 LINE",
"961 1456 LINE",
"961 483 LINE SMOOTH",
"961 275 OFFCURVE",
"849 182 OFFCURVE",
"669 182 CURVE SMOOTH",
"492 182 OFFCURVE",
"377 275 OFFCURVE",
"377 483 CURVE SMOOTH",
"377 1456 LINE",
"126 1456 LINE",
"126 483 LINE SMOOTH",
"126 150 OFFCURVE",
"358 -20 OFFCURVE",
"669 -20 CURVE SMOOTH"
);
}
);
width = 1445;
}
);
note = Uhorn;
unicode = 01AF;
},
{
glyphname = uhorn;
lastChange = "2017-04-17 14:58:29 +0000";
layers = (
{
layerId = "D68CFE38-7B02-4705-B0C1-3A2279678377";
paths = (
{
closed = 1;
nodes = (
"1015 819 LINE",
"1250 834 OFFCURVE",
"1321 953 OFFCURVE",
"1321 1172 CURVE",
"1159 1172 LINE",
"1159 1032 OFFCURVE",
"1150 961 OFFCURVE",
"1015 946 CURVE",
"1015 1082 LINE",
"772 1082 LINE",
"772 304 LINE",
"729 221 OFFCURVE",
"650 179 OFFCURVE",
"534 179 CURVE SMOOTH",
"442 179 OFFCURVE",
"362 225 OFFCURVE",
"362 381 CURVE SMOOTH",
"362 1082 LINE",
"119 1082 LINE",
"119 379 LINE SMOOTH",
"120 95 OFFCURVE",
"265 -20 OFFCURVE",
"476 -20 CURVE SMOOTH",
"608 -20 OFFCURVE",
"709 22 OFFCURVE",
"780 106 CURVE",
"786 0 LINE",
"1015 0 LINE"
);
}
);
width = 1266;
}
);
leftKerningGroup = u;
note = uhorn;
unicode = 01B0;
},
{
glyphname = uni01B1;
lastChange = "2017-04-17 14:58:29 +0000";
layers = (
{
layerId = "D68CFE38-7B02-4705-B0C1-3A2279678377";
paths = (
{
closed = 1;
nodes = (
"979 327 OFFCURVE",
"865 183 OFFCURVE",
"682 183 CURVE SMOOTH",
"497 183 OFFCURVE",
"382 327 OFFCURVE",
"382 604 CURVE SMOOTH",
"382 721 LINE SMOOTH",
"385 1038 OFFCURVE",
"477 1208 OFFCURVE",
"622 1247 CURVE",
"622 1456 LINE",
"125 1456 LINE",
"125 1253 LINE",
"339 1253 LINE",
"202 1122 OFFCURVE",
"111 920 OFFCURVE",
"111 705 CURVE SMOOTH",
"111 606 LINE SMOOTH",
"111 235 OFFCURVE",
"345 -21 OFFCURVE",
"682 -21 CURVE SMOOTH",
"1019 -21 OFFCURVE",
"1249 235 OFFCURVE",
"1249 606 CURVE SMOOTH",
"1249 705 LINE SMOOTH",
"1249 920 OFFCURVE",
"1157 1122 OFFCURVE",
"1021 1253 CURVE",
"1238 1253 LINE",
"1238 1456 LINE",
"733 1456 LINE",
"733 1247 LINE",
"882 1208 OFFCURVE",
"979 1038 OFFCURVE",
"979 705 CURVE SMOOTH",
"979 604 LINE SMOOTH"
);
}
);
width = 1363;
}
);
note = uni01B1;
unicode = 01B1;
},
{
glyphname = uni01B2;
lastChange = "2017-04-17 14:58:29 +0000";
layers = (
{
layerId = "D68CFE38-7B02-4705-B0C1-3A2279678377";
paths = (
{
closed = 1;
nodes = (
"971 -20 OFFCURVE",
"1214 150 OFFCURVE",
"1214 483 CURVE SMOOTH",
"1214 1102 LINE SMOOTH",
"1214 1345 OFFCURVE",
"1075 1476 OFFCURVE",
"864 1476 CURVE SMOOTH",
"819 1476 OFFCURVE",
"775 1470 OFFCURVE",
"734 1459 CURVE",
"734 1261 LINE",
"761 1266 OFFCURVE",
"786 1269 OFFCURVE",
"809 1269 CURVE SMOOTH",
"912 1269 OFFCURVE",
"961 1227 OFFCURVE",
"961 1102 CURVE SMOOTH",
"961 483 LINE SMOOTH",
"961 275 OFFCURVE",
"850 182 OFFCURVE",
"670 182 CURVE SMOOTH",
"491 182 OFFCURVE",
"378 275 OFFCURVE",
"378 483 CURVE SMOOTH",
"378 1456 LINE",
"126 1456 LINE",
"126 483 LINE SMOOTH",
"126 150 OFFCURVE",
"358 -20 OFFCURVE",
"670 -20 CURVE SMOOTH"
);
}
);
width = 1340;
}
);
note = uni01B2;
unicode = 01B2;
},
{
glyphname = uni01B3;
lastChange = "2017-04-17 14:58:29 +0000";
layers = (
{
layerId = "D68CFE38-7B02-4705-B0C1-3A2279678377";
paths = (
{
closed = 1;
nodes = (
"1045 1091 OFFCURVE",
"1080 1153 OFFCURVE",
"1105 1195 CURVE SMOOTH",
"1130 1236 OFFCURVE",
"1164 1257 OFFCURVE",
"1206 1257 CURVE SMOOTH",
"1239 1257 OFFCURVE",
"1271 1248 OFFCURVE",
"1300 1230 CURVE",
"1389 1407 LINE",
"1319 1453 OFFCURVE",
"1242 1476 OFFCURVE",
"1158 1476 CURVE SMOOTH",
"1082 1476 OFFCURVE",
"1020 1452 OFFCURVE",
"973 1405 CURVE SMOOTH",
"925 1358 OFFCURVE",
"863 1257 OFFCURVE",
"788 1102 CURVE SMOOTH",
"624 765 LINE",
"290 1456 LINE",
"8 1456 LINE",
"497 536 LINE",
"497 0 LINE",
"751 0 LINE",
"751 535 LINE",
"1002 1008 LINE SMOOTH"
);
}
);
width = 1369;
}
);
note = uni01B3;
unicode = 01B3;
},
{
glyphname = uni01B4;
lastChange = "2017-04-17 14:58:29 +0000";
layers = (
{
layerId = "D68CFE38-7B02-4705-B0C1-3A2279678377";
paths = (
{
closed = 1;
nodes = (
"395 -425 OFFCURVE",
"497 -330 OFFCURVE",
"557 -149 CURVE SMOOTH",
"920 945 LINE SMOOTH",
"945 1022 OFFCURVE",
"969 1078 OFFCURVE",
"992 1114 CURVE SMOOTH",
"1015 1149 OFFCURVE",
"1045 1167 OFFCURVE",
"1082 1167 CURVE SMOOTH",
"1110 1167 OFFCURVE",
"1146 1156 OFFCURVE",
"1190 1135 CURVE",
"1245 1284 LINE",
"1180 1336 OFFCURVE",
"1109 1362 OFFCURVE",
"1031 1362 CURVE SMOOTH",
"960 1362 OFFCURVE",
"904 1344 OFFCURVE",
"863 1309 CURVE SMOOTH",
"781 1238 OFFCURVE",
"742 1123 OFFCURVE",
"709 1016 CURVE SMOOTH",
"501 335 LINE",
"484 413 LINE",
"275 1082 LINE",
"12 1082 LINE",
"393 5 LINE",
"356 -93 LINE SMOOTH",
"315 -201 OFFCURVE",
"259 -235 OFFCURVE",
"146 -235 CURVE",
"100 -232 LINE",
"100 -420 LINE",
"155 -431 OFFCURVE",
"194 -437 OFFCURVE",
"217 -437 CURVE SMOOTH",
"251 -436 LINE"
);
}
);
width = 1220;
}
);
note = uni01B4;
unicode = 01B4;
},
{
glyphname = uni01B5;
lastChange = "2017-04-17 14:58:29 +0000";
layers = (
{
layerId = "D68CFE38-7B02-4705-B0C1-3A2279678377";
paths = (
{
closed = 1;
nodes = (
"537 824 LINE",
"128 824 LINE",
"128 654 LINE",
"419 654 LINE",
"80 164 LINE",
"80 0 LINE",
"1164 0 LINE",
"1164 202 LINE",
"386 202 LINE",
"698 654 LINE",
"1097 654 LINE",
"1097 824 LINE",
"815 824 LINE",
"1140 1296 LINE",
"1140 1456 LINE",
"86 1456 LINE",
"86 1253 LINE",
"834 1253 LINE"
);
}
);
width = 1234;
}
);
note = uni01B5;
unicode = 01B5;
},
{
glyphname = uni01B6;
lastChange = "2017-04-17 14:58:29 +0000";
layers = (
{
layerId = "D68CFE38-7B02-4705-B0C1-3A2279678377";
paths = (
{
closed = 1;
nodes = (
"448 634 LINE",
"141 634 LINE",
"141 464 LINE",
"320 464 LINE",
"89 159 LINE",
"89 0 LINE",
"967 0 LINE",
"967 195 LINE",
"392 195 LINE",
"595 464 LINE",
"894 464 LINE",
"894 634 LINE",
"723 634 LINE",
"946 929 LINE",
"946 1082 LINE",
"100 1082 LINE",
"100 886 LINE",
"639 886 LINE"
);
}
);
width = 1044;
}
);
leftKerningGroup = z;
note = uni01B6;
rightKerningGroup = z;
unicode = 01B6;
},
{
glyphname = uni01B7;
lastChange = "2017-04-17 14:58:29 +0000";
layers = (
{
layerId = "D68CFE38-7B02-4705-B0C1-3A2279678377";
paths = (
{
closed = 1;
nodes = (
"387 746 LINE",
"387 584 LINE",
"630 584 LINE SMOOTH",
"865 584 OFFCURVE",
"979 477 OFFCURVE",
"979 178 CURVE SMOOTH",
"979 -91 OFFCURVE",
"882 -221 OFFCURVE",
"643 -221 CURVE SMOOTH",
"426 -221 OFFCURVE",
"352 -121 OFFCURVE",
"327 70 CURVE",
"74 70 LINE",
"101 -211 OFFCURVE",
"287 -423 OFFCURVE",
"643 -423 CURVE SMOOTH",
"999 -423 OFFCURVE",
"1231 -230 OFFCURVE",
"1231 178 CURVE SMOOTH",
"1231 565 OFFCURVE",
"1020 758 OFFCURVE",
"687 777 CURVE",
"1145 1300 LINE",
"1145 1456 LINE",
"97 1456 LINE",
"97 1253 LINE",
"835 1253 LINE"
);
}
);
width = 1331;
}
);
note = uni01B7;
unicode = 01B7;
},
{
glyphname = uni01B8;
lastChange = "2017-04-17 14:58:29 +0000";
layers = (
{
layerId = "D68CFE38-7B02-4705-B0C1-3A2279678377";
paths = (
{
closed = 1;
nodes = (
"1234 1253 LINE",
"1234 1456 LINE",
"188 1456 LINE",
"188 1300 LINE",
"646 777 LINE",
"311 758 OFFCURVE",
"100 565 OFFCURVE",
"100 178 CURVE SMOOTH",
"100 -230 OFFCURVE",
"332 -423 OFFCURVE",
"688 -423 CURVE SMOOTH",
"1044 -423 OFFCURVE",
"1230 -211 OFFCURVE",
"1257 70 CURVE",
"1005 70 LINE",
"980 -121 OFFCURVE",
"907 -221 OFFCURVE",
"688 -221 CURVE SMOOTH",
"451 -221 OFFCURVE",
"352 -91 OFFCURVE",
"352 178 CURVE SMOOTH",
"352 475 OFFCURVE",
"465 584 OFFCURVE",
"702 584 CURVE SMOOTH",
"946 584 LINE",
"946 746 LINE",
"498 1253 LINE"
);
}
);
width = 1331;
}
);
note = uni01B8;
unicode = 01B8;
},
{
glyphname = uni01B9;
lastChange = "2017-04-17 14:58:29 +0000";
layers = (
{
layerId = "D68CFE38-7B02-4705-B0C1-3A2279678377";
paths = (
{
closed = 1;
nodes = (
"1034 1082 LINE",
"126 1082 LINE",
"125 927 LINE",
"500 483 LINE",
"235 451 OFFCURVE",
"83 293 OFFCURVE",
"83 33 CURVE SMOOTH",
"83 -239 OFFCURVE",
"297 -395 OFFCURVE",
"596 -395 CURVE SMOOTH",
"676 -395 OFFCURVE",
"753 -380 OFFCURVE",
"828 -351 CURVE SMOOTH",
"977 -292 OFFCURVE",
"1084 -170 OFFCURVE",
"1084 29 CURVE",
"841 29 LINE",
"841 -96 OFFCURVE",
"744 -200 OFFCURVE",
"596 -200 CURVE SMOOTH",
"425 -200 OFFCURVE",
"326 -100 OFFCURVE",
"326 33 CURVE SMOOTH",
"326 232 OFFCURVE",
"427 311 OFFCURVE",
"620 314 CURVE SMOOTH",
"770 314 LINE",
"770 485 LINE",
"422 886 LINE",
"1034 886 LINE"
);
}
);
width = 1165;
}
);
note = uni01B9;
unicode = 01B9;
},
{
glyphname = uni01BA;
lastChange = "2017-04-17 14:58:29 +0000";
layers = (
{
layerId = "D68CFE38-7B02-4705-B0C1-3A2279678377";
paths = (
{
closed = 1;
nodes = (
"691 327 OFFCURVE",
"675 296 OFFCURVE",
"644 275 CURVE SMOOTH",
"612 254 OFFCURVE",
"554 236 OFFCURVE",
"470 219 CURVE SMOOTH",
"211 167 OFFCURVE",
"69 75 OFFCURVE",
"69 -109 CURVE SMOOTH",
"69 -301 OFFCURVE",
"242 -437 OFFCURVE",
"507 -437 CURVE SMOOTH",
"803 -437 OFFCURVE",
"964 -252 OFFCURVE",
"964 -75 CURVE",
"728 -75 LINE",
"721 -210 OFFCURVE",
"607 -255 OFFCURVE",
"504 -255 CURVE SMOOTH",
"373 -255 OFFCURVE",
"308 -211 OFFCURVE",
"308 -122 CURVE SMOOTH",
"308 -88 OFFCURVE",
"322 -59 OFFCURVE",
"351 -34 CURVE SMOOTH",
"380 -9 OFFCURVE",
"440 13 OFFCURVE",
"531 32 CURVE SMOOTH",
"752 79 OFFCURVE",
"928 162 OFFCURVE",
"928 358 CURVE SMOOTH",
"928 494 OFFCURVE",
"832 604 OFFCURVE",
"669 647 CURVE",
"995 939 LINE",
"994 1082 LINE",
"121 1082 LINE",
"121 887 LINE",
"629 887 LINE",
"308 631 LINE",
"308 484 LINE",
"519 484 LINE SMOOTH",
"634 482 OFFCURVE",
"691 443 OFFCURVE",
"691 368 CURVE SMOOTH"
);
}
);
width = 1087;
}
);
note = uni01BA;
unicode = 01BA;
},
{
glyphname = uni01BB;
lastChange = "2017-04-17 14:58:29 +0000";
layers = (
{
layerId = "D68CFE38-7B02-4705-B0C1-3A2279678377";
paths = (
{
closed = 1;
nodes = (
"780 589 LINE",
"831 647 LINE",
"1112 647 LINE",
"1112 818 LINE",
"954 818 LINE",
"1006 908 OFFCURVE",
"1032 994 OFFCURVE",
"1032 1076 CURVE SMOOTH",
"1032 1319 OFFCURVE",
"866 1476 OFFCURVE",
"575 1476 CURVE SMOOTH",
"260 1476 OFFCURVE",
"81 1268 OFFCURVE",
"81 1013 CURVE",
"324 1013 LINE",
"324 1169 OFFCURVE",
"407 1281 OFFCURVE",
"572 1281 CURVE SMOOTH",
"711 1281 OFFCURVE",
"789 1183 OFFCURVE",
"789 1050 CURVE SMOOTH",
"789 979 OFFCURVE",
"766 914 OFFCURVE",
"695 818 CURVE",
"278 818 LINE",
"278 647 LINE",
"549 647 LINE",
"109 168 LINE",
"109 0 LINE",
"1089 0 LINE",
"1089 195 LINE",
"412 195 LINE"
);
}
);
width = 1192;
}
);
note = uni01BB;
unicode = 01BB;
},
{
glyphname = uni01BC;
lastChange = "2017-04-17 14:58:29 +0000";
layers = (
{
layerId = "D68CFE38-7B02-4705-B0C1-3A2279678377";
paths = (
{
closed = 1;
nodes = (
"212 722 LINE",
"406 674 LINE",
"458 723 OFFCURVE",
"505 760 OFFCURVE",
"618 760 CURVE SMOOTH",
"789 760 OFFCURVE",
"877 640 OFFCURVE",
"877 473 CURVE SMOOTH",
"877 298 OFFCURVE",
"797 175 OFFCURVE",
"640 175 CURVE SMOOTH",
"500 175 OFFCURVE",
"421 248 OFFCURVE",
"402 394 CURVE",
"167 394 LINE",
"184 123 OFFCURVE",
"398 -20 OFFCURVE",
"641 -20 CURVE SMOOTH",
"964 -20 OFFCURVE",
"1120 197 OFFCURVE",
"1120 466 CURVE SMOOTH",
"1120 769 OFFCURVE",
"957 956 OFFCURVE",
"681 956 CURVE SMOOTH",
"599 956 OFFCURVE",
"523 937 OFFCURVE",
"453 899 CURVE",
"493 1247 LINE",
"1073 1247 LINE",
"1073 1456 LINE",
"63 1456 LINE",
"63 1247 LINE",
"269 1247 LINE"
);
}
);
width = 1199;
}
);
note = uni01BC;
unicode = 01BC;
},
{
glyphname = uni01BD;
lastChange = "2017-04-17 14:58:29 +0000";
layers = (
{
layerId = "D68CFE38-7B02-4705-B0C1-3A2279678377";
paths = (
{
closed = 1;
nodes = (
"164 479 LINE",
"377 466 LINE",
"417 521 OFFCURVE",
"480 549 OFFCURVE",
"566 549 CURVE SMOOTH",
"697 549 OFFCURVE",
"767 474 OFFCURVE",
"767 363 CURVE SMOOTH",
"767 254 OFFCURVE",
"706 179 OFFCURVE",
"563 179 CURVE SMOOTH",
"442 179 OFFCURVE",
"361 236 OFFCURVE",
"358 329 CURVE",
"121 312 LINE",
"121 237 OFFCURVE",
"143 175 OFFCURVE",
"188 127 CURVE SMOOTH",
"277 30 OFFCURVE",
"423 -16 OFFCURVE",
"563 -16 CURVE SMOOTH",
"880 -16 OFFCURVE",
"1010 143 OFFCURVE",
"1010 356 CURVE SMOOTH",
"1010 592 OFFCURVE",
"866 729 OFFCURVE",
"622 726 CURVE SMOOTH",
"539 723 OFFCURVE",
"456 697 OFFCURVE",
"409 670 CURVE",
"438 883 LINE",
"946 883 LINE",
"946 1082 LINE",
"46 1082 LINE",
"46 883 LINE",
"213 883 LINE"
);
}
);
width = 1072;
}
);
note = uni01BD;
unicode = 01BD;
},
{
glyphname = uni01BE;
lastChange = "2017-04-17 14:58:29 +0000";
layers = (
{
layerId = "D68CFE38-7B02-4705-B0C1-3A2279678377";
paths = (
{
closed = 1;
nodes = (
"970 464 OFFCURVE",
"885 526 OFFCURVE",
"790 573 CURVE SMOOTH",
"695 620 OFFCURVE",
"610 669 OFFCURVE",
"610 801 CURVE SMOOTH",
"610 903 LINE",
"802 903 LINE",
"802 1082 LINE",
"610 1082 LINE",
"610 1345 LINE",
"368 1345 LINE",
"368 1082 LINE",
"189 1082 LINE",
"189 903 LINE",
"368 903 LINE",
"368 793 LINE SMOOTH",
"369 621 OFFCURVE",
"453 538 OFFCURVE",
"550 483 CURVE SMOOTH",
"646 427 OFFCURVE",
"732 386 OFFCURVE",
"732 294 CURVE SMOOTH",
"732 215 OFFCURVE",
"660 162 OFFCURVE",
"535 162 CURVE SMOOTH",
"432 162 OFFCURVE",
"317 207 OFFCURVE",
"312 342 CURVE",
"76 342 LINE",
"76 163 OFFCURVE",
"236 -20 OFFCURVE",
"533 -20 CURVE SMOOTH",
"798 -20 OFFCURVE",
"970 116 OFFCURVE",
"970 308 CURVE SMOOTH"
);
}
);
width = 1058;
}
);
note = uni01BE;
unicode = 01BE;
},
{
glyphname = uni01BF;
lastChange = "2017-04-17 14:58:29 +0000";
layers = (
{
layerId = "D68CFE38-7B02-4705-B0C1-3A2279678377";
paths = (
{
closed = 1;
nodes = (
"1073 881 OFFCURVE",
"925 1102 OFFCURVE",
"650 1102 CURVE SMOOTH",
"527 1102 OFFCURVE",
"430 1059 OFFCURVE",
"358 972 CURVE",
"347 1082 LINE",
"125 1082 LINE",
"125 -416 LINE",
"367 -416 LINE",
"367 -166 LINE",
"510 -125 OFFCURVE",
"635 -76 OFFCURVE",
"741 -19 CURVE SMOOTH",
"952 93 OFFCURVE",
"1073 259 OFFCURVE",
"1073 530 CURVE SMOOTH",
"1073 550 LINE SMOOTH"
);
},
{
closed = 1;
nodes = (
"757 904 OFFCURVE",
"830 746 OFFCURVE",
"830 551 CURVE SMOOTH",
"830 524 LINE SMOOTH",
"827 247 OFFCURVE",
"638 99 OFFCURVE",
"367 26 CURVE",
"367 779 LINE",
"410 862 OFFCURVE",
"482 904 OFFCURVE",
"582 904 CURVE SMOOTH"
);
}
);
width = 1153;
}
);
note = uni01BF;
unicode = 01BF;
},
{
glyphname = uni01C0;
lastChange = "2017-04-17 14:58:29 +0000";
layers = (
{
layerId = "D68CFE38-7B02-4705-B0C1-3A2279678377";
paths = (
{
closed = 1;
nodes = (
"167 0 LINE",
"334 0 LINE",
"334 1456 LINE",
"167 1456 LINE"
);
}
);
width = 501;
}
);
note = uni01C0;
unicode = 01C0;
},
{
glyphname = uni01C5;
lastChange = "2017-04-17 14:58:29 +0000";
layers = (
{
layerId = "D68CFE38-7B02-4705-B0C1-3A2279678377";
paths = (
{
closed = 1;
nodes = (
"1407 1503 LINE",
"1674 1252 LINE",
"1831 1252 LINE",
"2100 1504 LINE",
"2100 1522 LINE",
"1892 1522 LINE",
"1753 1379 LINE",
"1613 1522 LINE",
"1407 1522 LINE"
);
},
{
closed = 1;
nodes = (
"970 0 OFFCURVE",
"1234 271 OFFCURVE",
"1234 691 CURVE SMOOTH",
"1234 764 LINE SMOOTH",
"1234 1184 OFFCURVE",
"967 1456 OFFCURVE",
"578 1456 CURVE SMOOTH",
"149 1456 LINE",
"149 0 LINE",
"567 0 LINE SMOOTH"
);
},
{
closed = 1;
nodes = (
"839 1253 OFFCURVE",
"981 1081 OFFCURVE",
"981 766 CURVE SMOOTH",
"981 683 LINE SMOOTH",
"978 383 OFFCURVE",
"839 202 OFFCURVE",
"567 202 CURVE SMOOTH",
"401 202 LINE",
"401 1253 LINE",
"578 1253 LINE SMOOTH"
);
},
{
closed = 1;
nodes = (
"1313 159 LINE",
"1313 0 LINE",
"2191 0 LINE",
"2191 195 LINE",
"1616 195 LINE",
"2170 929 LINE",
"2170 1082 LINE",
"1323 1082 LINE",
"1323 886 LINE",
"1862 886 LINE"
);
}
);
width = 2262;
}
);
note = uni01C5;
rightKerningGroup = z;
unicode = 01C5;
},
{
glyphname = uni01C6;
lastChange = "2017-04-17 14:58:29 +0000";
layers = (
{
layerId = "D68CFE38-7B02-4705-B0C1-3A2279678377";
paths = (
{
closed = 1;
nodes = (
"1028 1560 LINE",
"785 1560 LINE",
"785 983 LINE",
"714 1062 OFFCURVE",
"622 1102 OFFCURVE",
"507 1102 CURVE SMOOTH",
"243 1102 OFFCURVE",
"80 879 OFFCURVE",
"80 550 CURVE SMOOTH",
"80 529 LINE SMOOTH",
"80 214 OFFCURVE",
"245 -20 OFFCURVE",
"505 -20 CURVE SMOOTH",
"629 -20 OFFCURVE",
"727 26 OFFCURVE",
"800 117 CURVE",
"817 0 LINE",
"1028 0 LINE"
);
},
{
closed = 1;
nodes = (
"1217 1503 LINE",
"1484 1252 LINE",
"1641 1252 LINE",
"1910 1504 LINE",
"1910 1522 LINE",
"1702 1522 LINE",
"1563 1379 LINE",
"1423 1522 LINE",
"1217 1522 LINE"
);
},
{
closed = 1;
nodes = (
"1123 159 LINE",
"1123 0 LINE",
"2001 0 LINE",
"2001 195 LINE",
"1426 195 LINE",
"1980 929 LINE",
"1980 1082 LINE",
"1133 1082 LINE",
"1133 886 LINE",
"1672 886 LINE"
);
},
{
closed = 1;
nodes = (
"322 745 OFFCURVE",
"393 904 OFFCURVE",
"569 904 CURVE SMOOTH",
"668 904 OFFCURVE",
"740 861 OFFCURVE",
"785 774 CURVE",
"785 313 LINE",
"739 224 OFFCURVE",
"666 179 OFFCURVE",
"567 179 CURVE SMOOTH",
"392 179 OFFCURVE",
"322 336 OFFCURVE",
"322 529 CURVE SMOOTH",
"322 550 LINE SMOOTH"
);
}
);
width = 2072;
}
);
leftKerningGroup = c;
note = uni01C6;
rightKerningGroup = z;
unicode = 01C6;
},
{
glyphname = uni01E4;
lastChange = "2017-04-17 14:58:29 +0000";
layers = (
{
layerId = "D68CFE38-7B02-4705-B0C1-3A2279678377";
paths = (
{
closed = 1;
nodes = (
"1417 326 LINE",
"1417 484 LINE",
"1264 484 LINE",
"1264 747 LINE",
"713 747 LINE",
"713 556 LINE",
"1012 556 LINE",
"1012 484 LINE",
"748 484 LINE",
"748 326 LINE",
"1012 326 LINE",
"1012 270 LINE",
"995 251 OFFCURVE",
"966 232 OFFCURVE",
"927 212 CURVE SMOOTH",
"887 192 OFFCURVE",
"823 182 OFFCURVE",
"736 182 CURVE SMOOTH",
"503 182 OFFCURVE",
"361 360 OFFCURVE",
"361 680 CURVE SMOOTH",
"361 787 LINE SMOOTH",
"364 1096 OFFCURVE",
"475 1273 OFFCURVE",
"710 1273 CURVE SMOOTH",
"907 1273 OFFCURVE",
"991 1162 OFFCURVE",
"1016 1011 CURVE",
"1264 1011 LINE",
"1229 1282 OFFCURVE",
"1062 1476 OFFCURVE",
"706 1476 CURVE SMOOTH",
"330 1476 OFFCURVE",
"106 1220 OFFCURVE",
"106 775 CURVE SMOOTH",
"106 680 LINE SMOOTH",
"106 235 OFFCURVE",
"361 -20 OFFCURVE",
"728 -20 CURVE SMOOTH",
"1053 -20 OFFCURVE",
"1203 107 OFFCURVE",
"1264 190 CURVE",
"1264 326 LINE"
);
}
);
width = 1419;
}
);
note = uni01E4;
unicode = 01E4;
},
{
glyphname = uni01E5;
lastChange = "2017-04-17 14:58:29 +0000";
layers = (
{
layerId = "D68CFE38-7B02-4705-B0C1-3A2279678377";
paths = (
{
closed = 1;
nodes = (
"1046 -52 LINE",
"1046 1082 LINE",
"826 1082 LINE",
"816 975 LINE",
"746 1060 OFFCURVE",
"649 1102 OFFCURVE",
"525 1102 CURVE SMOOTH",
"257 1102 OFFCURVE",
"91 879 OFFCURVE",
"91 550 CURVE SMOOTH",
"91 529 LINE SMOOTH",
"91 214 OFFCURVE",
"259 -20 OFFCURVE",
"523 -20 CURVE SMOOTH",
"639 -20 OFFCURVE",
"732 19 OFFCURVE",
"803 98 CURVE",
"803 -52 LINE",
"37 -52 LINE",
"37 -179 LINE",
"784 -179 LINE",
"747 -274 OFFCURVE",
"666 -322 OFFCURVE",
"541 -322 CURVE SMOOTH",
"426 -322 OFFCURVE",
"331 -282 OFFCURVE",
"258 -203 CURVE",
"150 -345 LINE",
"259 -477 OFFCURVE",
"436 -513 OFFCURVE",
"555 -513 CURVE SMOOTH",
"803 -513 OFFCURVE",
"985 -394 OFFCURVE",
"1033 -179 CURVE",
"1149 -179 LINE",
"1149 -52 LINE"
);
},
{
closed = 1;
nodes = (
"334 745 OFFCURVE",
"411 904 OFFCURVE",
"587 904 CURVE SMOOTH",
"686 904 OFFCURVE",
"758 863 OFFCURVE",
"803 780 CURVE",
"803 306 LINE",
"757 221 OFFCURVE",
"684 179 OFFCURVE",
"585 179 CURVE SMOOTH",
"410 179 OFFCURVE",
"334 336 OFFCURVE",
"334 529 CURVE SMOOTH",
"334 550 LINE SMOOTH"
);
}
);
width = 1161;
}
);
leftKerningGroup = c;
note = uni01E5;
unicode = 01E5;
},
{
glyphname = uni01EF;
lastChange = "2017-04-17 14:58:29 +0000";
layers = (
{
layerId = "D68CFE38-7B02-4705-B0C1-3A2279678377";
paths = (
{
closed = 1;
nodes = (
"230 1503 LINE",
"497 1252 LINE",
"654 1252 LINE",
"922 1504 LINE",
"922 1522 LINE",
"715 1522 LINE",
"575 1379 LINE",
"436 1522 LINE",
"230 1522 LINE"
);
},
{
closed = 1;
nodes = (
"746 314 OFFCURVE",
"852 234 OFFCURVE",
"852 33 CURVE SMOOTH",
"852 -100 OFFCURVE",
"753 -200 OFFCURVE",
"582 -200 CURVE SMOOTH",
"433 -200 OFFCURVE",
"337 -96 OFFCURVE",
"337 29 CURVE",
"94 29 LINE",
"94 -70 OFFCURVE",
"118 -151 OFFCURVE",
"166 -213 CURVE SMOOTH",
"262 -338 OFFCURVE",
"422 -395 OFFCURVE",
"582 -395 CURVE SMOOTH",
"879 -395 OFFCURVE",
"1094 -239 OFFCURVE",
"1094 33 CURVE SMOOTH",
"1094 293 OFFCURVE",
"943 451 OFFCURVE",
"678 483 CURVE",
"1053 927 LINE",
"1052 1082 LINE",
"143 1082 LINE",
"143 886 LINE",
"756 886 LINE",
"408 485 LINE",
"408 314 LINE",
"550 314 LINE SMOOTH"
);
}
);
width = 1191;
}
);
note = uni01EF;
unicode = 01EF;
},
{
glyphname = uni01F6;
lastChange = "2017-04-17 14:58:29 +0000";
layers = (
{
layerId = "D68CFE38-7B02-4705-B0C1-3A2279678377";
paths = (
{
closed = 1;
nodes = (
"401 850 LINE",
"401 1456 LINE",
"149 1456 LINE",
"149 0 LINE",
"401 0 LINE",
"401 648 LINE",
"1052 648 LINE",
"1052 483 LINE SMOOTH",
"1052 150 OFFCURVE",
"1257 -20 OFFCURVE",
"1568 -20 CURVE SMOOTH",
"1572 -20 LINE SMOOTH",
"1869 -19 OFFCURVE",
"2085 149 OFFCURVE",
"2086 480 CURVE SMOOTH",
"2086 1081 LINE",
"1834 1081 LINE",
"1834 472 LINE SMOOTH",
"1831 279 OFFCURVE",
"1742 182 OFFCURVE",
"1568 182 CURVE SMOOTH",
"1395 182 OFFCURVE",
"1308 279 OFFCURVE",
"1305 474 CURVE",
"1305 1456 LINE",
"1052 1456 LINE",
"1052 850 LINE"
);
}
);
width = 2208;
}
);
note = uni01F6;
unicode = 01F6;
},
{
glyphname = uni01F7;
lastChange = "2017-04-17 14:58:29 +0000";
layers = (
{
layerId = "D68CFE38-7B02-4705-B0C1-3A2279678377";
paths = (
{
closed = 1;
nodes = (
"1252 1270 OFFCURVE",
"1021 1476 OFFCURVE",
"657 1476 CURVE SMOOTH",
"558 1476 OFFCURVE",
"473 1458 OFFCURVE",
"401 1421 CURVE",
"401 1456 LINE",
"149 1456 LINE",
"149 -416 LINE",
"401 -416 LINE",
"401 -156 LINE",
"917 -19 OFFCURVE",
"1255 359 OFFCURVE",
"1255 803 CURVE SMOOTH",
"1255 862 LINE"
);
},
{
closed = 1;
nodes = (
"905 1273 OFFCURVE",
"1002 1130 OFFCURVE",
"1002 857 CURVE SMOOTH",
"1002 803 LINE SMOOTH",
"1002 503 OFFCURVE",
"809 182 OFFCURVE",
"401 53 CURVE",
"401 1159 LINE",
"460 1235 OFFCURVE",
"546 1273 OFFCURVE",
"657 1273 CURVE SMOOTH"
);
}
);
width = 1359;
}
);
note = uni01F7;
unicode = 01F7;
},
{
glyphname = uni021C;
lastChange = "2017-04-17 14:58:29 +0000";
layers = (
{
layerId = "D68CFE38-7B02-4705-B0C1-3A2279678377";
paths = (
{
closed = 1;
nodes = (
"1135 498 OFFCURVE",
"1074 616 OFFCURVE",
"952 687 CURVE",
"1059 797 OFFCURVE",
"1113 922 OFFCURVE",
"1113 1061 CURVE SMOOTH",
"1113 1333 OFFCURVE",
"907 1476 OFFCURVE",
"584 1476 CURVE SMOOTH",
"312 1476 OFFCURVE",
"78 1323 OFFCURVE",
"78 1068 CURVE",
"330 1068 LINE",
"330 1193 OFFCURVE",
"448 1273 OFFCURVE",
"584 1273 CURVE SMOOTH",
"781 1273 OFFCURVE",
"862 1171 OFFCURVE",
"862 1046 CURVE SMOOTH",
"862 771 OFFCURVE",
"650 645 OFFCURVE",
"175 502 CURVE",
"176 315 LINE",
"438 380 OFFCURVE",
"646 462 OFFCURVE",
"799 563 CURVE",
"854 526 OFFCURVE",
"882 450 OFFCURVE",
"882 337 CURVE SMOOTH",
"882 18 OFFCURVE",
"627 -144 OFFCURVE",
"176 -235 CURVE",
"176 -437 LINE",
"360 -404 OFFCURVE",
"524 -357 OFFCURVE",
"669 -296 CURVE SMOOTH",
"958 -173 OFFCURVE",
"1135 25 OFFCURVE",
"1135 333 CURVE SMOOTH"
);
}
);
width = 1231;
}
);
note = uni021C;
unicode = 021C;
},
{
glyphname = uni021D;
lastChange = "2017-04-17 14:58:29 +0000";
layers = (
{
layerId = "D68CFE38-7B02-4705-B0C1-3A2279678377";
paths = (
{
closed = 1;
nodes = (
"942 322 OFFCURVE",
"892 421 OFFCURVE",
"793 486 CURVE",
"879 575 OFFCURVE",
"922 675 OFFCURVE",
"922 786 CURVE SMOOTH",
"922 991 OFFCURVE",
"760 1101 OFFCURVE",
"497 1101 CURVE SMOOTH",
"264 1101 OFFCURVE",
"72 976 OFFCURVE",
"72 775 CURVE",
"314 775 LINE",
"314 856 OFFCURVE",
"396 914 OFFCURVE",
"504 914 CURVE SMOOTH",
"635 914 OFFCURVE",
"679 844 OFFCURVE",
"679 767 CURVE SMOOTH",
"679 694 OFFCURVE",
"655 633 OFFCURVE",
"608 582 CURVE SMOOTH",
"513 481 OFFCURVE",
"351 415 OFFCURVE",
"172 364 CURVE",
"172 186 LINE",
"369 232 OFFCURVE",
"528 294 OFFCURVE",
"649 371 CURVE",
"682 327 OFFCURVE",
"698 269 OFFCURVE",
"698 198 CURVE SMOOTH",
"698 -55 OFFCURVE",
"505 -159 OFFCURVE",
"172 -251 CURVE",
"172 -437 LINE",
"655 -358 OFFCURVE",
"942 -169 OFFCURVE",
"942 188 CURVE SMOOTH"
);
}
);
width = 1034;
}
);
note = uni021D;
unicode = 021D;
},
{
glyphname = uni0220;
lastChange = "2017-04-17 14:58:29 +0000";
layers = (
{
layerId = "D68CFE38-7B02-4705-B0C1-3A2279678377";
paths = (
{
closed = 1;
nodes = (
"1211 1314 OFFCURVE",
"974 1476 OFFCURVE",
"698 1476 CURVE SMOOTH",
"591 1476 OFFCURVE",
"489 1450 OFFCURVE",
"392 1398 CURVE",
"392 1456 LINE",
"149 1456 LINE",
"149 0 LINE",
"392 0 LINE",
"392 1200 LINE",
"478 1252 OFFCURVE",
"575 1278 OFFCURVE",
"683 1278 CURVE SMOOTH",
"860 1278 OFFCURVE",
"967 1194 OFFCURVE",
"967 1003 CURVE SMOOTH",
"967 -416 LINE",
"1211 -416 LINE",
"1211 1003 LINE SMOOTH"
);
}
);
width = 1337;
}
);
note = uni0220;
unicode = 0220;
},
{
glyphname = uni0221;
lastChange = "2017-04-17 14:58:29 +0000";
layers = (
{
layerId = "D68CFE38-7B02-4705-B0C1-3A2279678377";
paths = (
{
closed = 1;
nodes = (
"714 1062 OFFCURVE",
"622 1102 OFFCURVE",
"507 1102 CURVE SMOOTH",
"243 1102 OFFCURVE",
"80 879 OFFCURVE",
"80 550 CURVE SMOOTH",
"80 529 LINE SMOOTH",
"80 214 OFFCURVE",
"245 -20 OFFCURVE",
"505 -20 CURVE SMOOTH",
"620 -20 OFFCURVE",
"714 20 OFFCURVE",
"785 99 CURVE",
"785 -31 LINE",
"542 -255 LINE",
"666 -402 LINE",
"815 -259 LINE",
"858 -362 OFFCURVE",
"953 -437 OFFCURVE",
"1132 -437 CURVE SMOOTH",
"1337 -437 OFFCURVE",
"1460 -324 OFFCURVE",
"1460 -164 CURVE SMOOTH",
"1460 7 OFFCURVE",
"1337 106 OFFCURVE",
"1152 106 CURVE SMOOTH",
"1109 106 OFFCURVE",
"1068 101 OFFCURVE",
"1028 92 CURVE",
"1028 1536 LINE",
"785 1536 LINE",
"785 983 LINE"
);
},
{
closed = 1;
nodes = (
"322 745 OFFCURVE",
"393 904 OFFCURVE",
"569 904 CURVE SMOOTH",
"668 904 OFFCURVE",
"740 861 OFFCURVE",
"785 774 CURVE",
"785 313 LINE",
"739 224 OFFCURVE",
"666 179 OFFCURVE",
"567 179 CURVE SMOOTH",
"392 179 OFFCURVE",
"322 336 OFFCURVE",
"322 529 CURVE SMOOTH",
"322 550 LINE SMOOTH"
);
},
{
closed = 1;
nodes = (
"1061 -81 OFFCURVE",
"1094 -74 OFFCURVE",
"1125 -74 CURVE SMOOTH",
"1196 -74 OFFCURVE",
"1232 -105 OFFCURVE",
"1232 -168 CURVE SMOOTH",
"1232 -231 OFFCURVE",
"1200 -262 OFFCURVE",
"1135 -262 CURVE SMOOTH",
"1060 -262 OFFCURVE",
"1028 -215 OFFCURVE",
"1028 -151 CURVE SMOOTH",
"1028 -96 LINE"
);
}
);
width = 1490;
}
);
leftKerningGroup = c;
note = uni0221;
unicode = 0221;
},
{
glyphname = uni0222;
lastChange = "2017-04-17 14:58:29 +0000";
layers = (
{
layerId = "D68CFE38-7B02-4705-B0C1-3A2279678377";
paths = (
{
closed = 1;
nodes = (
"1231 606 OFFCURVE",
"1169 726 OFFCURVE",
"1044 806 CURVE",
"1169 870 OFFCURVE",
"1232 972 OFFCURVE",
"1232 1112 CURVE SMOOTH",
"1232 1357 OFFCURVE",
"1054 1471 OFFCURVE",
"821 1476 CURVE",
"821 1283 LINE",
"925 1258 OFFCURVE",
"979 1219 OFFCURVE",
"979 1112 CURVE SMOOTH",
"979 964 OFFCURVE",
"856 922 OFFCURVE",
"685 922 CURVE SMOOTH",
"650 922 LINE SMOOTH",
"479 922 OFFCURVE",
"356 964 OFFCURVE",
"356 1112 CURVE SMOOTH",
"356 1219 OFFCURVE",
"409 1258 OFFCURVE",
"513 1283 CURVE",
"513 1476 LINE",
"280 1471 OFFCURVE",
"103 1357 OFFCURVE",
"103 1112 CURVE SMOOTH",
"103 972 OFFCURVE",
"165 870 OFFCURVE",
"290 806 CURVE",
"165 726 OFFCURVE",
"103 606 OFFCURVE",
"103 445 CURVE SMOOTH",
"103 136 OFFCURVE",
"341 -21 OFFCURVE",
"656 -21 CURVE SMOOTH",
"677 -21 LINE SMOOTH",
"993 -21 OFFCURVE",
"1231 136 OFFCURVE",
"1231 447 CURVE SMOOTH"
);
},
{
closed = 1;
nodes = (
"862 713 OFFCURVE",
"978 623 OFFCURVE",
"978 447 CURVE SMOOTH",
"978 270 OFFCURVE",
"862 186 OFFCURVE",
"677 186 CURVE SMOOTH",
"463 186 OFFCURVE",
"356 272 OFFCURVE",
"356 445 CURVE SMOOTH",
"356 622 OFFCURVE",
"472 713 OFFCURVE",
"656 713 CURVE SMOOTH",
"677 713 LINE SMOOTH"
);
}
);
width = 1334;
}
);
note = uni0222;
unicode = 0222;
},
{
glyphname = uni0223;
lastChange = "2017-04-17 14:58:29 +0000";
layers = (
{
layerId = "D68CFE38-7B02-4705-B0C1-3A2279678377";
paths = (
{
closed = 1;
nodes = (
"1204 606 OFFCURVE",
"1140 725 OFFCURVE",
"1013 804 CURVE",
"1140 872 OFFCURVE",
"1204 985 OFFCURVE",
"1204 1144 CURVE SMOOTH",
"1204 1405 OFFCURVE",
"1032 1550 OFFCURVE",
"799 1557 CURVE",
"799 1372 LINE",
"902 1332 OFFCURVE",
"961 1273 OFFCURVE",
"961 1142 CURVE SMOOTH",
"961 963 OFFCURVE",
"835 907 OFFCURVE",
"662 907 CURVE SMOOTH",
"627 907 LINE SMOOTH",
"454 907 OFFCURVE",
"328 963 OFFCURVE",
"328 1142 CURVE SMOOTH",
"328 1273 OFFCURVE",
"388 1332 OFFCURVE",
"491 1372 CURVE",
"491 1557 LINE",
"258 1550 OFFCURVE",
"85 1405 OFFCURVE",
"85 1144 CURVE SMOOTH",
"85 985 OFFCURVE",
"149 872 OFFCURVE",
"276 804 CURVE",
"149 725 OFFCURVE",
"85 605 OFFCURVE",
"85 443 CURVE SMOOTH",
"85 134 OFFCURVE",
"319 -21 OFFCURVE",
"634 -21 CURVE SMOOTH",
"655 -21 LINE SMOOTH",
"970 -21 OFFCURVE",
"1204 134 OFFCURVE",
"1204 445 CURVE SMOOTH"
);
},
{
closed = 1;
nodes = (
"842 712 OFFCURVE",
"961 620 OFFCURVE",
"961 445 CURVE SMOOTH",
"961 268 OFFCURVE",
"842 174 OFFCURVE",
"655 174 CURVE SMOOTH",
"634 174 LINE SMOOTH",
"447 174 OFFCURVE",
"328 268 OFFCURVE",
"328 443 CURVE SMOOTH",
"328 619 OFFCURVE",
"447 712 OFFCURVE",
"634 712 CURVE SMOOTH",
"655 712 LINE SMOOTH"
);
}
);
width = 1289;
}
);
note = uni0223;
unicode = 0223;
},
{
glyphname = uni0224;
lastChange = "2017-04-17 14:58:29 +0000";
layers = (
{
layerId = "D68CFE38-7B02-4705-B0C1-3A2279678377";
paths = (
{
closed = 1;
nodes = (
"80 164 LINE",
"80 0 LINE",
"878 0 LINE SMOOTH",
"1011 0 OFFCURVE",
"1043 -83 OFFCURVE",
"1043 -184 CURVE SMOOTH",
"1043 -209 OFFCURVE",
"1040 -234 OFFCURVE",
"1034 -259 CURVE",
"1235 -259 LINE",
"1246 -218 OFFCURVE",
"1252 -174 OFFCURVE",
"1252 -129 CURVE SMOOTH",
"1252 80 OFFCURVE",
"1124 199 OFFCURVE",
"885 202 CURVE SMOOTH",
"386 202 LINE",
"1140 1296 LINE",
"1140 1456 LINE",
"86 1456 LINE",
"86 1253 LINE",
"834 1253 LINE"
);
}
);
width = 1284;
}
);
note = uni0224;
unicode = 0224;
},
{
glyphname = uni0225;
lastChange = "2017-04-17 14:58:29 +0000";
layers = (
{
layerId = "D68CFE38-7B02-4705-B0C1-3A2279678377";
paths = (
{
closed = 1;
nodes = (
"93 1082 LINE",
"93 886 LINE",
"632 886 LINE",
"82 159 LINE",
"82 0 LINE",
"687 0 LINE SMOOTH",
"822 0 OFFCURVE",
"861 -70 OFFCURVE",
"861 -165 CURVE SMOOTH",
"861 -193 OFFCURVE",
"858 -218 OFFCURVE",
"853 -239 CURVE",
"1044 -239 LINE",
"1055 -199 OFFCURVE",
"1061 -156 OFFCURVE",
"1061 -109 CURVE SMOOTH",
"1061 88 OFFCURVE",
"943 190 OFFCURVE",
"706 195 CURVE SMOOTH",
"385 195 LINE",
"939 929 LINE",
"939 1082 LINE"
);
}
);
width = 1101;
}
);
note = uni0225;
unicode = 0225;
},
{
glyphname = uni0234;
lastChange = "2017-04-17 14:58:29 +0000";
layers = (
{
layerId = "D68CFE38-7B02-4705-B0C1-3A2279678377";
paths = (
{
closed = 1;
nodes = (
"20 -255 LINE",
"144 -402 LINE",
"293 -259 LINE",
"337 -363 OFFCURVE",
"434 -437 OFFCURVE",
"611 -437 CURVE SMOOTH",
"816 -437 OFFCURVE",
"938 -324 OFFCURVE",
"938 -164 CURVE SMOOTH",
"938 7 OFFCURVE",
"815 106 OFFCURVE",
"631 106 CURVE SMOOTH",
"588 106 OFFCURVE",
"546 101 OFFCURVE",
"506 92 CURVE",
"506 1536 LINE",
"263 1536 LINE",
"263 -32 LINE"
);
},
{
closed = 1;
nodes = (
"539 -82 OFFCURVE",
"572 -74 OFFCURVE",
"604 -74 CURVE SMOOTH",
"675 -74 OFFCURVE",
"711 -105 OFFCURVE",
"711 -168 CURVE SMOOTH",
"711 -227 OFFCURVE",
"669 -262 OFFCURVE",
"614 -262 CURVE SMOOTH",
"539 -262 OFFCURVE",
"506 -215 OFFCURVE",
"506 -151 CURVE SMOOTH",
"506 -97 LINE"
);
}
);
width = 968;
}
);
note = uni0234;
unicode = 0234;
},
{
glyphname = uni0235;
lastChange = "2017-04-17 14:58:29 +0000";
layers = (
{
layerId = "D68CFE38-7B02-4705-B0C1-3A2279678377";
paths = (
{
closed = 1;
nodes = (
"543 1102 OFFCURVE",
"438 1054 OFFCURVE",
"359 958 CURVE",
"351 1082 LINE",
"122 1082 LINE",
"122 0 LINE",
"365 0 LINE",
"365 772 LINE",
"414 860 OFFCURVE",
"486 904 OFFCURVE",
"583 904 CURVE SMOOTH",
"708 904 OFFCURVE",
"774 851 OFFCURVE",
"774 702 CURVE SMOOTH",
"774 -32 LINE",
"531 -255 LINE",
"655 -402 LINE",
"804 -258 LINE",
"848 -362 OFFCURVE",
"943 -437 OFFCURVE",
"1122 -437 CURVE SMOOTH",
"1327 -437 OFFCURVE",
"1449 -324 OFFCURVE",
"1449 -164 CURVE SMOOTH",
"1449 7 OFFCURVE",
"1326 106 OFFCURVE",
"1142 106 CURVE SMOOTH",
"1099 106 OFFCURVE",
"1057 101 OFFCURVE",
"1017 92 CURVE",
"1017 705 LINE",
"1016 994 OFFCURVE",
"880 1102 OFFCURVE",
"672 1102 CURVE SMOOTH"
);
},
{
closed = 1;
nodes = (
"1050 -82 OFFCURVE",
"1083 -74 OFFCURVE",
"1115 -74 CURVE SMOOTH",
"1186 -74 OFFCURVE",
"1222 -105 OFFCURVE",
"1222 -168 CURVE SMOOTH",
"1222 -227 OFFCURVE",
"1180 -262 OFFCURVE",
"1125 -262 CURVE SMOOTH",
"1050 -262 OFFCURVE",
"1017 -215 OFFCURVE",
"1017 -151 CURVE SMOOTH",
"1017 -97 LINE"
);
}
);
width = 1479;
}
);
leftKerningGroup = m;
note = uni0235;
unicode = 0235;
},
{
glyphname = uni0236;
lastChange = "2017-04-17 14:58:29 +0000";
layers = (
{
layerId = "D68CFE38-7B02-4705-B0C1-3A2279678377";
paths = (
{
closed = 1;
nodes = (
"938 423 OFFCURVE",
"815 523 OFFCURVE",
"631 523 CURVE SMOOTH",
"590 523 OFFCURVE",
"548 518 OFFCURVE",
"506 508 CURVE",
"506 903 LINE",
"697 903 LINE",
"697 1082 LINE",
"506 1082 LINE",
"506 1345 LINE",
"263 1345 LINE",
"263 1082 LINE",
"85 1082 LINE",
"85 903 LINE",
"263 903 LINE",
"263 384 LINE",
"20 161 LINE",
"144 15 LINE",
"293 158 LINE",
"337 54 OFFCURVE",
"434 -20 OFFCURVE",
"611 -20 CURVE SMOOTH",
"816 -20 OFFCURVE",
"938 92 OFFCURVE",
"938 252 CURVE SMOOTH"
);
},
{
closed = 1;
nodes = (
"539 335 OFFCURVE",
"572 343 OFFCURVE",
"604 343 CURVE SMOOTH",
"675 343 OFFCURVE",
"711 312 OFFCURVE",
"711 249 CURVE SMOOTH",
"711 192 OFFCURVE",
"669 155 OFFCURVE",
"614 155 CURVE SMOOTH",
"542 155 OFFCURVE",
"506 192 OFFCURVE",
"506 266 CURVE SMOOTH",
"506 320 LINE"
);
}
);
width = 968;
}
);
note = uni0236;
unicode = 0236;
},
{
glyphname = uni0237;
lastChange = "2017-04-17 14:58:29 +0000";
layers = (
{
layerId = "D68CFE38-7B02-4705-B0C1-3A2279678377";
paths = (
{
closed = 1;
nodes = (
"160 -183 OFFCURVE",
"119 -242 OFFCURVE",
"38 -242 CURVE SMOOTH",
"-2 -242 OFFCURVE",
"-35 -238 OFFCURVE",
"-61 -229 CURVE",
"-75 -420 LINE",
"-36 -431 OFFCURVE",
"6 -437 OFFCURVE",
"52 -437 CURVE SMOOTH",
"272 -437 OFFCURVE",
"404 -304 OFFCURVE",
"404 -63 CURVE SMOOTH",
"404 1082 LINE",
"161 1082 LINE",
"161 -66 LINE SMOOTH"
);
}
);
width = 551;
}
);
note = uni0237;
unicode = 0237;
},
{
glyphname = uni0238;
lastChange = "2017-04-17 14:58:29 +0000";
layers = (
{
layerId = "D68CFE38-7B02-4705-B0C1-3A2279678377";
paths = (
{
closed = 1;
nodes = (
"1750 876 OFFCURVE",
"1606 1102 OFFCURVE",
"1327 1102 CURVE SMOOTH",
"1208 1102 OFFCURVE",
"1114 1061 OFFCURVE",
"1043 978 CURVE",
"1043 1536 LINE",
"800 1536 LINE",
"800 984 LINE",
"729 1063 OFFCURVE",
"637 1102 OFFCURVE",
"523 1102 CURVE SMOOTH",
"259 1102 OFFCURVE",
"96 879 OFFCURVE",
"96 550 CURVE SMOOTH",
"96 529 LINE SMOOTH",
"96 214 OFFCURVE",
"260 -20 OFFCURVE",
"521 -20 CURVE SMOOTH",
"642 -20 OFFCURVE",
"739 24 OFFCURVE",
"811 112 CURVE",
"823 0 LINE",
"1043 0 LINE",
"1043 104 LINE",
"1114 21 OFFCURVE",
"1209 -20 OFFCURVE",
"1329 -20 CURVE SMOOTH",
"1604 -20 OFFCURVE",
"1750 211 OFFCURVE",
"1750 530 CURVE SMOOTH",
"1750 551 LINE SMOOTH"
);
},
{
closed = 1;
nodes = (
"1450 904 OFFCURVE",
"1507 742 OFFCURVE",
"1507 551 CURVE SMOOTH",
"1507 324 OFFCURVE",
"1447 179 OFFCURVE",
"1267 179 CURVE SMOOTH",
"1163 179 OFFCURVE",
"1088 226 OFFCURVE",
"1043 320 CURVE",
"1043 764 LINE",
"1088 857 OFFCURVE",
"1162 904 OFFCURVE",
"1265 904 CURVE SMOOTH"
);
},
{
closed = 1;
nodes = (
"338 745 OFFCURVE",
"409 904 OFFCURVE",
"585 904 CURVE SMOOTH",
"684 904 OFFCURVE",
"755 861 OFFCURVE",
"800 776 CURVE",
"800 311 LINE",
"754 223 OFFCURVE",
"682 179 OFFCURVE",
"583 179 CURVE SMOOTH",
"408 179 OFFCURVE",
"338 336 OFFCURVE",
"338 529 CURVE SMOOTH",
"338 550 LINE SMOOTH"
);
}
);
width = 1846;
}
);
note = uni0238;
rightKerningGroup = b;
unicode = 0238;
},
{
glyphname = uni0239;
lastChange = "2017-04-17 14:58:29 +0000";
layers = (
{
layerId = "D68CFE38-7B02-4705-B0C1-3A2279678377";
paths = (
{
closed = 1;
nodes = (
"1583 -20 OFFCURVE",
"1733 215 OFFCURVE",
"1733 530 CURVE SMOOTH",
"1733 550 LINE SMOOTH",
"1733 881 OFFCURVE",
"1585 1102 OFFCURVE",
"1310 1102 CURVE SMOOTH",
"1188 1102 OFFCURVE",
"1091 1059 OFFCURVE",
"1018 973 CURVE",
"1008 1082 LINE",
"810 1082 LINE",
"797 976 LINE",
"726 1060 OFFCURVE",
"630 1102 OFFCURVE",
"510 1102 CURVE SMOOTH",
"235 1102 OFFCURVE",
"80 880 OFFCURVE",
"80 551 CURVE SMOOTH",
"80 531 LINE SMOOTH",
"80 215 OFFCURVE",
"239 -20 OFFCURVE",
"508 -20 CURVE SMOOTH",
"621 -20 OFFCURVE",
"713 18 OFFCURVE",
"784 93 CURVE",
"784 -416 LINE",
"1027 -416 LINE",
"1027 98 LINE",
"1099 19 OFFCURVE",
"1194 -20 OFFCURVE",
"1312 -20 CURVE SMOOTH"
);
},
{
closed = 1;
nodes = (
"322 744 OFFCURVE",
"396 907 OFFCURVE",
"571 907 CURVE SMOOTH",
"666 907 OFFCURVE",
"737 868 OFFCURVE",
"784 789 CURVE",
"784 299 LINE",
"738 216 OFFCURVE",
"666 175 OFFCURVE",
"569 175 CURVE SMOOTH",
"394 175 OFFCURVE",
"322 337 OFFCURVE",
"322 530 CURVE SMOOTH",
"322 551 LINE SMOOTH"
);
},
{
closed = 1;
nodes = (
"1417 904 OFFCURVE",
"1490 746 OFFCURVE",
"1490 551 CURVE SMOOTH",
"1490 531 LINE SMOOTH",
"1490 338 OFFCURVE",
"1417 175 OFFCURVE",
"1244 175 CURVE SMOOTH",
"1144 175 OFFCURVE",
"1072 217 OFFCURVE",
"1027 302 CURVE",
"1027 779 LINE",
"1070 862 OFFCURVE",
"1142 904 OFFCURVE",
"1242 904 CURVE SMOOTH"
);
}
);
width = 1813;
}
);
note = uni0239;
rightKerningGroup = b;
unicode = 0239;
},
{
glyphname = uni023A;
lastChange = "2017-04-17 14:58:29 +0000";
layers = (
{
layerId = "D68CFE38-7B02-4705-B0C1-3A2279678377";
paths = (
{
closed = 1;
nodes = (
"133 0 LINE",
"282 0 LINE",
"392 317 LINE",
"411 340 LINE",
"964 340 LINE",
"1083 0 LINE",
"1347 0 LINE",
"962 1014 LINE",
"1386 1532 LINE",
"1202 1532 LINE",
"904 1168 LINE",
"795 1456 LINE",
"568 1456 LINE",
"78 159 LINE",
"-183 -160 LINE",
"2 -160 LINE"
);
},
{
closed = 1;
nodes = (
"529 710 LINE",
"682 1149 LINE",
"744 972 LINE"
);
},
{
closed = 1;
nodes = (
"894 543 LINE",
"577 543 LINE",
"799 814 LINE"
);
}
);
width = 1363;
}
);
note = uni023A;
unicode = 023A;
},
{
glyphname = uni023B;
lastChange = "2017-04-17 14:58:29 +0000";
layers = (
{
layerId = "D68CFE38-7B02-4705-B0C1-3A2279678377";
paths = (
{
closed = 1;
nodes = (
"1046 -20 OFFCURVE",
"1234 191 OFFCURVE",
"1259 474 CURVE",
"1007 474 LINE",
"983 287 OFFCURVE",
"906 184 OFFCURVE",
"689 184 CURVE SMOOTH",
"649 184 OFFCURVE",
"613 189 OFFCURVE",
"580 200 CURVE",
"936 1180 LINE",
"973 1133 OFFCURVE",
"997 1065 OFFCURVE",
"1008 975 CURVE",
"1260 975 LINE",
"1241 1160 OFFCURVE",
"1161 1312 OFFCURVE",
"1016 1399 CURVE",
"1077 1567 LINE",
"923 1567 LINE",
"882 1454 LINE",
"827 1469 OFFCURVE",
"766 1476 OFFCURVE",
"701 1476 CURVE SMOOTH",
"334 1476 OFFCURVE",
"102 1206 OFFCURVE",
"102 787 CURVE SMOOTH",
"102 669 LINE SMOOTH",
"102 389 OFFCURVE",
"204 176 OFFCURVE",
"377 65 CURVE",
"308 -125 LINE",
"462 -125 LINE",
"509 5 LINE",
"565 -12 OFFCURVE",
"625 -20 OFFCURVE",
"689 -20 CURVE SMOOTH"
);
},
{
closed = 1;
nodes = (
"358 1097 OFFCURVE",
"472 1272 OFFCURVE",
"701 1272 CURVE SMOOTH",
"742 1272 OFFCURVE",
"779 1268 OFFCURVE",
"811 1259 CURVE",
"457 286 LINE",
"390 367 OFFCURVE",
"357 494 OFFCURVE",
"357 669 CURVE SMOOTH",
"357 794 LINE SMOOTH"
);
}
);
width = 1337;
}
);
note = uni023B;
unicode = 023B;
},
{
glyphname = uni023C;
lastChange = "2017-04-17 14:58:29 +0000";
layers = (
{
layerId = "D68CFE38-7B02-4705-B0C1-3A2279678377";
paths = (
{
closed = 1;
nodes = (
"813 -20 OFFCURVE",
"1006 149 OFFCURVE",
"1013 358 CURVE",
"785 358 LINE",
"778 251 OFFCURVE",
"687 175 OFFCURVE",
"570 175 CURVE SMOOTH",
"537 175 OFFCURVE",
"508 180 OFFCURVE",
"482 189 CURVE",
"728 840 LINE",
"763 801 OFFCURVE",
"782 753 OFFCURVE",
"785 695 CURVE",
"1013 695 LINE",
"1009 858 OFFCURVE",
"940 975 OFFCURVE",
"806 1047 CURVE",
"961 1456 LINE",
"807 1456 LINE",
"670 1094 LINE",
"639 1099 OFFCURVE",
"606 1102 OFFCURVE",
"572 1102 CURVE SMOOTH",
"240 1102 OFFCURVE",
"80 855 OFFCURVE",
"80 559 CURVE SMOOTH",
"80 541 LINE SMOOTH",
"80 320 OFFCURVE",
"147 162 OFFCURVE",
"282 65 CURVE",
"100 -416 LINE",
"254 -416 LINE",
"412 2 LINE",
"461 -13 OFFCURVE",
"515 -20 OFFCURVE",
"572 -20 CURVE SMOOTH"
);
},
{
closed = 1;
nodes = (
"322 731 OFFCURVE",
"372 907 OFFCURVE",
"569 907 CURVE",
"599 905 LINE",
"367 291 LINE",
"337 348 OFFCURVE",
"322 426 OFFCURVE",
"322 523 CURVE SMOOTH",
"322 559 LINE SMOOTH"
);
}
);
width = 1073;
}
);
note = uni023C;
unicode = 023C;
},
{
glyphname = uni023E;
lastChange = "2017-04-17 14:58:29 +0000";
layers = (
{
layerId = "D68CFE38-7B02-4705-B0C1-3A2279678377";
paths = (
{
closed = 1;
nodes = (
"495 527 LINE",
"160 -125 LINE",
"320 -125 LINE",
"495 216 LINE",
"495 0 LINE",
"747 0 LINE",
"747 706 LINE",
"1028 1253 LINE",
"1200 1253 LINE",
"1200 1456 LINE",
"1132 1456 LINE",
"1189 1567 LINE",
"1030 1567 LINE",
"973 1456 LINE",
"45 1456 LINE",
"45 1253 LINE",
"495 1253 LINE"
);
},
{
closed = 1;
nodes = (
"747 1017 LINE",
"747 1253 LINE",
"869 1253 LINE"
);
}
);
width = 1244;
}
);
note = uni023E;
unicode = 023E;
},
{
glyphname = uni023F;
lastChange = "2017-04-17 14:58:29 +0000";
layers = (
{
layerId = "D68CFE38-7B02-4705-B0C1-3A2279678377";
paths = (
{
closed = 1;
nodes = (
"730 217 OFFCURVE",
"662 162 OFFCURVE",
"534 162 CURVE SMOOTH",
"410 162 OFFCURVE",
"320 218 OFFCURVE",
"265 329 CURVE",
"73 235 LINE",
"305 -183 LINE SMOOTH",
"386 -330 OFFCURVE",
"477 -437 OFFCURVE",
"626 -437 CURVE SMOOTH",
"725 -437 OFFCURVE",
"808 -376 OFFCURVE",
"863 -324 CURVE",
"782 -184 LINE",
"732 -229 OFFCURVE",
"682 -251 OFFCURVE",
"632 -251 CURVE SMOOTH",
"551 -251 OFFCURVE",
"509 -163 OFFCURVE",
"430 -12 CURVE",
"462 -17 OFFCURVE",
"496 -20 OFFCURVE",
"531 -20 CURVE SMOOTH",
"796 -20 OFFCURVE",
"969 116 OFFCURVE",
"969 308 CURVE SMOOTH",
"969 487 OFFCURVE",
"836 579 OFFCURVE",
"600 632 CURVE SMOOTH",
"481 659 OFFCURVE",
"410 682 OFFCURVE",
"385 702 CURVE SMOOTH",
"360 721 OFFCURVE",
"347 749 OFFCURVE",
"347 784 CURVE SMOOTH",
"347 856 OFFCURVE",
"404 920 OFFCURVE",
"527 920 CURVE SMOOTH",
"654 920 OFFCURVE",
"718 842 OFFCURVE",
"718 758 CURVE",
"961 758 LINE",
"961 953 OFFCURVE",
"797 1102 OFFCURVE",
"528 1102 CURVE SMOOTH",
"271 1102 OFFCURVE",
"110 951 OFFCURVE",
"110 774 CURVE SMOOTH",
"110 586 OFFCURVE",
"278 501 OFFCURVE",
"502 453 CURVE SMOOTH",
"592 434 OFFCURVE",
"653 412 OFFCURVE",
"684 388 CURVE SMOOTH",
"715 363 OFFCURVE",
"730 332 OFFCURVE",
"730 294 CURVE SMOOTH"
);
}
);
width = 1054;
}
);
leftKerningGroup = s;
note = uni023F;
unicode = 023F;
},
{
glyphname = uni0240;
lastChange = "2017-04-17 14:58:29 +0000";
layers = (
{
layerId = "D68CFE38-7B02-4705-B0C1-3A2279678377";
paths = (
{
closed = 1;
nodes = (
"82 159 LINE",
"82 0 LINE",
"379 0 LINE SMOOTH",
"496 -1 OFFCURVE",
"565 -64 OFFCURVE",
"621 -149 CURVE SMOOTH",
"706 -282 LINE SMOOTH",
"763 -371 OFFCURVE",
"836 -437 OFFCURVE",
"963 -437 CURVE SMOOTH",
"1066 -437 OFFCURVE",
"1155 -376 OFFCURVE",
"1208 -324 CURVE",
"1126 -184 LINE",
"1075 -229 OFFCURVE",
"1027 -251 OFFCURVE",
"982 -251 CURVE SMOOTH",
"901 -251 OFFCURVE",
"851 -148 OFFCURVE",
"784 -29 CURVE SMOOTH",
"717 90 OFFCURVE",
"623 195 OFFCURVE",
"452 195 CURVE SMOOTH",
"385 195 LINE",
"939 929 LINE",
"939 1082 LINE",
"93 1082 LINE",
"93 886 LINE",
"632 886 LINE"
);
}
);
width = 1118;
}
);
leftKerningGroup = z;
note = uni0240;
unicode = 0240;
},
{
glyphname = uni0241;
lastChange = "2017-04-17 14:58:29 +0000";
layers = (
{
layerId = "D68CFE38-7B02-4705-B0C1-3A2279678377";
paths = (
{
closed = 1;
nodes = (
"646 285 LINE",
"887 345 OFFCURVE",
"1009 561 OFFCURVE",
"1009 812 CURVE SMOOTH",
"1009 933 LINE SMOOTH",
"1009 1229 OFFCURVE",
"839 1476 OFFCURVE",
"507 1476 CURVE SMOOTH",
"244 1476 OFFCURVE",
"62 1304 OFFCURVE",
"55 1055 CURVE",
"294 1055 LINE",
"301 1180 OFFCURVE",
"378 1267 OFFCURVE",
"510 1267 CURVE SMOOTH",
"707 1267 OFFCURVE",
"756 1100 OFFCURVE",
"756 933 CURVE SMOOTH",
"756 812 LINE SMOOTH",
"756 641 OFFCURVE",
"709 478 OFFCURVE",
"509 478 CURVE SMOOTH",
"394 478 LINE",
"394 0 LINE",
"646 0 LINE"
);
}
);
width = 1095;
}
);
note = uni0241;
unicode = 0241;
},
{
glyphname = uni0242;
lastChange = "2017-04-17 14:58:29 +0000";
layers = (
{
layerId = "D68CFE38-7B02-4705-B0C1-3A2279678377";
paths = (
{
closed = 1;
nodes = (
"633 330 LINE",
"836 363 OFFCURVE",
"932 499 OFFCURVE",
"932 686 CURVE SMOOTH",
"932 939 OFFCURVE",
"786 1102 OFFCURVE",
"494 1102 CURVE SMOOTH",
"249 1102 OFFCURVE",
"76 936 OFFCURVE",
"76 695 CURVE",
"318 695 LINE",
"318 819 OFFCURVE",
"387 907 OFFCURVE",
"494 907 CURVE SMOOTH",
"643 907 OFFCURVE",
"690 806 OFFCURVE",
"690 687 CURVE SMOOTH",
"690 564 OFFCURVE",
"644 465 OFFCURVE",
"492 465 CURVE SMOOTH",
"390 465 LINE",
"390 0 LINE",
"633 0 LINE"
);
}
);
width = 1010;
}
);
note = uni0242;
unicode = 0242;
},
{
glyphname = uni0244;
lastChange = "2017-04-17 14:58:29 +0000";
layers = (
{
layerId = "D68CFE38-7B02-4705-B0C1-3A2279678377";
paths = (
{
closed = 1;
nodes = (
"1106 -20 OFFCURVE",
"1348 150 OFFCURVE",
"1348 483 CURVE SMOOTH",
"1348 664 LINE",
"1569 664 LINE",
"1569 835 LINE",
"1348 835 LINE",
"1348 1456 LINE",
"1095 1456 LINE",
"1095 835 LINE",
"512 835 LINE",
"512 1456 LINE",
"260 1456 LINE",
"260 835 LINE",
"34 835 LINE",
"34 664 LINE",
"260 664 LINE",
"260 483 LINE SMOOTH",
"260 150 OFFCURVE",
"492 -20 OFFCURVE",
"803 -20 CURVE SMOOTH"
);
},
{
closed = 1;
nodes = (
"1095 664 LINE",
"1095 483 LINE SMOOTH",
"1095 275 OFFCURVE",
"983 182 OFFCURVE",
"803 182 CURVE SMOOTH",
"626 182 OFFCURVE",
"512 275 OFFCURVE",
"512 483 CURVE SMOOTH",
"512 664 LINE"
);
}
);
width = 1603;
}
);
note = uni0244;
unicode = 0244;
},
{
glyphname = uni0245;
lastChange = "2017-04-17 14:58:29 +0000";
layers = (
{
layerId = "D68CFE38-7B02-4705-B0C1-3A2279678377";
paths = (
{
closed = 1;
nodes = (
"661 1138 LINE",
"1031 0 LINE",
"1308 0 LINE",
"784 1456 LINE",
"540 1456 LINE",
"18 0 LINE",
"295 0 LINE"
);
}
);
width = 1326;
}
);
leftKerningGroup = A;
note = uni0245;
rightKerningGroup = A;
unicode = 0245;
},
{
glyphname = uni0246;
lastChange = "2017-04-17 14:58:29 +0000";
layers = (
{
layerId = "D68CFE38-7B02-4705-B0C1-3A2279678377";
paths = (
{
closed = 1;
nodes = (
"381 -125 LINE",
"536 -125 LINE",
"571 0 LINE",
"1101 0 LINE",
"1101 202 LINE",
"627 202 LINE",
"752 651 LINE",
"999 651 LINE",
"999 850 LINE",
"807 850 LINE",
"919 1253 LINE",
"1094 1253 LINE",
"1094 1456 LINE",
"975 1456 LINE",
"1006 1567 LINE",
"852 1567 LINE",
"821 1456 LINE",
"149 1456 LINE",
"149 0 LINE",
"416 0 LINE"
);
},
{
closed = 1;
nodes = (
"765 1253 LINE",
"652 850 LINE",
"401 850 LINE",
"401 1253 LINE"
);
},
{
closed = 1;
nodes = (
"597 651 LINE",
"472 202 LINE",
"401 202 LINE",
"401 651 LINE"
);
}
);
width = 1158;
}
);
note = uni0246;
unicode = 0246;
},
{
glyphname = uni0247;
lastChange = "2017-04-17 14:58:29 +0000";
layers = (
{
layerId = "D68CFE38-7B02-4705-B0C1-3A2279678377";
paths = (
{
closed = 1;
nodes = (
"817 -20 OFFCURVE",
"949 83 OFFCURVE",
"1018 184 CURVE",
"887 309 LINE",
"818 220 OFFCURVE",
"726 175 OFFCURVE",
"612 175 CURVE SMOOTH",
"571 175 OFFCURVE",
"532 182 OFFCURVE",
"497 195 CURVE",
"599 465 LINE",
"1036 465 LINE",
"1036 554 LINE SMOOTH",
"1036 795 OFFCURVE",
"963 958 OFFCURVE",
"817 1043 CURVE",
"973 1456 LINE",
"818 1456 LINE",
"681 1092 LINE",
"647 1099 OFFCURVE",
"611 1102 OFFCURVE",
"573 1102 CURVE SMOOTH",
"298 1102 OFFCURVE",
"84 885 OFFCURVE",
"84 544 CURVE SMOOTH",
"84 495 LINE SMOOTH",
"86 306 OFFCURVE",
"156 164 OFFCURVE",
"294 69 CURVE",
"111 -416 LINE",
"266 -416 LINE",
"425 6 LINE",
"480 -11 OFFCURVE",
"538 -20 OFFCURVE",
"601 -20 CURVE SMOOTH"
);
},
{
closed = 1;
nodes = (
"511 643 LINE",
"320 643 LINE",
"339 808 OFFCURVE",
"430 907 OFFCURVE",
"566 907 CURVE",
"610 904 LINE"
);
},
{
closed = 1;
nodes = (
"666 643 LINE",
"740 840 LINE",
"781 796 OFFCURVE",
"802 736 OFFCURVE",
"802 661 CURVE SMOOTH",
"802 643 LINE"
);
},
{
closed = 1;
nodes = (
"376 286 LINE",
"339 336 OFFCURVE",
"319 396 OFFCURVE",
"316 465 CURVE",
"444 465 LINE"
);
}
);
width = 1099;
}
);
note = uni0247;
unicode = 0247;
},
{
glyphname = uni024A;
lastChange = "2017-04-17 14:58:29 +0000";
layers = (
{
layerId = "D68CFE38-7B02-4705-B0C1-3A2279678377";
paths = (
{
closed = 1;
nodes = (
"968 1456 OFFCURVE",
"856 1476 OFFCURVE",
"727 1476 CURVE SMOOTH",
"332 1476 OFFCURVE",
"102 1185 OFFCURVE",
"102 777 CURVE SMOOTH",
"102 680 LINE SMOOTH",
"102 283 OFFCURVE",
"319 -20 OFFCURVE",
"727 -20 CURVE SMOOTH",
"832 -20 OFFCURVE",
"927 -6 OFFCURVE",
"1012 21 CURVE",
"1012 -63 LINE SMOOTH",
"1012 -304 OFFCURVE",
"1151 -437 OFFCURVE",
"1360 -437 CURVE SMOOTH",
"1405 -437 OFFCURVE",
"1449 -431 OFFCURVE",
"1490 -420 CURVE",
"1490 -222 LINE",
"1468 -227 OFFCURVE",
"1443 -230 OFFCURVE",
"1415 -230 CURVE SMOOTH",
"1328 -230 OFFCURVE",
"1264 -192 OFFCURVE",
"1264 -63 CURVE SMOOTH",
"1264 1456 LINE",
"1075 1456 LINE",
"1065 1415 LINE"
);
},
{
closed = 1;
nodes = (
"825 1268 OFFCURVE",
"889 1258 OFFCURVE",
"928 1237 CURVE SMOOTH",
"966 1216 OFFCURVE",
"994 1196 OFFCURVE",
"1012 1177 CURVE",
"1012 279 LINE",
"994 260 OFFCURVE",
"966 241 OFFCURVE",
"928 220 CURVE SMOOTH",
"889 199 OFFCURVE",
"825 188 OFFCURVE",
"734 188 CURVE SMOOTH",
"463 188 OFFCURVE",
"355 395 OFFCURVE",
"355 680 CURVE SMOOTH",
"355 777 LINE SMOOTH",
"355 1042 OFFCURVE",
"451 1268 OFFCURVE",
"734 1268 CURVE SMOOTH"
);
}
);
width = 1500;
}
);
leftKerningGroup = C;
note = uni024A;
unicode = 024A;
},
{
glyphname = uni024B;
lastChange = "2017-04-17 14:58:29 +0000";
layers = (
{
layerId = "D68CFE38-7B02-4705-B0C1-3A2279678377";
paths = (
{
closed = 1;
nodes = (
"726 1060 OFFCURVE",
"630 1102 OFFCURVE",
"510 1102 CURVE SMOOTH",
"235 1102 OFFCURVE",
"80 880 OFFCURVE",
"80 551 CURVE SMOOTH",
"80 531 LINE SMOOTH",
"80 215 OFFCURVE",
"239 -20 OFFCURVE",
"508 -20 CURVE SMOOTH",
"621 -20 OFFCURVE",
"713 18 OFFCURVE",
"784 93 CURVE",
"784 -117 LINE SMOOTH",
"784 -356 OFFCURVE",
"956 -437 OFFCURVE",
"1124 -437 CURVE SMOOTH",
"1170 -437 OFFCURVE",
"1211 -433 OFFCURVE",
"1248 -424 CURVE",
"1248 -261 LINE",
"1228 -265 OFFCURVE",
"1207 -267 OFFCURVE",
"1184 -267 CURVE SMOOTH",
"1099 -267 OFFCURVE",
"1027 -230 OFFCURVE",
"1027 -117 CURVE SMOOTH",
"1027 1082 LINE",
"810 1082 LINE",
"797 976 LINE"
);
},
{
closed = 1;
nodes = (
"322 744 OFFCURVE",
"396 907 OFFCURVE",
"571 907 CURVE SMOOTH",
"666 907 OFFCURVE",
"737 868 OFFCURVE",
"784 789 CURVE",
"784 299 LINE",
"738 216 OFFCURVE",
"666 175 OFFCURVE",
"569 175 CURVE SMOOTH",
"394 175 OFFCURVE",
"322 337 OFFCURVE",
"322 530 CURVE SMOOTH",
"322 551 LINE SMOOTH"
);
}
);
width = 1241;
}
);
leftKerningGroup = c;
note = uni024B;
unicode = 024B;
},
{
glyphname = uni024C;
lastChange = "2017-04-17 14:58:29 +0000";
layers = (
{
layerId = "D68CFE38-7B02-4705-B0C1-3A2279678377";
paths = (
{
closed = 1;
nodes = (
"1315 13 LINE",
"988 621 LINE",
"1155 690 OFFCURVE",
"1254 822 OFFCURVE",
"1254 1017 CURVE SMOOTH",
"1254 1304 OFFCURVE",
"1064 1456 OFFCURVE",
"729 1456 CURVE SMOOTH",
"217 1456 LINE",
"217 764 LINE",
"33 764 LINE",
"33 561 LINE",
"217 561 LINE",
"217 0 LINE",
"470 0 LINE",
"470 561 LINE",
"752 561 LINE",
"1044 0 LINE",
"1315 0 LINE"
);
},
{
closed = 1;
nodes = (
"921 1252 OFFCURVE",
"1002 1154 OFFCURVE",
"1002 1005 CURVE SMOOTH",
"1002 866 OFFCURVE",
"911 764 OFFCURVE",
"730 764 CURVE SMOOTH",
"470 764 LINE",
"470 1253 LINE",
"733 1253 LINE SMOOTH"
);
}
);
width = 1347;
}
);
note = uni024C;
unicode = 024C;
},
{
glyphname = uni024E;
lastChange = "2017-04-17 14:58:29 +0000";
layers = (
{
layerId = "D68CFE38-7B02-4705-B0C1-3A2279678377";
paths = (
{
closed = 1;
nodes = (
"1395 1045 LINE",
"1395 1183 LINE",
"1184 1183 LINE",
"1329 1456 LINE",
"1049 1456 LINE",
"916 1183 LINE",
"512 1183 LINE",
"380 1456 LINE",
"99 1456 LINE",
"244 1183 LINE",
"34 1183 LINE",
"34 1045 LINE",
"317 1045 LINE",
"587 536 LINE",
"587 0 LINE",
"841 0 LINE",
"841 536 LINE",
"1111 1045 LINE"
);
},
{
closed = 1;
nodes = (
"849 1045 LINE",
"714 767 LINE",
"579 1045 LINE"
);
}
);
width = 1429;
}
);
leftKerningGroup = Y;
note = uni024E;
rightKerningGroup = Y;
unicode = 024E;
},
{
glyphname = uni024F;
lastChange = "2017-04-17 14:58:29 +0000";
layers = (
{
layerId = "D68CFE38-7B02-4705-B0C1-3A2279678377";
paths = (
{
closed = 1;
nodes = (
"1072 624 LINE",
"1072 758 LINE",
"933 758 LINE",
"1045 1082 LINE",
"786 1082 LINE",
"689 758 LINE",
"438 758 LINE",
"337 1082 LINE",
"75 1082 LINE",
"189 758 LINE",
"34 758 LINE",
"34 624 LINE",
"236 624 LINE",
"455 4 LINE",
"420 -89 LINE SMOOTH",
"383 -197 OFFCURVE",
"328 -235 OFFCURVE",
"208 -235 CURVE",
"162 -232 LINE",
"162 -420 LINE",
"209 -431 OFFCURVE",
"248 -437 OFFCURVE",
"279 -437 CURVE SMOOTH",
"348 -437 OFFCURVE",
"405 -422 OFFCURVE",
"450 -393 CURVE SMOOTH",
"538 -334 OFFCURVE",
"585 -243 OFFCURVE",
"614 -164 CURVE SMOOTH",
"887 624 LINE"
);
},
{
closed = 1;
nodes = (
"566 348 LINE",
"480 624 LINE",
"649 624 LINE"
);
}
);
width = 1106;
}
);
note = uni024F;
unicode = 024F;
},
{
glyphname = uni0250;
lastChange = "2017-04-17 14:58:29 +0000";
layers = (
{
layerId = "D68CFE38-7B02-4705-B0C1-3A2279678377";
paths = (
{
closed = 1;
nodes = (
"752 229 OFFCURVE",
"678 164 OFFCURVE",
"563 164 CURVE SMOOTH",
"435 164 OFFCURVE",
"373 237 OFFCURVE",
"373 350 CURVE SMOOTH",
"373 421 LINE",
"526 421 LINE SMOOTH",
"837 421 OFFCURVE",
"1018 547 OFFCURVE",
"1018 778 CURVE SMOOTH",
"1018 963 OFFCURVE",
"865 1102 OFFCURVE",
"650 1102 CURVE SMOOTH",
"536 1102 OFFCURVE",
"441 1062 OFFCURVE",
"365 981 CURVE",
"358 1024 OFFCURVE",
"349 1057 OFFCURVE",
"337 1082 CURVE",
"89 1082 LINE",
"89 1065 LINE",
"116 1007 OFFCURVE",
"130 929 OFFCURVE",
"130 832 CURVE SMOOTH",
"130 352 LINE SMOOTH",
"130 104 OFFCURVE",
"306 -20 OFFCURVE",
"549 -20 CURVE SMOOTH",
"821 -20 OFFCURVE",
"995 141 OFFCURVE",
"995 312 CURVE",
"752 312 LINE"
);
},
{
closed = 1;
nodes = (
"715 907 OFFCURVE",
"775 841 OFFCURVE",
"775 754 CURVE SMOOTH",
"775 637 OFFCURVE",
"689 576 OFFCURVE",
"518 573 CURVE SMOOTH",
"373 573 LINE",
"373 777 LINE",
"406 842 OFFCURVE",
"492 907 OFFCURVE",
"604 907 CURVE SMOOTH"
);
}
);
width = 1109;
}
);
note = uni0250;
unicode = 0250;
},
{
glyphname = uni0251;
lastChange = "2017-04-17 14:58:29 +0000";
layers = (
{
layerId = "D68CFE38-7B02-4705-B0C1-3A2279678377";
paths = (
{
closed = 1;
nodes = (
"1114 186 OFFCURVE",
"1106 185 OFFCURVE",
"1095 185 CURVE SMOOTH",
"1048 185 OFFCURVE",
"1024 226 OFFCURVE",
"1022 308 CURVE",
"1022 1082 LINE",
"814 1082 LINE",
"794 951 LINE",
"726 1052 OFFCURVE",
"631 1102 OFFCURVE",
"510 1102 CURVE SMOOTH",
"235 1102 OFFCURVE",
"86 863 OFFCURVE",
"86 527 CURVE SMOOTH",
"86 506 LINE SMOOTH",
"86 198 OFFCURVE",
"239 -21 OFFCURVE",
"508 -21 CURVE SMOOTH",
"635 -21 OFFCURVE",
"734 33 OFFCURVE",
"803 140 CURVE",
"838 33 OFFCURVE",
"910 -21 OFFCURVE",
"1019 -21 CURVE SMOOTH",
"1070 -21 OFFCURVE",
"1112 -11 OFFCURVE",
"1146 10 CURVE",
"1121 189 LINE"
);
},
{
closed = 1;
nodes = (
"330 742 OFFCURVE",
"396 907 OFFCURVE",
"572 907 CURVE SMOOTH",
"665 907 OFFCURVE",
"734 860 OFFCURVE",
"779 767 CURVE",
"779 310 LINE",
"734 219 OFFCURVE",
"664 174 OFFCURVE",
"570 174 CURVE SMOOTH",
"395 174 OFFCURVE",
"330 319 OFFCURVE",
"330 506 CURVE SMOOTH"
);
}
);
width = 1208;
}
);
note = uni0251;
unicode = 0251;
},
{
glyphname = uni0252;
lastChange = "2017-04-17 14:58:29 +0000";
layers = (
{
layerId = "D68CFE38-7B02-4705-B0C1-3A2279678377";
paths = (
{
closed = 1;
nodes = (
"1121 882 OFFCURVE",
"970 1101 OFFCURVE",
"699 1101 CURVE SMOOTH",
"572 1101 OFFCURVE",
"473 1047 OFFCURVE",
"404 940 CURVE",
"369 1048 OFFCURVE",
"298 1102 OFFCURVE",
"189 1102 CURVE SMOOTH",
"139 1102 OFFCURVE",
"97 1092 OFFCURVE",
"62 1071 CURVE",
"86 891 LINE",
"96 894 OFFCURVE",
"105 896 OFFCURVE",
"113 896 CURVE SMOOTH",
"160 896 OFFCURVE",
"184 855 OFFCURVE",
"186 773 CURVE SMOOTH",
"186 -1 LINE",
"394 -1 LINE",
"413 130 LINE",
"481 29 OFFCURVE",
"576 -21 OFFCURVE",
"697 -21 CURVE SMOOTH",
"970 -21 OFFCURVE",
"1121 217 OFFCURVE",
"1121 554 CURVE SMOOTH",
"1121 574 LINE SMOOTH"
);
},
{
closed = 1;
nodes = (
"474 861 OFFCURVE",
"544 906 OFFCURVE",
"638 906 CURVE SMOOTH",
"813 906 OFFCURVE",
"878 760 OFFCURVE",
"878 575 CURVE SMOOTH",
"878 339 OFFCURVE",
"811 174 OFFCURVE",
"636 174 CURVE SMOOTH",
"543 174 OFFCURVE",
"473 221 OFFCURVE",
"428 315 CURVE",
"428 770 LINE"
);
}
);
width = 1208;
}
);
note = uni0252;
unicode = 0252;
},
